<svg width="60" height="60" viewBox="0 0 60 60" fill="none" xmlns="http://www.w3.org/2000/svg">
<circle cx="30" cy="30" r="29" stroke="white" stroke-width="2"/>
<path d="M40.6058 20.8081L39.1918 19.3941C38.8008 19.0031 38.1688 19.0031 37.7778 19.3941L29.9998 27.1721L22.2218 19.3941C21.8308 19.0031 21.1988 19.0031 20.8078 19.3941L19.3938 20.8081C19.0028 21.1991 19.0028 21.8311 19.3938 22.2221L27.1718 30.0001L19.3938 37.7781C19.0028 38.1691 19.0028 38.8011 19.3938 39.1921L20.8078 40.6061C21.0028 40.8011 21.2588 40.8991 21.5148 40.8991C21.7708 40.8991 22.0268 40.8011 22.2218 40.6061L29.9998 32.8281L37.7778 40.6061C37.9728 40.8011 38.2288 40.8991 38.4848 40.8991C38.7408 40.8991 38.9968 40.8011 39.1918 40.6061L40.6058 39.1921C40.9968 38.8011 40.9968 38.1691 40.6058 37.7781L32.8278 30.0001L40.6058 22.2221C40.9968 21.8311 40.9968 21.1991 40.6058 20.8081Z" fill="white"/>
</svg>
