<svg width="201" height="67" viewBox="0 0 201 67" fill="none" xmlns="http://www.w3.org/2000/svg">
<path fill-rule="evenodd" clip-rule="evenodd" d="M152.541 17.9433C150.493 17.8502 149.015 17.9898 149.015 17.9898C146.585 18.0969 145.514 18.6175 144.226 19.2437C144.114 19.2982 144 19.3535 143.883 19.4095L143.872 0L138.984 2.16436V29.6029V44.4276H143.918V30.7316C143.918 26.1236 145.187 22.7956 151.226 22.8887C156.101 22.9702 157.579 26.1353 157.579 30.7316V44.416H162.513V29.6029C162.49 24.2967 160.419 18.2807 152.541 17.9433ZM189.139 21.6832L189.139 21.6836L189.137 21.6863L189.137 21.6866C188.984 22.0344 188.657 22.7783 188.547 23.0444C186.108 19.8755 182.313 17.8735 177.978 17.8735C170.449 17.8735 164.55 23.9128 164.55 31.6161C164.55 39.2379 170.449 45.2074 177.978 45.2074C185.507 45.2074 191.407 39.2379 191.407 31.6161C191.407 28.7094 190.567 26.0397 189.116 23.8419C189.172 23.1606 189.311 22.6322 189.51 22.1559C189.789 22.4352 190.173 22.6097 190.406 22.6447C197.986 24.0187 200.417 16.514 200.692 15.664L200.704 15.6279C200.401 15.8607 199.494 16.2679 199.133 16.3494C198.388 16.5277 197.403 16.364 196.317 16.1834C193.859 15.7746 190.879 15.2792 188.974 18.4672C188.66 19.1169 188.703 19.462 188.764 19.9397C188.808 20.292 188.862 20.7163 188.788 21.3879C188.893 20.841 189.277 20.201 189.393 20.073C191.041 17.6638 193.483 17.7109 195.514 17.75C196.338 17.7659 197.094 17.7805 197.702 17.6294C197.899 17.5945 198.109 17.5479 198.33 17.4781C198.308 17.4854 198.291 17.4973 198.275 17.508C198.266 17.5144 198.257 17.5203 198.248 17.5247C197.516 17.9087 196.52 17.975 195.441 18.0469C194.068 18.1383 192.561 18.2387 191.29 19.0141L191.278 19.0257C190.592 19.4447 189.987 20.0614 189.498 20.9807C189.463 21.0388 189.428 21.097 189.393 21.1668L189.382 21.1785L189.374 21.1928L189.364 21.2118C189.351 21.2372 189.337 21.2628 189.323 21.2887C189.291 21.3463 189.259 21.4057 189.23 21.4694C189.225 21.4796 189.222 21.4898 189.22 21.499C189.216 21.5108 189.214 21.521 189.207 21.5276L189.139 21.6832ZM13.696 40.4477C17.2451 40.4477 19.4095 38.9349 21.0967 35.9444L21.3993 35.8978L25.4138 37.5735C23.1796 42.2862 19.2582 44.916 13.696 44.916C6.016 44.916 0 38.9466 0 31.3131C0 23.7495 6.02764 17.6055 13.44 17.6055C19.6538 17.6055 25.0182 22.0156 26.4611 28.3226L26.5076 28.5204L6.48145 36.7822C8.09891 39.0862 10.7753 40.4477 13.696 40.4477ZM13.4516 22.0622C9.30909 22.0622 4.84073 25.5764 4.84073 31.2549C4.84073 31.7553 4.87564 32.1975 4.93382 32.6397L20.5731 26.2164C18.9673 23.6447 16.256 22.0622 13.4516 22.0622ZM104.693 36.0845C103.017 39.0751 100.876 40.5878 97.3501 40.5878C94.4527 40.5878 91.788 39.2263 90.1938 36.9223L110.069 28.6605L110.022 28.4627C108.591 22.1558 103.273 17.7456 97.1058 17.7456C89.7516 17.7456 83.7705 23.8896 83.7705 31.4532C83.7705 39.0867 89.74 45.0561 97.3618 45.0561C102.877 45.0561 106.776 42.438 108.998 37.7252L105.019 36.0496L104.693 36.0845ZM88.5531 31.3951C88.5531 25.7165 92.9865 22.2023 97.0941 22.2023C99.8752 22.2023 102.563 23.7849 104.157 26.3565L88.6461 32.7798C88.588 32.3492 88.5531 31.8954 88.5531 31.3951ZM169.449 31.6161C169.449 26.5426 173.277 22.4117 177.978 22.4117C182.703 22.4117 186.554 26.531 186.554 31.6161C186.554 36.5848 182.703 40.6226 177.978 40.6226C173.277 40.6226 169.449 36.5848 169.449 31.6161ZM124.672 40.588C119.994 40.588 116.189 36.5501 116.189 31.5814C116.189 26.508 119.994 22.377 124.672 22.377C128.023 22.377 130.909 24.4716 132.305 27.497L136.75 25.6352C134.633 20.9923 130.071 17.8389 124.672 17.8389C117.178 17.8389 111.302 23.8781 111.302 31.5814C111.302 39.2032 117.178 45.1727 124.672 45.1727C130.013 45.1727 134.516 42.1356 136.669 37.6323L132.212 35.7705C130.793 38.633 127.942 40.588 124.672 40.588ZM32.7331 31.4994C32.7331 36.4681 36.5266 40.5059 41.1928 40.5059C44.4626 40.5059 47.2902 38.551 48.7215 35.6885L53.1666 37.5503C51.0139 42.0536 46.5339 45.0907 41.2044 45.0907C33.7222 45.0907 27.8691 39.1212 27.8691 31.4994C27.8691 23.7961 33.7222 17.7568 41.2044 17.7568C46.592 17.7568 51.1302 20.9103 53.248 25.5532L48.8146 27.415C47.4066 24.3896 44.5324 22.295 41.1928 22.295C36.5266 22.295 32.7331 26.4259 32.7331 31.4994ZM54.7256 31.3251C54.7256 38.9469 60.6252 44.9163 68.1539 44.9163C75.6827 44.9163 81.5823 38.9469 81.5823 31.3251C81.5823 23.6218 75.6827 17.5825 68.1539 17.5825C60.6252 17.5825 54.7256 23.6218 54.7256 31.3251ZM59.6245 31.3251C59.6245 26.2516 63.4529 22.1207 68.1539 22.1207C72.8783 22.1207 76.7299 26.2516 76.7299 31.3251C76.7299 36.2822 72.8783 40.3316 68.1539 40.3316C63.4529 40.3316 59.6245 36.2938 59.6245 31.3251Z" fill="white"/>
<path d="M9.50916 56.1401C9.76051 55.7026 10.1329 55.3395 10.6263 55.0509C11.1289 54.753 11.7108 54.6041 12.3717 54.6041C13.0513 54.6041 13.6657 54.767 14.2149 55.0928C14.7735 55.4186 15.211 55.8794 15.5275 56.4752C15.844 57.0617 16.0023 57.7459 16.0023 58.5279C16.0023 59.3005 15.844 59.9894 15.5275 60.5945C15.211 61.1996 14.7735 61.6697 14.2149 62.0048C13.6657 62.3399 13.0513 62.5075 12.3717 62.5075C11.7201 62.5075 11.1429 62.3632 10.6402 62.0746C10.1468 61.7767 9.76981 61.409 9.50916 60.9715V66.0124H8.23847V54.7298H9.50916V56.1401ZM14.7036 58.5279C14.7036 57.9507 14.5873 57.448 14.3545 57.0198C14.1218 56.5916 13.8053 56.2658 13.405 56.0423C13.014 55.8189 12.5812 55.7072 12.1064 55.7072C11.6409 55.7072 11.2081 55.8236 10.8078 56.0563C10.4168 56.2797 10.1003 56.6102 9.85825 57.0477C9.62552 57.4759 9.50916 57.974 9.50916 58.5418C9.50916 59.119 9.62552 59.6263 9.85825 60.0639C10.1003 60.4921 10.4168 60.8226 10.8078 61.0553C11.2081 61.2787 11.6409 61.3904 12.1064 61.3904C12.5812 61.3904 13.014 61.2787 13.405 61.0553C13.8053 60.8226 14.1218 60.4921 14.3545 60.0639C14.5873 59.6263 14.7036 59.1143 14.7036 58.5279ZM21.0121 62.5075C20.2953 62.5075 19.6437 62.3446 19.0572 62.0188C18.4801 61.693 18.0239 61.2322 17.6888 60.6364C17.363 60.0313 17.2001 59.3331 17.2001 58.5418C17.2001 57.7599 17.3676 57.071 17.7028 56.4752C18.0472 55.8701 18.5127 55.4093 19.0991 55.0928C19.6856 54.767 20.3419 54.6041 21.068 54.6041C21.7941 54.6041 22.4504 54.767 23.0369 55.0928C23.6233 55.4093 24.0841 55.8655 24.4193 56.4613C24.7637 57.057 24.9359 57.7506 24.9359 58.5418C24.9359 59.3331 24.7591 60.0313 24.4053 60.6364C24.0609 61.2322 23.5908 61.693 22.995 62.0188C22.3992 62.3446 21.7383 62.5075 21.0121 62.5075ZM21.0121 61.3904C21.4683 61.3904 21.8965 61.2834 22.2968 61.0693C22.6971 60.8551 23.0183 60.534 23.2603 60.1058C23.5116 59.6775 23.6373 59.1562 23.6373 58.5418C23.6373 57.9274 23.5163 57.4061 23.2743 56.9779C23.0322 56.5497 22.7157 56.2332 22.3247 56.0284C21.9337 55.8143 21.5102 55.7072 21.054 55.7072C20.5886 55.7072 20.1604 55.8143 19.7694 56.0284C19.3877 56.2332 19.0805 56.5497 18.8478 56.9779C18.6151 57.4061 18.4987 57.9274 18.4987 58.5418C18.4987 59.1655 18.6104 59.6915 18.8338 60.1197C19.0665 60.5479 19.3737 60.8691 19.7554 61.0832C20.1371 61.288 20.556 61.3904 21.0121 61.3904ZM36.8001 54.7298L34.4123 62.3818H33.0997L31.2565 56.3077L29.4133 62.3818H28.1008L25.699 54.7298H26.9976L28.7571 61.153L30.6561 54.7298H31.9547L33.8119 61.167L35.5434 54.7298H36.8001ZM45.043 58.2626C45.043 58.5046 45.0291 58.7606 45.0011 59.0306H38.8851C38.9316 59.7846 39.1876 60.3757 39.6531 60.8039C40.1278 61.2229 40.7003 61.4323 41.3706 61.4323C41.9198 61.4323 42.376 61.3066 42.739 61.0553C43.1114 60.7946 43.372 60.4502 43.521 60.022H44.8894C44.6846 60.7574 44.275 61.3578 43.6606 61.8233C43.0462 62.2794 42.2829 62.5075 41.3706 62.5075C40.6445 62.5075 39.9928 62.3446 39.4157 62.0188C38.8478 61.693 38.401 61.2322 38.0752 60.6364C37.7493 60.0313 37.5864 59.3331 37.5864 58.5418C37.5864 57.7506 37.7447 57.057 38.0612 56.4613C38.3777 55.8655 38.8199 55.4093 39.3877 55.0928C39.9649 54.767 40.6259 54.6041 41.3706 54.6041C42.0967 54.6041 42.739 54.7623 43.2976 55.0789C43.8561 55.3954 44.2843 55.8329 44.5822 56.3914C44.8894 56.9407 45.043 57.5644 45.043 58.2626ZM43.7304 57.9973C43.7304 57.5132 43.6234 57.0989 43.4093 56.7545C43.1952 56.4007 42.9019 56.1354 42.5296 55.9586C42.1665 55.7724 41.7616 55.6793 41.3147 55.6793C40.6724 55.6793 40.1232 55.8841 39.667 56.2937C39.2202 56.7033 38.9642 57.2711 38.899 57.9973H43.7304ZM47.991 55.9725C48.2144 55.535 48.5309 55.1952 48.9405 54.9532C49.3594 54.7111 49.8668 54.5901 50.4625 54.5901V55.9027H50.1274C48.7031 55.9027 47.991 56.6754 47.991 58.2207V62.3818H46.7203V54.7298H47.991V55.9725ZM58.9112 58.2626C58.9112 58.5046 58.8972 58.7606 58.8693 59.0306H52.7532C52.7998 59.7846 53.0558 60.3757 53.5212 60.8039C53.996 61.2229 54.5685 61.4323 55.2388 61.4323C55.788 61.4323 56.2441 61.3066 56.6072 61.0553C56.9796 60.7946 57.2402 60.4502 57.3892 60.022H58.7576C58.5528 60.7574 58.1432 61.3578 57.5288 61.8233C56.9144 62.2794 56.151 62.5075 55.2388 62.5075C54.5126 62.5075 53.861 62.3446 53.2838 62.0188C52.716 61.693 52.2692 61.2322 51.9433 60.6364C51.6175 60.0313 51.4546 59.3331 51.4546 58.5418C51.4546 57.7506 51.6129 57.057 51.9294 56.4613C52.2459 55.8655 52.6881 55.4093 53.2559 55.0928C53.8331 54.767 54.494 54.6041 55.2388 54.6041C55.9649 54.6041 56.6072 54.7623 57.1657 55.0789C57.7243 55.3954 58.1525 55.8329 58.4504 56.3914C58.7576 56.9407 58.9112 57.5644 58.9112 58.2626ZM57.5986 57.9973C57.5986 57.5132 57.4916 57.0989 57.2774 56.7545C57.0633 56.4007 56.7701 56.1354 56.3977 55.9586C56.0347 55.7724 55.6297 55.6793 55.1829 55.6793C54.5406 55.6793 53.9913 55.8841 53.5352 56.2937C53.0884 56.7033 52.8324 57.2711 52.7672 57.9973H57.5986ZM60.1137 58.5279C60.1137 57.7459 60.272 57.0617 60.5885 56.4752C60.905 55.8794 61.3378 55.4186 61.8871 55.0928C62.4456 54.767 63.0693 54.6041 63.7582 54.6041C64.354 54.6041 64.9079 54.7437 65.4199 55.023C65.9319 55.293 66.3229 55.6514 66.5928 56.0982V52.0487H67.8775V62.3818H66.5928V60.9436C66.3415 61.3997 65.9691 61.7767 65.4757 62.0746C64.9824 62.3632 64.4052 62.5075 63.7442 62.5075C63.0647 62.5075 62.4456 62.3399 61.8871 62.0048C61.3378 61.6697 60.905 61.1996 60.5885 60.5945C60.272 59.9894 60.1137 59.3005 60.1137 58.5279ZM66.5928 58.5418C66.5928 57.9647 66.4765 57.462 66.2437 57.0338C66.011 56.6055 65.6945 56.2797 65.2942 56.0563C64.9032 55.8236 64.4704 55.7072 63.9956 55.7072C63.5208 55.7072 63.088 55.8189 62.697 56.0423C62.306 56.2658 61.9941 56.5916 61.7614 57.0198C61.5287 57.448 61.4123 57.9507 61.4123 58.5279C61.4123 59.1143 61.5287 59.6263 61.7614 60.0639C61.9941 60.4921 62.306 60.8226 62.697 61.0553C63.088 61.2787 63.5208 61.3904 63.9956 61.3904C64.4704 61.3904 64.9032 61.2787 65.2942 61.0553C65.6945 60.8226 66.011 60.4921 66.2437 60.0639C66.4765 59.6263 66.5928 59.119 66.5928 58.5418ZM75.0182 56.1541C75.2789 55.6979 75.6606 55.3255 76.1633 55.037C76.666 54.7484 77.2385 54.6041 77.8808 54.6041C78.5697 54.6041 79.1887 54.767 79.738 55.0928C80.2872 55.4186 80.7201 55.8794 81.0366 56.4752C81.3531 57.0617 81.5113 57.7459 81.5113 58.5279C81.5113 59.3005 81.3531 59.9894 81.0366 60.5945C80.7201 61.1996 80.2825 61.6697 79.724 62.0048C79.1748 62.3399 78.5604 62.5075 77.8808 62.5075C77.2198 62.5075 76.638 62.3632 76.1353 62.0746C75.642 61.7861 75.2696 61.4183 75.0182 60.9715V62.3818H73.7476V52.0487H75.0182V56.1541ZM80.2127 58.5279C80.2127 57.9507 80.0964 57.448 79.8636 57.0198C79.6309 56.5916 79.3144 56.2658 78.9141 56.0423C78.5231 55.8189 78.0902 55.7072 77.6155 55.7072C77.15 55.7072 76.7172 55.8236 76.3169 56.0563C75.9259 56.2797 75.6094 56.6102 75.3673 57.0477C75.1346 57.4759 75.0182 57.974 75.0182 58.5418C75.0182 59.119 75.1346 59.6263 75.3673 60.0639C75.6094 60.4921 75.9259 60.8226 76.3169 61.0553C76.7172 61.2787 77.15 61.3904 77.6155 61.3904C78.0902 61.3904 78.5231 61.2787 78.9141 61.0553C79.3144 60.8226 79.6309 60.4921 79.8636 60.0639C80.0964 59.6263 80.2127 59.1143 80.2127 58.5279ZM89.7748 54.7298L85.1668 65.9845H83.8542L85.3622 62.2981L82.2763 54.7298H83.6866L86.0884 60.9296L88.4622 54.7298H89.7748ZM101.282 55.4978C101.282 56.3077 101.003 56.9826 100.444 57.5225C99.8948 58.0531 99.0524 58.3184 97.9166 58.3184H96.0455V62.3818H94.7748V52.6492H97.9166C99.0151 52.6492 99.8483 52.9145 100.416 53.4451C100.993 53.9757 101.282 54.6599 101.282 55.4978ZM97.9166 57.2711C98.6241 57.2711 99.1454 57.1175 99.4806 56.8103C99.8157 56.5031 99.9833 56.0656 99.9833 55.4978C99.9833 54.2969 99.2944 53.6965 97.9166 53.6965H96.0455V57.2711H97.9166ZM104.132 55.9725C104.355 55.535 104.672 55.1952 105.081 54.9532C105.5 54.7111 106.008 54.5901 106.603 54.5901V55.9027H106.268C104.844 55.9027 104.132 56.6754 104.132 58.2207V62.3818H102.861V54.7298H104.132V55.9725ZM111.408 62.5075C110.691 62.5075 110.039 62.3446 109.453 62.0188C108.876 61.693 108.419 61.2322 108.084 60.6364C107.758 60.0313 107.596 59.3331 107.596 58.5418C107.596 57.7599 107.763 57.071 108.098 56.4752C108.443 55.8701 108.908 55.4093 109.495 55.0928C110.081 54.767 110.737 54.6041 111.463 54.6041C112.19 54.6041 112.846 54.767 113.432 55.0928C114.019 55.4093 114.48 55.8655 114.815 56.4613C115.159 57.057 115.331 57.7506 115.331 58.5418C115.331 59.3331 115.155 60.0313 114.801 60.6364C114.456 61.2322 113.986 61.693 113.39 62.0188C112.795 62.3446 112.134 62.5075 111.408 62.5075ZM111.408 61.3904C111.864 61.3904 112.292 61.2834 112.692 61.0693C113.093 60.8551 113.414 60.534 113.656 60.1058C113.907 59.6775 114.033 59.1562 114.033 58.5418C114.033 57.9274 113.912 57.4061 113.67 56.9779C113.428 56.5497 113.111 56.2332 112.72 56.0284C112.329 55.8143 111.906 55.7072 111.449 55.7072C110.984 55.7072 110.556 55.8143 110.165 56.0284C109.783 56.2332 109.476 56.5497 109.243 56.9779C109.011 57.4061 108.894 57.9274 108.894 58.5418C108.894 59.1655 109.006 59.6915 109.229 60.1197C109.462 60.5479 109.769 60.8691 110.151 61.0832C110.533 61.288 110.951 61.3904 111.408 61.3904ZM116.527 57.5085C116.527 56.559 116.741 55.7072 117.17 54.9532C117.598 54.1898 118.18 53.5941 118.915 53.1658C119.66 52.7376 120.484 52.5235 121.387 52.5235C122.448 52.5235 123.374 52.7795 124.165 53.2915C124.957 53.8035 125.534 54.5296 125.897 55.4698H124.375C124.105 54.8834 123.714 54.4319 123.202 54.1154C122.699 53.7989 122.094 53.6406 121.387 53.6406C120.707 53.6406 120.097 53.7989 119.557 54.1154C119.018 54.4319 118.594 54.8834 118.287 55.4698C117.98 56.047 117.826 56.7266 117.826 57.5085C117.826 58.2812 117.98 58.9607 118.287 59.5472C118.594 60.1244 119.018 60.5712 119.557 60.8877C120.097 61.2042 120.707 61.3625 121.387 61.3625C122.094 61.3625 122.699 61.2089 123.202 60.9017C123.714 60.5852 124.105 60.1337 124.375 59.5472H125.897C125.534 60.4781 124.957 61.1996 124.165 61.7116C123.374 62.2143 122.448 62.4656 121.387 62.4656C120.484 62.4656 119.66 62.2562 118.915 61.8373C118.18 61.409 117.598 60.8179 117.17 60.0639C116.741 59.3098 116.527 58.4581 116.527 57.5085ZM127.314 58.5279C127.314 57.7459 127.472 57.0617 127.788 56.4752C128.105 55.8794 128.538 55.4186 129.087 55.0928C129.646 54.767 130.265 54.6041 130.944 54.6041C131.615 54.6041 132.196 54.7484 132.69 55.037C133.183 55.3255 133.551 55.6886 133.793 56.1261V54.7298H135.077V62.3818H133.793V60.9575C133.541 61.4044 133.164 61.7767 132.662 62.0746C132.168 62.3632 131.591 62.5075 130.93 62.5075C130.251 62.5075 129.636 62.3399 129.087 62.0048C128.538 61.6697 128.105 61.1996 127.788 60.5945C127.472 59.9894 127.314 59.3005 127.314 58.5279ZM133.793 58.5418C133.793 57.9647 133.676 57.462 133.444 57.0338C133.211 56.6055 132.895 56.2797 132.494 56.0563C132.103 55.8236 131.67 55.7072 131.196 55.7072C130.721 55.7072 130.288 55.8189 129.897 56.0423C129.506 56.2658 129.194 56.5916 128.961 57.0198C128.729 57.448 128.612 57.9507 128.612 58.5279C128.612 59.1143 128.729 59.6263 128.961 60.0639C129.194 60.4921 129.506 60.8226 129.897 61.0553C130.288 61.2787 130.721 61.3904 131.196 61.3904C131.67 61.3904 132.103 61.2787 132.494 61.0553C132.895 60.8226 133.211 60.4921 133.444 60.0639C133.676 59.6263 133.793 59.119 133.793 58.5418ZM138.496 56.1401C138.747 55.7026 139.119 55.3395 139.613 55.0509C140.115 54.753 140.697 54.6041 141.358 54.6041C142.038 54.6041 142.652 54.767 143.201 55.0928C143.76 55.4186 144.197 55.8794 144.514 56.4752C144.83 57.0617 144.989 57.7459 144.989 58.5279C144.989 59.3005 144.83 59.9894 144.514 60.5945C144.197 61.1996 143.76 61.6697 143.201 62.0048C142.652 62.3399 142.038 62.5075 141.358 62.5075C140.706 62.5075 140.129 62.3632 139.627 62.0746C139.133 61.7767 138.756 61.409 138.496 60.9715V66.0124H137.225V54.7298H138.496V56.1401ZM143.69 58.5279C143.69 57.9507 143.574 57.448 143.341 57.0198C143.108 56.5916 142.792 56.2658 142.391 56.0423C142 55.8189 141.568 55.7072 141.093 55.7072C140.627 55.7072 140.194 55.8236 139.794 56.0563C139.403 56.2797 139.087 56.6102 138.845 57.0477C138.612 57.4759 138.496 57.974 138.496 58.5418C138.496 59.119 138.612 59.6263 138.845 60.0639C139.087 60.4921 139.403 60.8226 139.794 61.0553C140.194 61.2787 140.627 61.3904 141.093 61.3904C141.568 61.3904 142 61.2787 142.391 61.0553C142.792 60.8226 143.108 60.4921 143.341 60.0639C143.574 59.6263 143.69 59.1143 143.69 58.5279ZM149.37 62.5075C148.784 62.5075 148.258 62.4098 147.792 62.2143C147.327 62.0095 146.959 61.7302 146.689 61.3765C146.419 61.0134 146.27 60.5991 146.242 60.1337H147.555C147.592 60.5154 147.769 60.8272 148.085 61.0693C148.411 61.3113 148.835 61.4323 149.356 61.4323C149.84 61.4323 150.222 61.3253 150.501 61.1111C150.78 60.897 150.92 60.6271 150.92 60.3013C150.92 59.9661 150.771 59.7194 150.473 59.5612C150.175 59.3936 149.715 59.2307 149.091 59.0725C148.523 58.9235 148.058 58.7746 147.695 58.6256C147.341 58.4674 147.034 58.2393 146.773 57.9414C146.522 57.6342 146.396 57.2339 146.396 56.7405C146.396 56.3495 146.512 55.9911 146.745 55.6653C146.978 55.3395 147.308 55.0835 147.736 54.8973C148.165 54.7018 148.653 54.6041 149.203 54.6041C150.05 54.6041 150.734 54.8182 151.255 55.2464C151.777 55.6746 152.056 56.2611 152.093 57.0058H150.822C150.794 56.6055 150.632 56.2844 150.334 56.0423C150.045 55.8003 149.654 55.6793 149.161 55.6793C148.705 55.6793 148.341 55.777 148.072 55.9725C147.802 56.168 147.667 56.424 147.667 56.7405C147.667 56.9919 147.746 57.2013 147.904 57.3689C148.072 57.5271 148.276 57.6575 148.518 57.7599C148.77 57.853 149.114 57.96 149.552 58.081C150.101 58.23 150.548 58.3789 150.892 58.5279C151.237 58.6675 151.53 58.8816 151.772 59.1702C152.023 59.4588 152.154 59.8358 152.163 60.3013C152.163 60.7202 152.047 61.0972 151.814 61.4323C151.581 61.7674 151.251 62.0327 150.822 62.2282C150.403 62.4144 149.919 62.5075 149.37 62.5075ZM158.95 61.3485H162.357V62.3818H157.679V52.6492H158.95V61.3485ZM163.232 58.5279C163.232 57.7459 163.39 57.0617 163.707 56.4752C164.023 55.8794 164.456 55.4186 165.005 55.0928C165.564 54.767 166.183 54.6041 166.862 54.6041C167.533 54.6041 168.115 54.7484 168.608 55.037C169.101 55.3255 169.469 55.6886 169.711 56.1261V54.7298H170.996V62.3818H169.711V60.9575C169.46 61.4044 169.083 61.7767 168.58 62.0746C168.087 62.3632 167.509 62.5075 166.848 62.5075C166.169 62.5075 165.555 62.3399 165.005 62.0048C164.456 61.6697 164.023 61.1996 163.707 60.5945C163.39 59.9894 163.232 59.3005 163.232 58.5279ZM169.711 58.5418C169.711 57.9647 169.595 57.462 169.362 57.0338C169.129 56.6055 168.813 56.2797 168.412 56.0563C168.021 55.8236 167.589 55.7072 167.114 55.7072C166.639 55.7072 166.206 55.8189 165.815 56.0423C165.424 56.2658 165.112 56.5916 164.88 57.0198C164.647 57.448 164.531 57.9507 164.531 58.5279C164.531 59.1143 164.647 59.6263 164.88 60.0639C165.112 60.4921 165.424 60.8226 165.815 61.0553C166.206 61.2787 166.639 61.3904 167.114 61.3904C167.589 61.3904 168.021 61.2787 168.412 61.0553C168.813 60.8226 169.129 60.4921 169.362 60.0639C169.595 59.6263 169.711 59.119 169.711 58.5418ZM174.414 56.1541C174.674 55.6979 175.056 55.3255 175.559 55.037C176.061 54.7484 176.634 54.6041 177.276 54.6041C177.965 54.6041 178.584 54.767 179.133 55.0928C179.683 55.4186 180.116 55.8794 180.432 56.4752C180.749 57.0617 180.907 57.7459 180.907 58.5279C180.907 59.3005 180.749 59.9894 180.432 60.5945C180.116 61.1996 179.678 61.6697 179.119 62.0048C178.57 62.3399 177.956 62.5075 177.276 62.5075C176.615 62.5075 176.033 62.3632 175.531 62.0746C175.037 61.7861 174.665 61.4183 174.414 60.9715V62.3818H173.143V52.0487H174.414V56.1541ZM179.608 58.5279C179.608 57.9507 179.492 57.448 179.259 57.0198C179.026 56.5916 178.71 56.2658 178.31 56.0423C177.919 55.8189 177.486 55.7072 177.011 55.7072C176.545 55.7072 176.113 55.8236 175.712 56.0563C175.321 56.2797 175.005 56.6102 174.763 57.0477C174.53 57.4759 174.414 57.974 174.414 58.5418C174.414 59.119 174.53 59.6263 174.763 60.0639C175.005 60.4921 175.321 60.8226 175.712 61.0553C176.113 61.2787 176.545 61.3904 177.011 61.3904C177.486 61.3904 177.919 61.2787 178.31 61.0553C178.71 60.8226 179.026 60.4921 179.259 60.0639C179.492 59.6263 179.608 59.1143 179.608 58.5279ZM185.288 62.5075C184.702 62.5075 184.176 62.4098 183.71 62.2143C183.245 62.0095 182.877 61.7302 182.607 61.3765C182.337 61.0134 182.188 60.5991 182.16 60.1337H183.473C183.51 60.5154 183.687 60.8272 184.004 61.0693C184.329 61.3113 184.753 61.4323 185.274 61.4323C185.758 61.4323 186.14 61.3253 186.419 61.1111C186.699 60.897 186.838 60.6271 186.838 60.3013C186.838 59.9661 186.689 59.7194 186.391 59.5612C186.094 59.3936 185.633 59.2307 185.009 59.0725C184.441 58.9235 183.976 58.7746 183.613 58.6256C183.259 58.4674 182.952 58.2393 182.691 57.9414C182.44 57.6342 182.314 57.2339 182.314 56.7405C182.314 56.3495 182.43 55.9911 182.663 55.6653C182.896 55.3395 183.226 55.0835 183.655 54.8973C184.083 54.7018 184.572 54.6041 185.121 54.6041C185.968 54.6041 186.652 54.8182 187.173 55.2464C187.695 55.6746 187.974 56.2611 188.011 57.0058H186.741C186.713 56.6055 186.55 56.2844 186.252 56.0423C185.963 55.8003 185.572 55.6793 185.079 55.6793C184.623 55.6793 184.26 55.777 183.99 55.9725C183.72 56.168 183.585 56.424 183.585 56.7405C183.585 56.9919 183.664 57.2013 183.822 57.3689C183.99 57.5271 184.195 57.6575 184.437 57.7599C184.688 57.853 185.032 57.96 185.47 58.081C186.019 58.23 186.466 58.3789 186.81 58.5279C187.155 58.6675 187.448 58.8816 187.69 59.1702C187.941 59.4588 188.072 59.8358 188.081 60.3013C188.081 60.7202 187.965 61.0972 187.732 61.4323C187.499 61.7674 187.169 62.0327 186.741 62.2282C186.322 62.4144 185.838 62.5075 185.288 62.5075Z" fill="white"/>
</svg>
