<svg width="113" height="41" viewBox="0 0 113 41" fill="none" xmlns="http://www.w3.org/2000/svg">
<path d="M18.0806 24.3326C15.8319 24.3326 14.7483 23.3156 14.7483 21.3146V15.8105C14.7483 13.8896 15.8319 12.7925 18.0806 12.7925C20.3292 12.7925 21.3745 13.8848 21.3745 15.8105V21.3146C21.3697 23.3109 20.3292 24.3326 18.0806 24.3326ZM17.558 38.4905V36.2258C17.558 35.6985 17.1552 35.3218 16.5559 35.3218H14.7483V26.7809C15.9518 27.8356 17.5963 28.4006 19.6484 28.4006C24.2273 28.4006 27.9191 25.6839 27.9191 20.7825V16.2955C27.9191 11.3565 24.1841 8.56445 19.3272 8.56445C16.3977 8.56445 14.1873 9.61912 12.9839 11.5825L10.6969 9.43078C9.7715 8.56445 8.48654 8.48912 7.52762 9.39312L6.36252 10.4854C5.39881 11.3894 5.48031 12.5618 6.44403 13.4658L8.28996 15.1985V35.3171H6.68376C6.07964 35.3171 5.68169 35.6938 5.68169 36.2211V38.4858C5.68169 39.0508 6.08444 39.4274 6.68376 39.4274H16.5607C17.1648 39.4274 17.5628 39.2532 17.5628 38.6882" fill="#009296"/>
<path d="M108.09 28.6076C108.819 28.6076 109.265 28.1885 109.265 27.4258V25.4012C109.265 24.7891 108.819 24.4077 108.172 24.4077H106.311C105.137 24.4077 104.691 23.951 104.691 22.7645V13.3385H108.172C108.781 13.3385 109.265 12.9571 109.265 12.345V10.1698C109.265 9.59538 108.781 9.17634 108.172 9.17634H104.652V5.53211C104.652 4.19494 103.804 3.39453 102.466 3.39453H100.4C99.0235 3.39453 98.1748 4.19494 98.1748 5.53211V9.17634H96.0316C95.3844 9.17634 94.9385 9.59538 94.9385 10.1698V12.345C94.9385 12.9571 95.3844 13.3385 96.0316 13.3385H98.1748V22.8399C98.1748 26.809 99.8338 28.6028 104.854 28.6028L108.09 28.6076Z" fill="#009296"/>
<path d="M82.1413 15.9655C82.1413 13.8797 83.2057 12.858 85.3777 12.858C87.5113 12.858 88.4606 13.6537 88.4606 15.3581V16.0032C88.4606 16.6105 88.8538 16.9872 89.4483 16.9872H93.4374C94.1087 16.9872 94.5018 16.5729 94.5018 15.9655V15.3205C94.5018 10.9982 91.1073 8.72412 85.3393 8.72412C79.3748 8.72412 75.7021 11.6056 75.7021 16.5682V21.0787C75.7021 26.079 79.3748 28.9228 85.3393 28.9228C91.1073 28.9228 94.5018 26.6487 94.5018 22.3264V21.5684C94.5018 20.961 94.1087 20.5467 93.4374 20.5467H89.4483C88.8538 20.5467 88.4606 20.9234 88.4606 21.5307V22.3264C88.4606 23.9932 87.5113 24.7889 85.3777 24.7889C83.2057 24.7889 82.1413 23.7672 82.1413 21.7191V15.9655Z" fill="#009296"/>
<path d="M73.938 24.0781L72.2216 22.4396V15.2029C72.2216 11.2056 68.9468 8.729 63.0399 8.729C57.2911 8.729 54.3376 10.8242 54.3376 14.3272V14.7462C54.3376 15.2783 54.6157 15.5843 55.1767 15.5843H59.487C60.0049 15.5843 60.2446 15.2783 60.2446 14.8592V14.4779C60.2446 13.3714 61.0021 12.7264 63.0399 12.7264C65.0344 12.7264 65.8735 13.3714 65.8735 14.7839V17.5618C64.6748 17.2934 63.2796 17.1051 61.683 17.1051C55.8959 17.1051 53.5801 19.125 53.5801 22.8163V23.273C53.5801 26.8513 56.3753 29.0218 61.4432 29.0218C64.3584 29.0218 66.4728 27.8777 67.6283 26.1639L69.7044 28.1461C70.6633 29.0595 71.9003 29.0972 72.8592 28.1838L74.0147 27.0773C74.9737 26.1686 74.8922 24.9915 73.938 24.0781ZM65.8735 22.5526C65.8735 24.0781 64.5981 25.1045 62.8001 25.1045C60.7241 25.1045 59.8083 24.2664 59.8083 22.8963V22.5149C59.8083 21.1448 60.6473 20.3067 62.92 20.3067C63.9556 20.3067 64.9146 20.4197 65.8735 20.6881V22.5526Z" fill="#009296"/>
<path d="M28.0869 5.0942C28.0869 5.63565 28.5136 5.96524 29.0458 5.96524H30.6856V24.5913H29.0458C28.5136 24.5913 28.0869 24.9162 28.0869 25.4624V27.7082C28.0869 28.2497 28.5136 28.6122 29.0458 28.6122H38.2659C38.8364 28.6122 39.2296 28.2497 39.2296 27.7082V25.4624C39.2296 24.9209 38.8364 24.5913 38.2659 24.5913H36.6645V16.3565H44.427V24.5866H42.7536C42.255 24.5866 41.8283 24.9115 41.8283 25.4577V27.7035C41.8283 28.245 42.255 28.6075 42.7536 28.6075H52.0121C52.5826 28.6075 52.971 28.245 52.971 27.7035V25.4577C52.971 24.9162 52.5778 24.5866 52.0121 24.5866H50.4107V5.96053H52.0121C52.5826 5.96053 52.971 5.63565 52.971 5.08949V2.84833C52.971 2.30688 52.5778 1.94434 52.0121 1.94434H42.7536C42.255 1.94434 41.8283 2.30688 41.8283 2.84833V5.0942C41.8283 5.63565 42.255 5.96524 42.7536 5.96524H44.427V12.265H36.6645V5.96053H38.2659C38.8364 5.96053 39.2296 5.63565 39.2296 5.08949V2.84833C39.2296 2.30688 38.8364 1.94434 38.2659 1.94434H29.0458C28.5136 1.94434 28.0869 2.30688 28.0869 2.84833V5.0942Z" fill="#009296"/>
<path d="M106.412 21.2437H105.851V21.0601H107.164V21.2437H106.603V22.8068H106.416V21.2437H106.412Z" fill="#009296"/>
<path d="M107.51 21.0601H107.702L108.31 22.0111L108.919 21.0601H109.111V22.8068H108.924V21.3943L108.315 22.3313H108.306L107.697 21.3991V22.8116H107.515V21.0601H107.51Z" fill="#009296"/>
</svg>
