<svg width="157" height="57" viewBox="0 0 157 57" fill="none" xmlns="http://www.w3.org/2000/svg">
<path d="M25.1387 33.8283C22.0122 33.8283 20.5056 32.4144 20.5056 29.6325V21.9806C20.5056 19.3099 22.0122 17.7848 25.1387 17.7848C28.2653 17.7848 29.7185 19.3034 29.7185 21.9806V29.6325C29.7119 32.4079 28.2653 33.8283 25.1387 33.8283ZM24.4121 53.5112V50.3628C24.4121 49.6296 23.8521 49.106 23.0188 49.106H20.5056V37.2321C22.1789 38.6983 24.4654 39.4838 27.3186 39.4838C33.685 39.4838 38.8181 35.7069 38.8181 28.8928V22.6548C38.8181 15.7883 33.625 11.9067 26.872 11.9067C22.7988 11.9067 19.7256 13.373 18.0524 16.1025L14.8725 13.1111C13.5859 11.9067 11.7993 11.802 10.466 13.0588L8.84608 14.5774C7.50614 15.8342 7.61947 17.464 8.95941 18.7208L11.526 21.1296V49.0994H9.29273C8.45277 49.0994 7.89946 49.6231 7.89946 50.3562V53.5047C7.89946 54.2902 8.45943 54.8138 9.29273 54.8138H23.0255C23.8654 54.8138 24.4188 54.5716 24.4188 53.7862" fill="white"/>
<path d="M150.287 39.7717C151.3 39.7717 151.92 39.1892 151.92 38.1288V35.3141C151.92 34.4632 151.3 33.933 150.4 33.933H147.814C146.18 33.933 145.56 33.298 145.56 31.6485V18.544H150.4C151.247 18.544 151.92 18.0138 151.92 17.1629V14.1388C151.92 13.3402 151.247 12.7576 150.4 12.7576H145.507V7.69123C145.507 5.83225 144.327 4.71948 142.467 4.71948H139.594C137.681 4.71948 136.501 5.83225 136.501 7.69123V12.7576H133.521C132.621 12.7576 132.001 13.3402 132.001 14.1388V17.1629C132.001 18.0138 132.621 18.544 133.521 18.544H136.501V31.7532C136.501 37.2713 138.807 39.7652 145.787 39.7652L150.287 39.7717Z" fill="white"/>
<path d="M114.208 22.1964C114.208 19.2967 115.688 17.8763 118.708 17.8763C121.675 17.8763 122.995 18.9825 122.995 21.352V22.2488C122.995 23.0932 123.541 23.6169 124.368 23.6169H129.914C130.848 23.6169 131.394 23.0408 131.394 22.1964V21.2997C131.394 15.2907 126.674 12.1292 118.655 12.1292C110.362 12.1292 105.255 16.1351 105.255 23.0343V29.3051C105.255 36.2566 110.362 40.2102 118.655 40.2102C126.674 40.2102 131.394 37.0486 131.394 31.0397V29.9858C131.394 29.1414 130.848 28.5654 129.914 28.5654H124.368C123.541 28.5654 122.995 29.0891 122.995 29.9335V31.0397C122.995 33.3569 121.675 34.4631 118.708 34.4631C115.688 34.4631 114.208 33.0427 114.208 30.1953V22.1964Z" fill="white"/>
<path d="M102.802 33.4747L100.415 31.1968V21.1361C100.415 15.5788 95.8623 12.1357 87.6494 12.1357C79.6564 12.1357 75.5499 15.0486 75.5499 19.9186V20.5012C75.5499 21.2408 75.9365 21.6663 76.7165 21.6663H82.7096C83.4295 21.6663 83.7629 21.2408 83.7629 20.6582V20.128C83.7629 18.5898 84.8161 17.693 87.6494 17.693C90.4226 17.693 91.5892 18.5898 91.5892 20.5535V24.4155C89.9226 24.0424 87.9827 23.7806 85.7628 23.7806C77.7164 23.7806 74.4966 26.5887 74.4966 31.7205V32.3554C74.4966 37.3302 78.3831 40.3477 85.4294 40.3477C89.4826 40.3477 92.4225 38.7571 94.0291 36.3745L96.9156 39.1302C98.2489 40.4001 99.9688 40.4525 101.302 39.1826L102.909 37.6444C104.242 36.381 104.129 34.7446 102.802 33.4747ZM91.5892 31.3539C91.5892 33.4747 89.8159 34.9017 87.316 34.9017C84.4295 34.9017 83.1562 33.7366 83.1562 31.8318V31.3016C83.1562 29.3968 84.3228 28.2316 87.4827 28.2316C88.9226 28.2316 90.2559 28.3887 91.5892 28.7618V31.3539Z" fill="white"/>
<path d="M39.0513 7.08244C39.0513 7.8352 39.6446 8.2934 40.3845 8.2934H42.6644V34.1882H40.3845C39.6446 34.1882 39.0513 34.6399 39.0513 35.3992V38.5215C39.0513 39.2742 39.6446 39.7782 40.3845 39.7782H53.204C53.9973 39.7782 54.5439 39.2742 54.5439 38.5215V35.3992C54.5439 34.6464 53.9973 34.1882 53.204 34.1882H50.9774V22.7398H61.7703V34.1817H59.4437C58.7504 34.1817 58.1571 34.6333 58.1571 35.3926V38.5149C58.1571 39.2677 58.7504 39.7717 59.4437 39.7717H72.3165C73.1098 39.7717 73.6498 39.2677 73.6498 38.5149V35.3926C73.6498 34.6399 73.1032 34.1817 72.3165 34.1817H70.09V8.28685H72.3165C73.1098 8.28685 73.6498 7.8352 73.6498 7.0759V3.96014C73.6498 3.20739 73.1032 2.70337 72.3165 2.70337H59.4437C58.7504 2.70337 58.1571 3.20739 58.1571 3.96014V7.08244C58.1571 7.8352 58.7504 8.2934 59.4437 8.2934H61.7703V17.0516H50.9774V8.28685H53.204C53.9973 8.28685 54.5439 7.8352 54.5439 7.0759V3.96014C54.5439 3.20739 53.9973 2.70337 53.204 2.70337H40.3845C39.6446 2.70337 39.0513 3.20739 39.0513 3.96014V7.08244Z" fill="white"/>
<path d="M147.953 29.5341H147.173V29.2788H149V29.5341H148.22V31.7073H147.96V29.5341H147.953Z" fill="white"/>
<path d="M149.48 29.2788H149.747L150.593 30.601L151.44 29.2788H151.707V31.7073H151.447V29.7436L150.6 31.0461H150.587L149.74 29.7501V31.7138H149.487V29.2788H149.48Z" fill="white"/>
</svg>
