<svg width="120" height="120" viewBox="0 0 120 120" fill="none" xmlns="http://www.w3.org/2000/svg">
<path d="M60 120C26.9179 120 0 93.0821 0 60C0 26.9179 26.9179 0 60 0C93.0821 0 120 26.9179 120 60C119.993 93.0888 93.0821 120 60 120ZM60 1.52086C27.7524 1.52086 1.51413 27.7591 1.51413 60.0067C1.51413 92.2544 27.7524 118.493 60 118.493C92.2476 118.493 118.486 92.2544 118.486 60.0067C118.486 27.7591 92.2476 1.52086 60 1.52086Z" fill="#009296"/>
<path d="M25.9346 23.9713C26.1297 24.4895 26.1499 25.0615 26.0019 25.6806C25.8538 26.2997 25.4971 26.9323 24.9319 27.5783L23.7811 28.8906L26.7892 31.5353L25.4097 33.11L17.5698 26.219L20.1001 23.332C20.6317 22.7264 21.1903 22.3024 21.7757 22.0602C22.3612 21.8179 22.9265 21.7506 23.485 21.8583C24.0368 21.966 24.5483 22.2284 25.0126 22.6322C25.4366 23.0023 25.7394 23.4464 25.9346 23.9713ZM24.158 25.3038C24.1445 24.9202 23.9561 24.5703 23.5994 24.254C22.839 23.581 22.0786 23.6752 21.3316 24.5299L20.2347 25.7748L22.516 27.7735L23.6129 26.5285C23.9897 26.0979 24.1714 25.6874 24.158 25.3038Z" fill="#009296"/>
<path d="M32.4624 24.9606C31.5337 25.0683 30.6387 24.9337 29.7706 24.5569C28.9092 24.18 28.1757 23.5744 27.57 22.7466C26.9711 21.9256 26.6279 21.0441 26.5404 20.1087C26.453 19.1733 26.601 18.2783 26.9913 17.4236C27.3816 16.5757 27.9738 15.8624 28.7679 15.2904C29.5687 14.7116 30.4301 14.3684 31.352 14.2608C32.2807 14.1531 33.169 14.2944 34.0303 14.6713C34.8917 15.0481 35.6185 15.6538 36.2174 16.4748C36.8164 17.3092 37.1663 18.1908 37.2605 19.1262C37.3547 20.0616 37.2067 20.9566 36.8096 21.8045C36.4126 22.6524 35.8271 23.3657 35.033 23.9378C34.2524 24.5098 33.3978 24.853 32.4624 24.9606ZM35.0398 21.1046C35.2618 20.5932 35.3224 20.0481 35.2349 19.4627C35.1407 18.8772 34.8917 18.3052 34.4812 17.7399C34.0707 17.1746 33.6064 16.7574 33.0815 16.495C32.5566 16.2325 32.0182 16.1248 31.4664 16.1787C30.9146 16.2325 30.383 16.4478 29.8783 16.8112C29.3668 17.1814 29.0034 17.6188 28.7746 18.1302C28.5458 18.6417 28.4785 19.1867 28.566 19.7655C28.6535 20.3442 28.9025 20.9229 29.313 21.4815C29.7235 22.0468 30.1878 22.464 30.7194 22.7332C31.2511 23.0024 31.7894 23.11 32.348 23.0562C32.9065 23.0024 33.4382 22.7937 33.9496 22.4236C34.461 22.0602 34.8244 21.6161 35.0398 21.1046Z" fill="#009296"/>
<path d="M42.6911 8.0155L43.364 9.56328L40.8136 10.6669L44.2793 18.6884L42.3614 19.5162L38.8889 11.5014L36.3385 12.605L35.6655 11.0572L42.6911 8.0155Z" fill="#009296"/>
<path d="M53.6534 14.0321L49.5821 14.8464L49.2994 16.9325L47.146 17.3632L48.7678 6.38746L51.1568 5.90967L56.8903 15.4117L54.7234 15.8491L53.6534 14.0321ZM52.7718 12.5046L50.4367 8.52743L49.8176 13.1035L52.7718 12.5046Z" fill="#009296"/>
<path d="M59.4207 15.2428C58.842 14.9871 58.3844 14.6237 58.0546 14.1526C57.7249 13.6816 57.5566 13.123 57.5566 12.4905L59.7976 12.5174C59.8245 12.9481 59.9658 13.2845 60.2417 13.5403C60.5109 13.796 60.8877 13.9238 61.3655 13.9306C61.85 13.9373 62.2404 13.8229 62.523 13.5941C62.8056 13.3653 62.9469 13.0625 62.9537 12.6789C62.9604 12.3693 62.8662 12.1136 62.6778 11.9117C62.4893 11.7098 62.2605 11.5483 61.9779 11.4339C61.6953 11.3195 61.305 11.1849 60.807 11.0369C60.134 10.8283 59.5822 10.6264 59.165 10.4245C58.741 10.2226 58.3844 9.92653 58.0883 9.5295C57.7922 9.13246 57.6441 8.60083 57.6509 7.94807C57.6576 7.32896 57.8191 6.79733 58.1354 6.33972C58.4517 5.88885 58.8891 5.53892 59.4476 5.30338C60.0062 5.06785 60.6455 4.95345 61.3655 4.96018C62.4355 4.97364 63.3036 5.24282 63.9698 5.77445C64.636 6.30608 64.9927 7.03959 65.0533 7.97499L62.7518 7.94807C62.7383 7.59141 62.5903 7.28858 62.3076 7.05305C62.025 6.81752 61.6549 6.69638 61.1838 6.68966C60.7733 6.68293 60.4503 6.78387 60.2013 6.99248C59.9523 7.2011 59.8312 7.49719 59.8245 7.90096C59.8177 8.1836 59.912 8.4124 60.0937 8.60083C60.2753 8.78925 60.5041 8.9373 60.7733 9.05843C61.0425 9.17283 61.4328 9.31415 61.9241 9.46893C62.597 9.67754 63.1488 9.88616 63.5728 10.088C63.9967 10.2899 64.3601 10.5995 64.6697 10.9965C64.9725 11.4003 65.1206 11.9252 65.1138 12.5712C65.1071 13.1298 64.9523 13.6479 64.663 14.119C64.3669 14.5901 63.9362 14.9669 63.3776 15.2428C62.8191 15.5187 62.1529 15.6533 61.3857 15.6399C60.6522 15.6331 59.9994 15.4985 59.4207 15.2428Z" fill="#009296"/>
<path d="M68.0548 15.8348C67.5366 15.4715 67.1597 15.0206 66.9242 14.4957C66.6887 13.9708 66.6348 13.392 66.756 12.7662L68.9498 13.2305C68.8892 13.6545 68.97 14.0179 69.1853 14.3207C69.4007 14.6235 69.7439 14.8187 70.2082 14.9196C70.686 15.0206 71.083 14.9869 71.406 14.8187C71.7291 14.6505 71.9242 14.3746 72.005 14.0044C72.0723 13.7016 72.0319 13.4324 71.8838 13.1969C71.7425 12.9614 71.5406 12.7595 71.2849 12.5912C71.0292 12.423 70.6725 12.2144 70.2149 11.9721C69.5958 11.6357 69.0978 11.3328 68.721 11.0502C68.3509 10.7743 68.0548 10.4109 67.8394 9.96002C67.6241 9.50914 67.5837 8.96405 67.725 8.32475C67.8529 7.7191 68.1153 7.22785 68.5124 6.84427C68.9094 6.46069 69.4074 6.20497 69.9996 6.08384C70.5918 5.96271 71.2445 5.97617 71.9444 6.12422C72.9942 6.34629 73.795 6.7837 74.3468 7.43646C74.8986 8.08922 75.1073 8.87657 74.9794 9.81197L72.7318 9.33417C72.7856 8.97751 72.6981 8.6545 72.4693 8.37186C72.2405 8.08249 71.8973 7.89407 71.4397 7.79312C71.0427 7.70564 70.6995 7.73929 70.4168 7.89407C70.1342 8.04884 69.9525 8.31802 69.8717 8.70833C69.8112 8.98424 69.8583 9.2265 69.9996 9.44858C70.1409 9.66392 70.3361 9.85907 70.5783 10.0273C70.8206 10.1955 71.1705 10.4042 71.6281 10.6532C72.2472 10.9896 72.7519 11.2992 73.1288 11.5818C73.5056 11.8645 73.8017 12.2346 74.0238 12.6855C74.2459 13.1363 74.2863 13.6814 74.1517 14.314C74.0373 14.8591 73.7883 15.3369 73.4047 15.7406C73.0211 16.1511 72.5299 16.4338 71.9242 16.5953C71.3186 16.7568 70.6389 16.7568 69.8919 16.5953C69.1921 16.4607 68.5729 16.205 68.0548 15.8348Z" fill="#009296"/>
<path d="M80.4299 8.80271L76.8229 18.5874L74.8579 17.8606L78.4649 8.07593L80.4299 8.80271Z" fill="#009296"/>
<path d="M85.3559 10.9767L82.1998 16.6092C81.8566 17.2284 81.7489 17.7869 81.8902 18.2916C82.0315 18.7963 82.3882 19.2136 82.9736 19.5433C83.5658 19.873 84.1109 19.9673 84.6156 19.8192C85.1203 19.6712 85.5443 19.2943 85.8942 18.6752L89.0504 13.0494L90.8875 14.079L87.7381 19.6981C87.3074 20.472 86.7691 21.0305 86.1365 21.3804C85.5039 21.7304 84.831 21.8784 84.1177 21.8313C83.4043 21.7842 82.7045 21.5689 82.0181 21.1853C81.3384 20.8084 80.8 20.3239 80.403 19.7452C79.9992 19.1664 79.7906 18.5204 79.7704 17.8071C79.7502 17.0938 79.9521 16.3468 80.3895 15.5729L83.5389 9.9538L85.3559 10.9767Z" fill="#009296"/>
<path d="M102.442 24.2535L95.2011 31.7569L93.6937 30.3033L98.4043 25.4245L91.6816 28.3652L90.5443 27.2683L93.2361 20.4379L88.5255 25.3168L87.0181 23.8632L94.259 16.3599L95.9683 18.0086L92.9737 25.8888L100.746 22.6115L102.442 24.2535Z" fill="#009296"/>
<path d="M13.4654 63.803C14.347 64.1058 15.0872 64.6106 15.6861 65.3104C16.2783 66.0103 16.6754 66.8515 16.8571 67.834C17.0724 68.978 16.9715 70.0345 16.5475 71.0103C16.1236 71.9861 15.4237 72.7398 14.4546 73.2781L14.0038 70.9161C14.4479 70.5863 14.7507 70.1893 14.919 69.7182C15.0805 69.2472 15.1141 68.729 15.0065 68.1705C14.8921 67.5715 14.6498 67.0668 14.2864 66.6563C13.923 66.2458 13.4587 65.9565 12.9001 65.7949C12.3416 65.6334 11.7225 65.6133 11.0361 65.7478C10.3631 65.8757 9.79112 66.118 9.32679 66.4746C8.86245 66.8313 8.53271 67.2687 8.34428 67.7869C8.15586 68.305 8.11548 68.8636 8.22988 69.4625C8.33755 70.0211 8.5529 70.4854 8.88264 70.869C9.21239 71.2458 9.64307 71.5083 10.1814 71.6496L10.6323 74.0116C9.52194 73.8703 8.59328 73.4262 7.8463 72.6792C7.09933 71.9322 6.62154 70.9834 6.39947 69.8259C6.21104 68.8501 6.26488 67.9215 6.56097 67.0534C6.85707 66.1785 7.35505 65.445 8.06165 64.8394C8.76824 64.2337 9.62288 63.8367 10.6323 63.6415C11.635 63.4464 12.5839 63.5002 13.4654 63.803Z" fill="#009296"/>
<path d="M9.86508 79.5694C9.94583 78.634 10.2487 77.7861 10.7937 77.0122C11.3321 76.2383 12.0723 75.6394 13.001 75.2154C13.923 74.7915 14.8583 74.63 15.7937 74.7309C16.7291 74.8318 17.5771 75.1549 18.3308 75.7067C19.0845 76.2585 19.6699 76.9785 20.0737 77.8668C20.4842 78.7619 20.6457 79.6771 20.5717 80.6057C20.4909 81.5344 20.1814 82.3823 19.6363 83.1495C19.0979 83.9166 18.3644 84.5088 17.4357 84.9328C16.5003 85.3567 15.5717 85.525 14.6363 85.4308C13.7009 85.3366 12.853 85.0135 12.0993 84.4617C11.3456 83.9099 10.7601 83.1899 10.3563 82.3016C9.95256 81.4133 9.79105 80.5048 9.86508 79.5694ZM13.1356 82.8601C13.5932 83.1764 14.1181 83.3514 14.7103 83.3715C15.3025 83.3985 15.9149 83.2639 16.5474 82.9745C17.18 82.6851 17.678 82.3083 18.0481 81.844C18.4115 81.3796 18.6201 80.8749 18.674 80.3231C18.7278 79.7713 18.6269 79.2127 18.3644 78.6407C18.102 78.0687 17.7453 77.6246 17.2944 77.3016C16.8368 76.9785 16.3186 76.8036 15.7332 76.7767C15.1477 76.7497 14.5353 76.8776 13.9028 77.167C13.2702 77.4563 12.7655 77.8332 12.3954 78.2975C12.0252 78.7619 11.8166 79.2733 11.7561 79.8318C11.6955 80.3904 11.7964 80.9557 12.0589 81.5209C12.3213 82.0997 12.678 82.5438 13.1356 82.8601Z" fill="#009296"/>
<path d="M20.7602 84.9604C21.6821 84.8258 22.5704 84.9268 23.4251 85.2834C24.273 85.6334 25.0132 86.1986 25.6256 86.986C26.3456 87.9012 26.7427 88.8904 26.8167 89.947C26.8907 91.0035 26.6148 91.9994 26.0024 92.9214L24.5152 91.0304C24.7575 90.5324 24.845 90.0412 24.7709 89.5432C24.6969 89.0519 24.4883 88.5809 24.1384 88.13C23.7615 87.6522 23.3174 87.3157 22.7992 87.1206C22.281 86.9254 21.7427 86.885 21.1707 86.9927C20.5987 87.1071 20.0401 87.3763 19.495 87.807C18.9567 88.2309 18.5596 88.7087 18.3107 89.2404C18.0617 89.772 17.9742 90.3103 18.0415 90.8554C18.1088 91.4005 18.3308 91.912 18.7077 92.3898C19.0576 92.8339 19.4681 93.1502 19.9325 93.3386C20.3968 93.5203 20.9015 93.554 21.4399 93.4328L22.9271 95.3238C21.8705 95.7074 20.8477 95.741 19.8382 95.4247C18.8356 95.1085 17.9675 94.4826 17.2407 93.5607C16.6283 92.7801 16.2447 91.9321 16.1101 91.0237C15.9688 90.1152 16.0765 89.2269 16.4264 88.3655C16.7763 87.5042 17.3551 86.7572 18.1559 86.1179C18.9701 85.4853 19.8315 85.095 20.7602 84.9604Z" fill="#009296"/>
<path d="M24.7908 100.606C24.4341 99.7379 24.3197 98.8429 24.4476 97.9075C24.5754 96.9721 24.959 96.104 25.5916 95.2964C26.2174 94.4956 26.9711 93.9303 27.8527 93.5871C28.7275 93.2439 29.6293 93.1497 30.5579 93.2978C31.4799 93.4458 32.3278 93.8159 33.095 94.4216C33.8689 95.034 34.4341 95.7675 34.7841 96.6289C35.134 97.4902 35.2484 98.3853 35.1205 99.3206C34.9859 100.249 34.6091 101.117 33.9765 101.911C33.344 102.719 32.5835 103.291 31.7154 103.634C30.8473 103.977 29.9388 104.078 29.0169 103.93C28.095 103.782 27.247 103.405 26.4799 102.807C25.7127 102.208 25.1475 101.474 24.7908 100.606ZM29.1986 102.039C29.7504 102.113 30.2955 102.026 30.8339 101.777C31.3722 101.528 31.8567 101.131 32.2874 100.586C32.7181 100.041 32.994 99.4754 33.1017 98.8967C33.2161 98.318 33.169 97.7729 32.9671 97.2614C32.7652 96.7433 32.4153 96.2924 31.924 95.9088C31.4328 95.5185 30.9079 95.2897 30.3561 95.2089C29.8042 95.1282 29.2592 95.2089 28.7275 95.4579C28.1959 95.7002 27.7114 96.0972 27.274 96.6423C26.8365 97.1874 26.5674 97.7527 26.453 98.3381C26.3386 98.9169 26.3789 99.4687 26.5876 99.9936C26.7894 100.518 27.1394 100.969 27.6306 101.36C28.1286 101.737 28.6535 101.965 29.1986 102.039Z" fill="#009296"/>
<path d="M45.3761 101.69L39.2456 106.279L37.6709 109.55L35.7866 108.641L37.3613 105.371L37.1258 97.7126L39.2523 98.7355L39.1985 104.005L43.2765 100.68L45.3761 101.69Z" fill="#009296"/>
<path d="M45.5649 110.734L48.8691 111.683L48.4115 113.278L43.0952 111.75L45.9754 101.73L47.9875 102.309L45.5649 110.734Z" fill="#009296"/>
<path d="M62.3345 107.289C62.099 106.845 61.7759 106.508 61.3587 106.273C60.9415 106.037 60.457 105.916 59.8984 105.909C59.2793 105.903 58.7342 106.031 58.2497 106.307C57.7719 106.582 57.3883 106.973 57.1124 107.484C56.8365 107.996 56.6952 108.595 56.6885 109.274C56.6817 109.974 56.8096 110.58 57.072 111.105C57.3412 111.63 57.7181 112.033 58.1959 112.316C58.6804 112.599 59.2457 112.747 59.8917 112.753C60.6858 112.767 61.3453 112.558 61.8567 112.148C62.3681 111.73 62.7113 111.145 62.8796 110.391L59.2928 110.344L59.313 108.743L64.959 108.817L64.9321 110.64C64.784 111.367 64.4745 112.033 64.0101 112.646C63.5458 113.258 62.9469 113.743 62.2201 114.106C61.4933 114.469 60.679 114.644 59.784 114.638C58.7746 114.624 57.8729 114.389 57.0653 113.924C56.2578 113.46 55.6319 112.821 55.1811 112.006C54.7302 111.192 54.5081 110.277 54.5216 109.247C54.535 108.224 54.7773 107.309 55.2551 106.502C55.7262 105.694 56.3722 105.075 57.1932 104.631C58.0142 104.187 58.9159 103.971 59.9119 103.985C61.0895 103.998 62.1057 104.301 62.9603 104.887C63.8217 105.472 64.4072 106.28 64.7235 107.323L62.3345 107.289Z" fill="#009296"/>
<path d="M69.3738 112.194L72.7587 111.622L73.0346 113.258L67.5838 114.18L65.8408 103.897L67.9 103.547L69.3738 112.194Z" fill="#009296"/>
<path d="M79.8047 100.108L78.728 107.692L79.9326 111.118L77.9608 111.811L76.7563 108.386L71.1641 103.143L73.3915 102.363L77.086 106.118L77.6109 100.882L79.8047 100.108Z" fill="#009296"/>
<path d="M81.608 101.932C81.5744 100.996 81.783 100.128 82.2271 99.3207C82.6713 98.5131 83.3173 97.8469 84.1652 97.322C85.1544 96.7096 86.184 96.427 87.2406 96.4741C88.3038 96.5212 89.2594 96.9048 90.1073 97.6181L88.0616 98.8832C87.5972 98.5871 87.1127 98.4458 86.6147 98.4593C86.1167 98.4728 85.6255 98.6343 85.141 98.9304C84.6228 99.2466 84.2392 99.6571 83.9835 100.142C83.7278 100.633 83.6268 101.165 83.6739 101.743C83.7211 102.322 83.9297 102.907 84.2931 103.5C84.6565 104.085 85.0871 104.529 85.5851 104.839C86.0831 105.142 86.608 105.296 87.1598 105.29C87.7116 105.283 88.2433 105.121 88.7614 104.798C89.246 104.502 89.6026 104.126 89.8382 103.688C90.0737 103.244 90.1612 102.746 90.1006 102.201L92.1464 100.936C92.4088 102.026 92.3281 103.049 91.8974 104.011C91.4667 104.973 90.7534 105.761 89.7507 106.38C88.9028 106.905 88.0212 107.181 87.0992 107.221C86.1773 107.255 85.3092 107.053 84.4949 106.609C83.6807 106.165 83.001 105.505 82.4559 104.637C81.9243 103.769 81.6416 102.86 81.608 101.932Z" fill="#009296"/>
<path d="M90.7533 92.5309L97.577 100.418L95.9956 101.784L89.1719 93.897L90.7533 92.5309Z" fill="#009296"/>
<path d="M105.693 91.6157L104.34 93.2105L95.8207 92.1944L101.278 96.8175L99.9257 98.4124L91.958 91.6628L93.3106 90.0679L101.844 91.0908L96.3725 86.4541L97.7252 84.8593L105.693 91.6157Z" fill="#009296"/>
<path d="M108.849 82.08L106.931 85.761L108.378 87.2886L107.362 89.2334L99.8315 81.084L100.955 78.9238L111.951 80.4245L110.928 82.3828L108.849 82.08ZM107.106 81.8108L102.537 81.1311L105.706 84.4824L107.106 81.8108Z" fill="#009296"/>
<path d="M104.758 68.1094L106.379 68.5737L105.612 71.2453L114.011 73.6612L113.432 75.6733L105.033 73.2574L104.266 75.929L102.645 75.4647L104.758 68.1094Z" fill="#009296"/>
<path d="M106.756 65.3572L109.354 65.6399L109.737 62.1473L111.386 62.329L111.003 65.8216L113.748 66.1244L114.179 62.1876L115.875 62.3761L115.215 68.3922L104.838 67.2482L105.498 61.2321L107.194 61.4205L106.756 65.3572Z" fill="#009296"/>
<path d="M89.0041 73.9769C88.8696 73.7549 88.7282 73.5328 88.5869 73.3107C87.8669 72.1667 87.1401 71.0227 86.4335 69.8652C85.8346 68.8827 85.2626 67.8868 84.6906 66.8908C84.3474 66.2852 83.8696 65.8006 83.2774 65.4171C82.3016 64.7845 81.171 64.5624 79.9732 64.5422C78.8292 64.522 77.6919 64.6835 76.5681 64.9864C76.346 65.0469 76.1172 65.0873 75.8884 65.1411C75.7605 65.0402 75.6529 64.946 75.5116 64.8316C75.6192 64.771 75.7 64.7105 75.7807 64.6768C76.1912 64.5086 76.6017 64.3471 77.0122 64.1721C77.8803 63.8087 78.7955 63.6001 79.7107 63.4184C80.6394 63.2367 81.5748 63.1358 82.5102 63.1425C83.0284 63.1492 83.4591 62.7993 83.5331 62.3282C83.5869 61.9783 83.4389 61.7024 83.1832 61.4803C83.0149 61.339 82.8332 61.2111 82.6448 61.0967C81.3325 60.3228 79.8655 59.9998 78.2908 60.0066C76.3729 60.0066 74.5425 60.4709 72.7525 61.1909C72.1805 61.4197 71.6354 61.6957 71.0701 61.9581C70.8144 61.8033 70.5856 61.6553 70.2962 61.4803C70.599 61.339 70.8278 61.2246 71.0634 61.1304C72.2276 60.6459 73.3783 60.1344 74.556 59.7037C75.5856 59.3269 76.6421 59.0442 77.7121 58.8087C79.3339 58.4453 80.9692 58.2367 82.6112 58.2367C82.8063 58.2367 83.412 58.23 83.56 58.23C84.0647 58.2434 84.5627 58.3175 84.8857 57.9877C85.2895 57.5772 85.2895 57.0658 84.8655 56.7226C84.704 56.5947 84.529 56.4803 84.3474 56.3726C83.4792 55.8679 82.5304 55.5516 81.5344 55.3363C79.1724 54.8114 76.7632 54.9056 74.3406 55.2892C72.9005 55.518 71.4873 55.8679 70.0809 56.2986C69.0243 56.6284 66.9045 57.483 65.3568 58.4588C65.3029 58.4924 64.6098 58.2031 64.5089 58.1559C64.5963 58.0954 64.6771 58.0348 64.7578 57.9877C65.1482 57.7522 65.5385 57.5167 65.9288 57.2811C67.3151 56.4534 68.7282 55.6728 70.2222 55.0469C70.4577 54.946 70.7 54.8383 70.9422 54.7508C71.9718 54.374 73.0351 54.1115 74.1051 53.8962C76.0836 53.4924 78.0755 53.129 80.0607 52.7589C80.599 52.658 81.1509 52.5907 81.6892 52.483C82.2343 52.3753 82.5573 51.9581 82.5237 51.4669C82.5035 51.1708 82.342 50.9621 82.0863 50.8074C80.6125 49.9056 79.0176 49.2529 77.2949 48.8558C75.9019 48.5328 74.4752 48.4251 73.0149 48.5866C71.6354 48.7347 70.3366 49.199 69.0782 49.771C67.5102 50.4776 66.0365 51.3457 64.6098 52.2811C63.1562 53.23 61.7565 54.2461 60.4173 55.3363C60.1885 55.518 59.953 55.693 59.7107 55.8814C59.2666 55.6795 58.8359 55.4844 58.3918 55.2825C58.4456 55.1883 58.4793 55.1277 58.5196 55.0671C59.3945 53.6943 60.5856 52.6041 61.9247 51.6418C62.2814 51.3861 63.412 50.6459 63.6542 50.518C64.5694 50.0335 65.4779 49.5355 66.4133 49.0981C67.2949 48.6876 68.2033 48.3309 69.1185 47.9944C70.2424 47.5839 71.3662 47.1802 72.5102 46.8437C73.7686 46.4736 75.0539 46.1977 76.3326 45.8747C76.4604 45.841 76.595 45.8006 76.7161 45.7401C77.1737 45.5315 77.3823 45.0604 77.2343 44.6297C77.1266 44.3067 76.8709 44.1385 76.5546 44.0375C76.0836 43.8827 75.6058 43.7414 75.1212 43.6136C73.7417 43.2636 72.315 43.0954 70.8682 43.0819C69.3743 43.0617 67.8803 43.2031 66.3998 43.5328C65.2356 43.7885 64.0916 44.1183 62.988 44.5893C61.7027 45.1344 60.4577 45.7401 59.2868 46.5072C58.385 47.0927 57.5371 47.732 56.7363 48.4319C56.4537 48.6809 55.9019 49.3403 55.8615 49.2865C54.7377 50.4372 53.8561 51.7293 53.2303 53.1694C52.9274 53.0617 52.6583 52.9675 52.3554 52.8599C52.416 52.3821 52.4496 51.9245 52.5371 51.4669C52.8198 50.0873 53.4725 48.8558 54.4146 47.7387C55.5452 46.3996 56.9449 45.3699 58.4994 44.5355C59.4416 44.0308 60.4106 43.5732 61.3797 43.1156C61.9718 42.8397 62.5708 42.5907 63.1764 42.3484C64.4618 41.837 65.774 41.4197 67.0997 41.0496C68.4523 40.6728 69.8117 40.343 71.1912 40.1344C71.4941 40.0873 71.7969 40.0402 72.0997 39.9998C72.7323 39.9056 73.2303 39.273 72.8803 38.6405C72.7457 38.4049 72.5439 38.2771 72.3016 38.1829C70.9557 37.6445 69.529 37.3417 68.0688 37.16C66.1239 36.9177 64.1589 36.9783 62.1872 37.3148C60.451 37.6109 58.7686 38.1156 57.1468 38.8154C56.0903 39.2663 55.0809 39.7979 54.0984 40.3969C52.6784 41.2582 51.3931 42.2677 50.2693 43.4655C48.3379 45.5382 47.1199 47.8935 46.7161 50.5786C46.6959 50.7266 46.6623 50.8679 46.6286 51.0429C46.1307 50.9083 45.6663 50.7872 45.2087 50.666C45.1616 50.5516 45.1212 50.4709 45.1011 50.3834C44.8723 49.4749 44.7511 48.5463 44.8184 47.5907C44.9934 45.269 46.0297 43.2838 47.7794 41.5813C48.5398 40.841 49.3877 40.195 50.2558 39.5691C51.3797 38.7616 52.5842 38.0954 53.809 37.4695C54.7242 37.0052 55.6798 36.6418 56.6421 36.2919C58.1091 35.7603 59.5963 35.3565 61.1307 35.121C61.2181 35.1075 61.2989 35.0873 61.3797 35.0604C61.7969 34.9258 62.0728 34.549 62.0661 34.1452C62.0593 33.7347 61.7834 33.3982 61.3662 33.3175C61.2047 33.2838 61.0297 33.2704 60.8615 33.2636C59.3137 33.1963 57.7592 33.2434 56.2047 33.3915C53.9772 33.6068 51.7767 34.0308 49.63 34.7643C47.8265 35.3834 46.1172 36.1842 44.5492 37.2811C42.7861 38.5193 41.3124 40.0066 40.1885 41.7899C39.5089 42.8666 39.0311 44.0106 38.8023 45.2286C38.5667 46.4938 38.6138 47.7387 38.9234 48.9568C38.957 49.0846 38.9907 49.2057 39.0378 49.3874C38.2504 49.2798 37.5304 49.1856 36.8171 49.0846C35.0876 48.9097 33.2168 48.7953 30.6058 48.7549C29.1858 48.7347 27.7592 48.8424 26.3393 48.9971C24.5425 49.1923 22.7525 49.4884 20.9893 49.9527C20.1212 50.1815 19.2599 50.4305 18.4052 50.693C17.7659 50.8881 17.4631 51.5678 17.7996 52.0658C18.0486 52.4359 18.4187 52.557 18.9705 52.3955C19.7377 52.1734 20.4981 51.9312 21.272 51.736C21.9584 51.5611 22.6583 51.4265 23.3581 51.2784C24.7175 50.9891 26.0836 50.8276 27.4564 50.7132C28.8292 50.5988 30.202 50.5853 31.5748 50.5718C34.879 50.5449 39.5089 51.3323 40.0068 51.4197C39.2868 52.2071 38.6946 52.9944 38.1899 53.8356C37.6784 54.6835 37.2006 55.5516 36.8709 56.5476C36.2922 57.7387 35.8211 60.0133 35.7807 60.4372C35.774 60.4776 35.7673 60.518 35.7605 60.5584C35.4846 62.3821 35.4375 64.1923 35.5721 66.0093C35.7134 67.8868 36.0365 69.7306 36.521 71.5341C36.8036 72.5907 37.1401 73.627 37.49 74.6634C37.7525 75.4372 38.0688 76.1977 38.3716 76.9581C38.4994 77.2811 38.7821 77.4494 39.1522 77.4494C39.5358 77.4561 39.8386 77.3013 40.0539 76.9783C40.2558 76.6755 40.2087 76.3794 40.1347 76.0765C39.6906 74.2798 39.4887 72.4426 39.3743 70.5853C39.2599 68.6809 39.3204 66.7697 39.5829 64.8518C39.8521 62.8733 40.35 60.9352 41.1912 59.0712C42.0863 57.086 43.3379 55.3161 45.0472 53.8424C45.4443 53.4992 45.8682 53.1896 46.2585 52.8733C46.5075 52.9473 46.7094 53.0079 46.9046 53.0685C46.8978 53.1223 46.9046 53.1492 46.8911 53.1627C46.8305 53.2636 46.7632 53.3646 46.6959 53.4655C46.1912 54.2058 45.7673 54.9796 45.4173 55.7872C44.4954 57.9271 44.0849 60.1411 43.9772 62.3955C43.8965 64.0712 43.9974 65.7266 44.2262 67.3753C44.4348 68.8962 44.7377 70.3901 45.1482 71.8639C45.4241 72.8733 45.7336 73.876 46.0566 74.8652C46.2989 75.6122 46.595 76.339 46.8642 77.0792C46.9113 77.2071 46.9382 77.3484 47.167 77.2878C47.019 77.4561 47.0526 77.5974 47.1132 77.7387C47.2208 77.981 47.3218 78.2165 47.4227 78.4588C47.7121 79.1048 48.0015 79.7441 48.2908 80.3901C48.4591 80.7603 48.9503 80.8814 49.2599 80.8074C49.6636 80.7132 50.0136 80.4036 50.0607 80.0537C50.1145 79.6701 50.0001 79.3134 49.9597 78.95C49.8655 78.9635 49.8117 78.9702 49.7915 78.9702C49.8251 78.7481 49.9194 78.5261 49.8723 78.3511C49.805 78.1088 49.8319 77.8599 49.805 77.6176C49.7377 77.0389 49.6704 76.4669 49.6367 75.8814C49.5291 74.0846 49.4012 72.2878 49.3608 70.4843C49.3272 69.199 49.4012 67.907 49.4618 66.6149C49.5762 64.2663 49.8857 61.9379 50.5654 59.6364C50.8951 58.5193 51.3258 57.4292 51.9449 56.4063C52.2208 55.9487 52.5102 55.4911 52.9207 55.1008C53.0015 55.1344 53.0755 55.1681 53.1495 55.2017C53.1159 55.3296 53.0822 55.444 53.0486 55.5516C52.665 56.7697 52.4631 58.0079 52.3823 59.2529C52.2747 60.8612 52.3958 62.4494 52.6448 64.0173C52.8938 65.5786 53.2639 67.1062 53.7552 68.5934C54.1791 69.8989 54.6569 71.1909 55.2087 72.4561C55.8278 73.876 56.4806 75.2757 57.2276 76.6284C57.7996 77.6714 58.3783 78.7212 59.058 79.7037C59.3204 80.0873 59.8184 80.195 60.2626 79.9796C60.6932 79.771 60.9153 79.2865 60.774 78.8491C60.4039 77.6916 60.0068 76.5409 59.6636 75.3699C59.3137 74.1721 58.9907 72.9608 58.7081 71.7428C58.4793 70.7468 58.3043 69.7306 58.1428 68.7145C57.8669 66.9648 57.7323 65.195 57.7928 63.4049C57.8467 61.9446 58.0216 60.4978 58.4725 59.0779C58.6206 58.6068 58.809 58.1492 59.058 57.6782C59.3541 57.8127 59.6233 57.9339 59.9597 58.0819C59.8723 58.2367 59.778 58.3713 59.7242 58.5126C59.2128 59.946 59.1118 61.4063 59.1724 62.8733C59.2195 64.0106 59.4012 65.1277 59.6367 66.2313C59.9463 67.6983 60.4039 69.1115 60.9288 70.5045C61.42 71.8168 61.9517 73.1088 62.5977 74.3471C63.1428 75.3969 63.6946 76.4399 64.2464 77.483C64.4146 77.7926 64.5829 78.1088 64.7915 78.3848C65.0741 78.7616 65.5788 78.8289 66.0163 78.5799C66.4268 78.3511 66.595 77.8935 66.4739 77.4561C66.1239 76.1977 65.7538 74.9393 65.4577 73.6674C65.202 72.5705 65.0405 71.4467 64.8319 70.343C64.7713 70.0335 64.4819 66.1237 64.4887 65.915C64.4954 64.771 64.5896 63.6337 64.879 62.5032C64.9866 62.0927 65.0943 61.6755 65.3366 61.2515C65.3231 61.1977 65.5721 61.3457 65.5587 61.3794C65.027 63.0146 66.1239 67.9877 67.3756 70.3363C67.4766 70.5045 67.5035 70.5786 67.5775 70.693C68.0418 71.4063 68.4793 72.1398 68.984 72.8329C70.1347 74.3942 71.4268 75.841 72.8669 77.1734C73.237 77.5167 73.7148 77.5503 74.1185 77.2744C74.5223 76.9918 74.6502 76.4938 74.4416 76.0631C73.9974 75.1411 73.412 74.0913 72.914 73.2031C72.2276 71.9783 71.6085 70.3363 71.6085 70.3296C70.6596 67.7656 70.4644 65.9016 70.5183 63.8827C70.6663 63.9769 70.9422 64.3134 71.0297 64.3673C71.0095 65.2017 71.0634 67.9675 72.0862 70.269C72.0997 70.3094 72.2141 70.5113 72.2545 70.5786C72.7928 71.4534 73.4321 72.2609 74.2128 72.9406C74.704 73.3713 75.2356 73.7683 75.7942 74.1183C76.3393 74.4615 77.0593 74.1452 77.2612 73.5261C77.342 73.2838 77.2679 73.0752 77.1737 72.8599C76.7363 71.8841 76.3662 70.8814 76.1037 69.8383C75.9153 69.0846 75.7807 68.3242 75.774 67.5368C75.774 67.4561 75.7942 67.3686 75.8077 67.2677C75.8884 67.3013 75.9288 67.3148 75.9692 67.335C77.3958 68.0146 78.7215 68.8289 79.8857 69.8518C80.4644 70.3632 81.0028 70.9083 81.4133 71.5543C81.8171 72.1936 82.3016 72.7724 82.8803 73.2636C83.6744 73.9366 84.5762 74.4749 85.5923 74.8316C86.3393 75.1008 87.1132 75.2892 87.9274 75.3632C88.3379 75.4036 88.7081 75.2892 88.9638 74.946C89.2195 74.6297 89.1926 74.3 89.0041 73.9769ZM42.2612 54.0375C41.3191 55.0604 40.5519 56.1977 39.9126 57.409C39.7848 57.658 38.6946 59.8181 38.5196 60.8612C37.9813 62.4359 37.7255 64.0442 37.4967 65.6593C37.3285 64.2327 37.5573 61.0025 37.5775 61.0025C37.6044 60.8814 38.4321 57.8935 38.6744 56.9985C38.7417 56.8235 38.7955 56.6755 38.8292 56.5611C39.63 54.8047 40.6461 53.1963 42.1401 51.8504C42.7659 52.0052 43.385 52.1062 43.9705 52.3013C43.385 52.8935 42.7996 53.452 42.2612 54.0375ZM42.8669 47.5167C42.8063 48.3107 42.8467 49.1048 42.9745 49.8854C42.988 49.9527 42.9947 50.02 43.0082 50.1411C42.4227 50.02 41.8844 49.9123 41.3325 49.7979C41.0566 49.4211 40.9288 48.9702 40.8009 48.5193C40.2424 46.5409 40.6125 44.6297 41.7161 42.7926C42.5304 41.4265 43.6206 40.2757 44.879 39.2596C46.3864 38.0483 48.0889 37.1802 49.9194 36.5476C50.9422 36.1909 51.9853 35.9083 53.0418 35.6795C53.1293 35.6593 53.2235 35.6593 53.3312 35.7064C53.1764 35.7737 53.0216 35.841 52.8669 35.9218C51.346 36.6822 49.8857 37.5368 48.5264 38.5664C47.7457 39.1586 46.9718 39.7643 46.2854 40.4507C44.2801 42.4695 43.0755 44.8047 42.8669 47.5167ZM50.6663 54.9864C50.027 55.8612 49.5762 56.8168 49.1926 57.7993C48.6542 59.1923 48.3043 60.6189 48.0418 62.0725C47.7188 63.8491 47.5573 65.6324 47.4698 67.4224C47.3891 69.1183 47.4025 70.8074 47.4631 72.4965C47.4631 72.5839 47.4631 72.6782 47.4631 72.7656C47.4429 72.7724 47.416 72.7791 47.3958 72.7791C47.3285 72.5638 47.2545 72.3484 47.1939 72.1331C46.7363 70.4574 46.3326 68.7616 46.1038 67.0254C45.9826 66.1102 45.9153 65.1815 45.8682 64.2529C45.8009 62.8531 45.8817 61.4467 46.1172 60.0469C46.42 58.2165 46.9786 56.4534 47.988 54.8181C48.2303 54.4211 48.5196 54.051 48.7619 53.7145C49.556 53.95 50.2895 54.1654 51.0566 54.3874C50.9153 54.6162 50.8009 54.8047 50.6663 54.9864ZM50.451 52.2206C49.7848 51.985 49.1657 51.7629 48.4994 51.5207C48.5196 51.2986 48.5465 51.016 48.5869 50.7333C48.8696 48.728 49.7242 46.9177 51.0499 45.2825C52.0391 44.0577 53.2505 43.0483 54.5829 42.1734C55.8346 41.3524 57.1737 40.693 58.5667 40.1546C61.2316 39.1317 63.9638 38.701 66.7632 38.8827C67.0391 38.9029 67.3151 38.9298 67.591 38.9568C67.6111 38.9568 67.6246 38.9837 67.665 39.0173C67.5775 39.0442 67.5035 39.0779 67.4295 39.0981C65.4846 39.5961 63.5802 40.2286 61.7229 40.9891C59.8184 41.7697 57.9611 42.6714 56.2249 43.7818C54.8588 44.6566 53.6542 45.6997 52.6583 46.9581C52.5708 47.0725 52.1266 47.8195 52.0795 47.7791C51.1576 49.1452 50.6327 50.6189 50.451 52.2206ZM57.2545 57.1263C56.3595 58.9635 56.0297 60.8948 55.9019 62.8531C55.8077 64.3067 55.8615 65.7535 56.0028 67.1869C56.0836 68.0146 56.2249 68.8356 56.3326 69.6634C56.346 69.771 56.3527 69.8854 56.3124 70.0066C56.272 69.9191 56.2249 69.8249 56.1912 69.7374C55.7673 68.5395 55.3635 67.335 55.0539 66.0967C54.7377 64.8585 54.4954 63.6068 54.3675 62.335C54.233 61.0227 54.206 59.7037 54.3877 58.378C54.4887 57.6714 54.6636 56.9648 54.8117 56.2582C54.8319 56.1438 54.8857 56.0362 54.9395 55.8814C55.7673 56.2313 56.5412 56.5611 57.342 56.9043C57.3083 56.9783 57.2881 57.0523 57.2545 57.1263ZM56.6623 54.5355C56.0836 54.3538 55.5587 54.0779 54.9732 53.876C55.0001 53.7751 55.0136 53.6876 55.0539 53.6068C55.5587 52.4628 56.2854 51.4534 57.1603 50.5247C57.7256 49.9258 58.3379 49.3673 59.0109 48.8827C59.7377 48.3646 60.4914 47.8666 61.2585 47.409C61.8574 47.0523 62.4967 46.7495 63.1428 46.4669C64.7511 45.7468 66.4335 45.2892 68.163 45.0604C69.4348 44.8922 70.7134 44.8787 71.9786 44.9864C72.0257 44.9931 72.0728 44.9998 72.1199 45.0133C72.1401 45.02 72.1468 45.0469 72.167 45.0806C71.6758 45.2354 71.1778 45.3767 70.6932 45.5516C69.5425 45.9621 68.3918 46.3592 67.2612 46.8033C65.4577 47.5099 63.7215 48.3646 62.0728 49.3807C61.6354 49.6499 61.2114 49.9527 60.7875 50.2488C60.6529 50.343 60.1347 50.7333 60.0136 50.8276C58.6879 51.8773 57.5371 53.0685 56.6623 54.5355ZM63.7417 60.2421C63.1226 61.4467 62.8399 62.7185 62.6919 64.0173C62.4833 65.8477 62.5708 67.6512 62.7659 69.4547C62.7794 69.5691 62.7861 69.6768 62.7996 69.7912C62.7794 69.7979 62.7525 69.8047 62.7323 69.8047C62.5371 69.2259 62.3352 68.6472 62.1401 68.0617C61.7834 66.9783 61.5075 65.8747 61.3258 64.7508C61.0499 63.0617 60.9422 61.3659 61.3595 59.6432C61.42 59.4076 61.5008 59.1788 61.5883 58.8895C62.3554 59.2798 63.0822 59.6499 63.8225 60.0335C63.7888 60.1142 63.7686 60.1815 63.7417 60.2421ZM62.564 57.2609C62.2276 57.0994 61.8978 56.9379 61.521 56.7495C61.9718 56.3996 62.3756 56.0564 62.7996 55.7535C64.0311 54.8854 65.2558 53.9904 66.5277 53.1829C67.9813 52.2609 69.5021 51.4467 71.1374 50.8679C72.739 50.2959 74.3474 50.2152 75.9557 50.4911C76.6623 50.6122 77.342 50.8276 78.0351 51.0093C78.1697 51.0429 78.2976 51.1035 78.4321 51.1506C78.4254 51.1708 78.4254 51.1909 78.4187 51.2111C78.0822 51.2784 77.7525 51.3457 77.416 51.4063C75.5385 51.7428 73.6609 52.1196 71.8103 52.6176C70.5856 52.9473 69.4146 53.4184 68.2706 53.9837C66.992 54.623 65.7404 55.3027 64.5156 56.0429C63.8628 56.4467 63.2235 56.8504 62.564 57.2609ZM66.7834 59.4749C67.2208 59.125 70.5721 57.9743 72.3151 57.557C74.2195 57.1062 76.1307 56.7966 78.0755 56.8572C74.7107 57.5705 71.5412 58.8087 68.486 60.4372C67.9072 60.1075 67.3487 59.7912 66.7834 59.4749ZM70.0405 70.9958C69.4214 70.2757 69.1051 69.7508 68.6475 68.6674C68.6475 68.6741 68.6475 68.6741 68.6408 68.6808C67.914 66.9648 67.0661 63.4251 67.2478 61.9177C67.7323 62.2004 68.1562 62.4494 68.5802 62.6983C68.5129 65.6055 68.8494 67.7118 70.1078 70.9689C70.0876 70.9756 70.0674 70.9891 70.0405 70.9958ZM74.2128 69.7037C73.3312 68.3982 73.0889 67.0389 73.062 65.4305C73.3177 65.6189 73.1899 65.5651 73.5398 65.7939C73.735 65.9218 73.8965 65.9554 74.1118 66.1035C73.9234 67.308 74.0243 68.5059 74.2128 69.7037ZM73.7821 63.6876C73.4994 63.5059 73.2235 63.3242 72.9342 63.1358C73.8426 62.5234 77.1266 61.662 78.2774 61.9043C76.6623 62.2946 75.2155 62.9541 73.7821 63.6876ZM83.163 70.6526C82.4295 69.5422 81.5008 68.6001 80.4106 67.806C79.8251 67.3821 79.206 66.9918 78.6004 66.5813C78.5667 66.5611 78.5331 66.5274 78.4591 66.4669C79.1387 66.3659 79.7646 66.3457 80.3837 66.4063C80.9153 66.4601 81.42 66.5745 81.8911 66.8101C82.3958 67.0658 82.7659 67.4359 83.0418 67.9137C83.7013 69.0644 84.3743 70.2152 85.0472 71.3592C85.3097 71.8101 85.599 72.2475 85.8749 72.6916C85.9221 72.7656 85.9624 72.8464 86.0028 72.9204C84.7713 72.4426 83.8426 71.6822 83.163 70.6526Z" fill="#009296"/>
</svg>
