<svg width="169" height="62" viewBox="0 0 169 62" fill="none" xmlns="http://www.w3.org/2000/svg">
<path d="M130.747 27.0811H125.584V31.3217H130.747C131.311 31.3217 131.784 31.1489 132.095 30.8032C132.429 30.4344 132.671 29.6162 132.671 29.0746C132.671 28.533 132.464 27.9914 132.129 27.6227C131.749 27.2193 131.254 27.0811 130.747 27.0811Z" fill="white"/>
<path d="M109.728 28.958L107.469 34.9272H112.136L109.878 28.958H109.728Z" fill="white"/>
<path d="M49.7473 27.0811H44.5156V31.3217H49.7473C50.8305 31.3217 51.6948 30.3307 51.6948 29.0516C51.6948 28.533 51.5104 28.026 51.1993 27.6572C50.7729 27.1617 50.2313 27.0811 49.7473 27.0811Z" fill="white"/>
<path d="M29.7196 25.2607H23.7734V30.2044H29.7196C30.3765 30.2044 30.918 30.0085 31.2753 29.6051C31.6671 29.1672 31.9321 28.2454 31.9321 27.6C31.9321 26.9662 31.6901 26.3324 31.3098 25.8945C30.8835 25.4221 30.3188 25.2607 29.7196 25.2607Z" fill="white"/>
<path d="M67.9544 26.6426C65.1426 26.6426 62.9531 29.2123 62.9531 32.3007C62.9531 35.4466 65.1311 38.074 67.9544 38.074C70.8007 38.074 73.0363 35.4466 73.0363 32.3007C73.0363 29.2239 70.7892 26.6426 67.9544 26.6426Z" fill="white"/>
<path d="M140.634 0H139.044H81.1491V13.7131H79.2593V2.95004H27.9332C12.5031 2.95004 0 15.4877 0 30.9639C0 46.4286 12.5031 58.9777 27.9332 58.9777H79.2593V48.7448H81.1491V61.6858H139.044C155.119 61.6858 168.164 47.0854 168.164 30.9639C168.164 14.8309 156.721 0 140.634 0ZM35.2391 32.7731C33.96 34.1444 32.1393 34.9511 29.4197 34.9511H23.7732V42.3492H18.553V20.512H29.4197C32.1969 20.512 34.1905 21.3763 35.5388 23.0241C36.5528 24.2572 37.1521 25.8359 37.1521 27.6105C37.1521 29.5004 36.4376 31.5055 35.2391 32.7731ZM51.8792 41.6693L48.595 35.3774H44.5156V41.6693H39.9062V23.0241H49.4823C52.0866 23.0241 53.723 23.8538 54.8292 25.1099C55.7511 26.1701 56.3043 27.5414 56.3043 29.074C56.3043 31.3557 55.0943 33.4299 53.1468 34.5247L57.0994 41.6693H51.8792ZM67.9546 42.2455C62.4809 42.2455 58.1941 37.8204 58.1941 32.3122C58.1941 26.8845 62.4809 22.4595 67.9546 22.4595C73.4283 22.4595 77.8188 26.8845 77.8188 32.3122C77.8188 37.8089 73.4283 42.2455 67.9546 42.2455ZM90.5869 42.2916C84.4794 42.2916 80.4232 37.4171 80.4232 31.4479C80.4232 25.6054 84.5025 20.6388 90.4372 20.6388C93.7905 20.6388 97.19 22.0792 99.5293 24.1419L96.6023 27.7027C94.8968 26.1355 92.6958 25.2367 91.0479 25.2367C87.6715 25.2367 85.4935 28.083 85.4935 31.4825C85.4935 34.8819 87.7291 37.7282 91.1862 37.7282C93.3065 37.7282 95.5075 36.3224 97.1324 34.6399L100.094 38.1431C97.9044 40.321 94.6087 42.2916 90.5869 42.2916ZM114.671 41.6693L113.588 38.8115H106.017L104.957 41.6693H100.163L108.011 23.0241H111.767L119.626 41.6693H114.671ZM135.54 33.5221C134.423 34.6975 132.844 35.3774 130.482 35.3774H125.584V41.6693H121.044V23.0241H130.482C132.89 23.0241 134.63 23.7616 135.794 25.1675C136.681 26.2277 137.188 27.5644 137.188 29.0855C137.188 30.6989 136.566 32.4389 135.54 33.5221ZM146.949 42.2455C142.651 42.2455 139.62 40.4478 137.569 38.7884L140 35.389C141.164 36.2993 143.861 38.3275 146.868 38.3275C148.965 38.3275 150.187 37.3249 150.187 36.1034C150.187 34.7667 148.735 34.5016 146.557 34.3057C142.777 33.96 138.398 33.5337 138.398 28.5324C138.398 23.9115 142.316 22.448 145.601 22.448C149.069 22.448 152.158 23.7386 153.69 24.7296L151.224 28.2098C150.106 27.4953 147.986 26.3775 145.497 26.3775C144.126 26.3775 142.927 27.0574 142.927 28.2674C142.927 29.5811 144.875 29.6963 146.707 29.8922C149.818 30.1227 154.716 30.5721 154.716 35.6655C154.727 40.3902 151.201 42.2455 146.949 42.2455Z" fill="white"/>
<path d="M167.035 54.4838C166.239 53.6887 165.283 53.2969 164.165 53.2969C163.047 53.2969 162.091 53.6887 161.307 54.4838C160.512 55.2905 160.109 56.2469 160.109 57.3762C160.109 58.5171 160.501 59.485 161.284 60.2917C162.068 61.0868 163.036 61.5017 164.154 61.5017C165.283 61.5017 166.239 61.0983 167.023 60.2917C167.818 59.485 168.21 58.5171 168.21 57.3762C168.221 56.2469 167.83 55.2905 167.035 54.4838ZM166.631 59.8999C165.951 60.5913 165.122 60.937 164.154 60.937C163.186 60.937 162.356 60.5913 161.676 59.8999C160.996 59.2085 160.662 58.3673 160.662 57.3878C160.662 56.4082 160.996 55.5785 161.676 54.8871C162.356 54.1957 163.174 53.85 164.142 53.85C165.11 53.85 165.928 54.1957 166.62 54.8871C167.3 55.567 167.634 56.4082 167.634 57.3878C167.645 58.3673 167.311 59.2085 166.631 59.8999Z" fill="white"/>
<path d="M165.929 59.335C165.917 59.2083 165.917 59.1045 165.917 59.0008V58.6667C165.917 58.4477 165.836 58.2057 165.675 57.9752C165.514 57.7332 165.26 57.5834 164.903 57.5373C165.18 57.4912 165.398 57.4221 165.548 57.3184C165.836 57.134 165.986 56.8344 165.986 56.4311C165.986 55.8664 165.756 55.4861 165.295 55.2902C165.03 55.175 164.626 55.1289 164.073 55.1289H162.518V59.6231H163.301V57.8485H163.923C164.338 57.8485 164.626 57.8946 164.799 57.9983C165.087 58.1596 165.226 58.5053 165.226 59.0239V59.3811L165.249 59.5309C165.249 59.554 165.249 59.5655 165.26 59.577C165.26 59.5885 165.272 59.6116 165.272 59.6231H166.009L165.986 59.5655C165.952 59.5194 165.94 59.4503 165.929 59.335ZM164.765 57.1916C164.603 57.2608 164.35 57.2953 164.016 57.2953H163.301V55.659H163.97C164.407 55.659 164.73 55.7166 164.926 55.8203C165.122 55.9356 165.226 56.1545 165.226 56.4772C165.226 56.8344 165.076 57.0649 164.765 57.1916Z" fill="white"/>
</svg>
