<svg width="19" height="19" viewBox="0 0 19 19" fill="none" xmlns="http://www.w3.org/2000/svg">
<g clip-path="url(#clip0_1497_8158)">
<path d="M14.949 17.2821C15.975 16.5681 16.85 15.6586 17.5239 14.6059C18.1977 13.5531 18.6572 12.3777 18.876 11.147C19.0947 9.91637 19.0685 8.65463 18.7987 7.43412C18.5289 6.21362 18.021 5.05834 17.3039 4.03452C16.5868 3.01069 15.6748 2.13843 14.62 1.46774C13.5652 0.797051 12.3884 0.341108 11.1571 0.126046C9.92579 -0.0890169 8.66413 -0.0589711 7.44444 0.214461C6.22475 0.487893 5.07101 0.999336 4.04935 1.71948L2.8001 0.151977C2.76331 0.104932 2.71635 0.0668199 2.66275 0.0404967C2.60914 0.0141734 2.55027 0.000321001 2.49055 -2.29375e-05C2.46636 -4.66323e-05 2.44223 0.00234016 2.41851 0.00710206C2.34793 0.0203373 2.28227 0.0525263 2.22858 0.100221C2.17489 0.147916 2.13519 0.209319 2.11372 0.277852L0.497138 5.32631C0.481131 5.37583 0.475209 5.42805 0.479721 5.47989C0.484109 5.53173 0.498671 5.5822 0.522576 5.6284C0.546481 5.67461 0.579259 5.71565 0.619036 5.74917C0.658814 5.7827 0.70481 5.80806 0.754395 5.8238C0.80398 5.83954 0.856181 5.84534 0.908013 5.84089L6.19001 5.39123C6.2679 5.38425 6.34185 5.35389 6.40218 5.30414C6.48386 5.23895 6.53644 5.14409 6.54846 5.04028C6.56047 4.93646 6.53094 4.8321 6.4663 4.74998L5.0413 2.96081C6.50688 1.96346 8.26424 1.48561 10.0331 1.60347C11.8019 1.72134 13.4803 2.42814 14.8006 3.61113C16.1209 4.79412 17.007 6.38516 17.3176 8.13049C17.6282 9.87581 17.3454 11.6749 16.5143 13.2407C15.6833 14.8066 14.3518 16.0491 12.7322 16.77C11.1126 17.4909 9.29834 17.6486 7.57865 17.2182C5.85896 16.7877 4.33296 15.7937 3.24403 14.3948C2.15511 12.996 1.56599 11.2727 1.57064 9.49998C1.57064 9.29001 1.48723 9.08865 1.33876 8.94018C1.1903 8.79172 0.988934 8.70831 0.778971 8.70831C0.569008 8.70831 0.367645 8.79172 0.219178 8.94018C0.0707122 9.08865 -0.0126953 9.29001 -0.0126953 9.49998C-0.0112489 11.2388 0.466973 12.944 1.36995 14.43C2.27293 15.9159 3.5661 17.1259 5.10879 17.9282C6.65148 18.7305 8.38463 19.0944 10.1197 18.9803C11.8548 18.8662 13.5254 18.2786 14.9498 17.2813L14.949 17.2821Z" fill="#009296"/>
</g>
<defs>
<clipPath id="clip0_1497_8158">
<rect width="19" height="19" fill="white"/>
</clipPath>
</defs>
</svg>
