<svg width="45" height="21" viewBox="0 0 45 21" fill="none" xmlns="http://www.w3.org/2000/svg">
<path fill-rule="evenodd" clip-rule="evenodd" d="M11.6732 0.244629C11.4868 0.24537 11.3083 0.319794 11.177 0.451535C11.0457 0.583276 10.9723 0.761543 10.973 0.947127V2.81271C10.9727 2.90461 10.9905 2.99567 11.0255 3.08071C11.0605 3.16575 11.1119 3.24309 11.177 3.30832C11.242 3.37356 11.3193 3.4254 11.4044 3.4609C11.4895 3.4964 11.5809 3.51485 11.6732 3.51521C11.7659 3.51557 11.8579 3.49765 11.9436 3.46247C12.0294 3.42729 12.1074 3.37556 12.1729 3.31026C12.2385 3.24495 12.2905 3.16737 12.3258 3.08197C12.3612 2.99658 12.3792 2.90506 12.3788 2.81271V1.64416H31.6506V16.2477H21.4669C21.1487 14.5871 19.7005 13.3133 17.9621 13.3133C16.2238 13.3133 14.7801 14.5871 14.4628 16.2477H11.6732C11.4877 16.2484 11.31 16.322 11.1789 16.4526C11.0478 16.5832 10.9738 16.76 10.973 16.9447C10.9727 17.0366 10.9905 17.1276 11.0255 17.2127C11.0605 17.2977 11.112 17.3751 11.177 17.4403C11.242 17.5055 11.3193 17.5574 11.4044 17.5929C11.4895 17.6284 11.5809 17.6468 11.6732 17.6472H14.4669C14.794 19.2953 16.2327 20.5556 17.9621 20.5556C19.6916 20.5556 21.1347 19.2953 21.4628 17.6472H32.3562H34.8273C35.1554 19.2953 36.5986 20.5556 38.328 20.5556C40.0575 20.5556 41.4993 19.2953 41.8274 17.6472H44.2999C44.4863 17.6464 44.6647 17.572 44.7961 17.4403C44.9273 17.3085 45.0007 17.1303 45 16.9447V10.0796C45.0003 9.95039 44.9647 9.82361 44.897 9.71333L41.0984 3.63412C41.0355 3.53317 40.9478 3.44983 40.8435 3.39197C40.7393 3.3341 40.622 3.30361 40.5026 3.30337H33.0564V0.947127C33.0571 0.761543 32.9837 0.583278 32.8524 0.451538C32.7211 0.319797 32.5426 0.245371 32.3562 0.244629H11.6732ZM33.0564 4.7029H40.1072L43.5942 10.2819V16.2477H41.8329C41.5147 14.587 40.0664 13.3133 38.328 13.3133C36.5897 13.3133 35.1415 14.5871 34.8232 16.2477H33.0564V4.7029ZM9.64551 5.33843C9.5532 5.33807 9.46173 5.35581 9.37632 5.39064C9.2909 5.42548 9.21321 5.47672 9.14769 5.54145C9.08216 5.60617 9.03008 5.68311 8.99443 5.76788C8.95877 5.85264 8.94023 5.94356 8.93987 6.03546C8.94023 6.12735 8.95877 6.21828 8.99443 6.30304C9.03008 6.3878 9.08216 6.46474 9.14769 6.52947C9.21321 6.59419 9.2909 6.64544 9.37632 6.68027C9.46173 6.7151 9.55321 6.73285 9.64551 6.73249H16.6497C16.742 6.73285 16.8335 6.7151 16.9189 6.68027C17.0043 6.64544 17.082 6.59419 17.1475 6.52947C17.213 6.46474 17.2651 6.3878 17.3008 6.30304C17.3364 6.21828 17.355 6.12735 17.3553 6.03546C17.355 5.94356 17.3364 5.85264 17.3008 5.76788C17.2651 5.68311 17.213 5.60617 17.1475 5.54145C17.082 5.47672 17.0043 5.42548 16.9189 5.39064C16.8335 5.35581 16.742 5.33807 16.6497 5.33843H9.64551ZM5.17283 9.21173C4.98689 9.21209 4.80867 9.28579 4.67718 9.41669C4.5457 9.54759 4.47168 9.72502 4.47131 9.91013C4.47095 10.0021 4.48882 10.0933 4.5239 10.1784C4.55897 10.2636 4.61057 10.341 4.67573 10.4062C4.74089 10.4715 4.81833 10.5233 4.90363 10.5587C4.98893 10.5941 5.08041 10.6124 5.17283 10.6126H14.4133C14.5061 10.613 14.598 10.5951 14.6838 10.5599C14.7696 10.5247 14.8475 10.473 14.9131 10.4077C14.9787 10.3424 15.0307 10.2648 15.066 10.1794C15.1013 10.094 15.1193 10.0025 15.119 9.91013C15.1188 9.81812 15.1004 9.72705 15.0648 9.64213C15.0292 9.55721 14.9772 9.48011 14.9117 9.41524C14.8461 9.35037 14.7684 9.299 14.6829 9.26408C14.5974 9.22916 14.5058 9.21137 14.4133 9.21173H5.17283ZM0.700153 13.0864C0.607848 13.0868 0.516517 13.1052 0.431375 13.1407C0.346234 13.1762 0.268949 13.2281 0.203934 13.2933C0.138919 13.3585 0.0874469 13.4359 0.0524568 13.5209C0.0174666 13.6059 -0.000356394 13.697 5.39952e-06 13.7889C0.000729071 13.9735 0.074727 14.1504 0.205874 14.281C0.337021 14.4116 0.514686 14.4852 0.700153 14.4859H12.177C12.2693 14.4863 12.3608 14.4686 12.4462 14.4337C12.5316 14.3989 12.6093 14.3476 12.6748 14.2829C12.7404 14.2182 12.7924 14.1412 12.8281 14.0565C12.8637 13.9717 12.8823 13.8808 12.8826 13.7889C12.883 13.6966 12.865 13.605 12.8297 13.5196C12.7943 13.4342 12.7424 13.3567 12.6768 13.2914C12.6112 13.2261 12.5332 13.1743 12.4475 13.1391C12.3617 13.104 12.2698 13.086 12.177 13.0864H0.700153ZM17.9072 14.7087C17.9258 14.7082 17.9435 14.7087 17.9621 14.7087C19.1553 14.7087 20.1257 15.6904 20.1257 16.9351C20.1257 18.1799 19.1553 19.156 17.9621 19.156C16.7689 19.156 15.804 18.1799 15.804 16.9351C15.804 15.7098 16.7398 14.7387 17.9072 14.7087ZM38.2718 14.7087C38.2904 14.7082 38.3094 14.7087 38.328 14.7087C39.5213 14.7087 40.4916 15.6904 40.4916 16.9351C40.4916 18.1799 39.5213 19.156 38.328 19.156C37.1348 19.156 36.1645 18.1799 36.1645 16.9351C36.1645 15.7098 37.1042 14.7387 38.2718 14.7087Z" fill="#009296"/>
</svg>
