<svg width="120" height="120" viewBox="0 0 120 120" fill="none" xmlns="http://www.w3.org/2000/svg">
<path d="M60 120C26.9179 120 0 93.0821 0 60C0 26.9179 26.9179 0 60 0C93.0821 0 120 26.9179 120 60C120 93.0821 93.0821 120 60 120ZM60 1.52086C27.7524 1.52086 1.51413 27.7591 1.51413 60.0067C1.51413 92.2544 27.7524 118.493 60 118.493C92.2476 118.493 118.486 92.2544 118.486 60.0067C118.479 27.7524 92.2476 1.52086 60 1.52086Z" fill="#009296"/>
<path d="M17.9205 48.372C17.5167 48.8565 17.0389 49.193 16.4938 49.3814C15.9488 49.5699 15.37 49.5766 14.7576 49.4016L15.4037 47.2549C15.8209 47.3491 16.191 47.302 16.5073 47.1136C16.8236 46.9252 17.0524 46.6022 17.1937 46.1446C17.335 45.6802 17.335 45.2764 17.1937 44.94C17.0524 44.6035 16.7967 44.3814 16.4333 44.2738C16.1372 44.1863 15.868 44.1997 15.619 44.3276C15.3767 44.4487 15.1547 44.6304 14.9663 44.8727C14.7778 45.1082 14.5423 45.4514 14.2597 45.8821C13.8761 46.4743 13.5261 46.9454 13.2166 47.2886C12.907 47.6385 12.5235 47.9009 12.0591 48.0759C11.5948 48.2509 11.0497 48.2442 10.4171 48.0557C9.82493 47.874 9.35387 47.5712 9.00394 47.1472C8.654 46.7166 8.44539 46.2051 8.37137 45.5995C8.29734 44.9938 8.36464 44.3478 8.57325 43.6614C8.88281 42.6318 9.38752 41.8713 10.0807 41.3801C10.7738 40.8888 11.5813 40.7408 12.4965 40.9494L11.8303 43.1499C11.4804 43.0625 11.1506 43.123 10.8478 43.3316C10.5383 43.5335 10.3229 43.8633 10.1883 44.3074C10.0672 44.6977 10.0739 45.0409 10.2018 45.337C10.3296 45.6331 10.5854 45.835 10.9689 45.9494C11.2381 46.0301 11.4871 46.01 11.7159 45.8888C11.9447 45.7677 12.1533 45.5927 12.3418 45.3572C12.5302 45.1284 12.7657 44.7987 13.0551 44.3612C13.4387 43.769 13.7953 43.298 14.1049 42.9481C14.4212 42.5981 14.8115 42.3289 15.2825 42.1472C15.7536 41.9655 16.2987 41.9723 16.9178 42.1607C17.4494 42.3222 17.907 42.6116 18.2772 43.0288C18.654 43.446 18.8963 43.9575 19.0039 44.5766C19.1116 45.1957 19.0578 45.8686 18.8357 46.6022C18.6338 47.2953 18.331 47.8875 17.9205 48.372Z" fill="#009296"/>
<path d="M20.7673 39.6709C19.9665 40.1486 19.0917 40.3976 18.1496 40.4111C17.2074 40.4246 16.2922 40.1756 15.4039 39.6641C14.5224 39.1594 13.8494 38.4999 13.3784 37.6789C12.9073 36.8579 12.6785 35.9831 12.692 35.0477C12.6987 34.1123 12.9477 33.2173 13.4322 32.3694C13.9235 31.5147 14.5695 30.8485 15.3703 30.3707C16.1711 29.8929 17.0392 29.6507 17.9813 29.6439C18.9235 29.6372 19.8319 29.8862 20.7135 30.3909C21.6018 30.9023 22.2815 31.5618 22.7525 32.3761C23.2236 33.1904 23.4524 34.0652 23.4457 35.0006C23.4389 35.936 23.1899 36.831 22.7054 37.6789C22.2209 38.5268 21.5749 39.1931 20.7673 39.6709ZM21.5345 35.1015C21.5278 34.543 21.3595 34.0181 21.0365 33.5268C20.7135 33.0289 20.2492 32.6116 19.6435 32.2617C19.0379 31.9185 18.4389 31.7301 17.8535 31.7032C17.268 31.6762 16.7297 31.8041 16.2519 32.08C15.7741 32.3559 15.377 32.7664 15.0675 33.3115C14.7579 33.8566 14.6031 34.4084 14.6031 34.9669C14.6031 35.5255 14.7646 36.0504 15.0877 36.5416C15.4107 37.0329 15.8683 37.4569 16.4739 37.8001C17.0796 38.1433 17.6785 38.3317 18.2707 38.3586C18.8629 38.3855 19.4013 38.2644 19.8858 37.9818C20.3703 37.7058 20.7673 37.2886 21.0836 36.7503C21.3932 36.2052 21.5412 35.6601 21.5345 35.1015Z" fill="#009296"/>
<path d="M23.358 20.8015C24.2395 20.4919 25.1278 20.4515 26.0094 20.6669C26.8977 20.8822 27.7187 21.3533 28.4724 22.0733C29.2328 22.7934 29.7375 23.5875 29.9865 24.4556C30.2422 25.3237 30.2355 26.2052 29.973 27.1003C29.7106 27.9953 29.1991 28.8432 28.4454 29.6373L25.9286 32.2752L18.3916 25.0949L20.9017 22.4569C21.6554 21.6628 22.4764 21.111 23.358 20.8015ZM28.2166 26.0168C28.1964 25.1689 27.7927 24.3748 27.0053 23.6278C26.218 22.8809 25.397 22.5108 24.5423 22.5175C23.6877 22.5242 22.8802 22.928 22.1265 23.7221L21.1036 24.792L26.0969 29.5431L27.1197 28.4731C27.8734 27.679 28.2368 26.858 28.2166 26.0168Z" fill="#009296"/>
<path d="M28.6607 15.5453L34.9797 23.8427L33.3175 25.1079L26.9985 16.8104L28.6607 15.5453Z" fill="#009296"/>
<path d="M33.1291 12.5641L36.191 18.2505C36.5275 18.8763 36.9447 19.2599 37.4495 19.4147C37.9542 19.5695 38.4925 19.4887 39.0847 19.1724C39.6836 18.8494 40.0538 18.4389 40.2018 17.9342C40.3499 17.4295 40.2557 16.8709 39.9192 16.2451L36.8573 10.5654L38.7146 9.56946L41.7698 15.2424C42.187 16.023 42.3754 16.7767 42.3283 17.4968C42.2812 18.2168 42.0457 18.8696 41.6285 19.4416C41.2112 20.0203 40.6527 20.4914 39.9596 20.8682C39.2731 21.2384 38.58 21.4335 37.8801 21.4604C37.1803 21.4874 36.5208 21.3191 35.9017 20.9557C35.2893 20.5923 34.7711 20.0203 34.3472 19.2397L31.292 13.5735L33.1291 12.5641Z" fill="#009296"/>
<path d="M53.5131 5.26929L55.9491 15.4106L53.9168 15.9019L52.3354 9.30697L51.1981 16.5546L49.6571 16.9247L45.3435 10.9826L46.9249 17.5775L44.8926 18.062L42.4565 7.9207L44.7648 7.36888L49.7984 14.132L51.2116 5.8211L53.5131 5.26929Z" fill="#009296"/>
<path d="M61.8101 7.36214C62.3552 6.60171 63.055 6.04316 63.9029 5.67977C64.7508 5.31638 65.6661 5.18852 66.6553 5.29619C67.8128 5.42405 68.7953 5.82782 69.6028 6.51423C70.4103 7.20064 70.9285 8.08893 71.164 9.1791L68.7751 8.92338C68.5934 8.40521 68.2973 7.99471 67.8935 7.69862C67.4897 7.40252 67.0052 7.22755 66.4399 7.16699C65.8343 7.09969 65.2825 7.18718 64.7845 7.41598C64.2865 7.64478 63.876 8.00817 63.553 8.49269C63.2367 8.97722 63.0348 9.56941 62.9608 10.2625C62.8868 10.9422 62.9541 11.5613 63.156 12.1132C63.3646 12.6582 63.6876 13.1024 64.125 13.4321C64.5624 13.7686 65.0873 13.9638 65.693 14.0311C66.2582 14.0916 66.7697 14.0176 67.2273 13.8157C67.6849 13.6071 68.0617 13.2706 68.3511 12.8063L70.7401 13.062C70.2757 14.0849 69.5826 14.8453 68.6539 15.3366C67.7253 15.8278 66.6755 16.0162 65.5045 15.8884C64.5153 15.7807 63.6472 15.4577 62.8935 14.9193C62.1465 14.381 61.5813 13.6878 61.2111 12.8332C60.8343 11.9786 60.7064 11.0432 60.8141 10.027C60.9218 9.01086 61.265 8.12257 61.8101 7.36214Z" fill="#009296"/>
<path d="M73.7753 16.8237C73.1696 16.1104 72.7861 15.2894 72.6245 14.3608C72.463 13.4321 72.564 12.49 72.9206 11.5276C73.2773 10.5788 73.8224 9.8049 74.5559 9.2127C75.2894 8.62051 76.1171 8.25039 77.0458 8.10907C77.9745 7.96775 78.8897 8.06869 79.8049 8.41189C80.7268 8.7551 81.4873 9.28673 82.0862 10.0001C82.6851 10.7134 83.062 11.5344 83.2235 12.463C83.3782 13.3917 83.284 14.3271 82.9274 15.276C82.564 16.2383 82.0256 17.0122 81.2921 17.6044C80.5653 18.1966 79.7376 18.5667 78.8089 18.708C77.8803 18.8493 76.9651 18.7484 76.0498 18.4052C75.1414 18.0687 74.3809 17.5438 73.7753 16.8237ZM78.4119 16.8507C78.957 16.7497 79.4482 16.5007 79.8856 16.1037C80.3231 15.7066 80.6663 15.175 80.9085 14.5223C81.1508 13.8695 81.2383 13.2504 81.171 12.6649C81.1037 12.0795 80.8951 11.5747 80.5451 11.1441C80.1952 10.7134 79.7241 10.3904 79.1387 10.1683C78.5532 9.94621 77.9812 9.88565 77.4294 9.97313C76.8776 10.0606 76.3863 10.3096 75.9489 10.6999C75.5115 11.097 75.175 11.6219 74.926 12.2746C74.6838 12.9274 74.5896 13.5465 74.6568 14.1387C74.7241 14.7309 74.9328 15.2423 75.2827 15.673C75.6326 16.1104 76.1037 16.4334 76.6959 16.6555C77.2948 16.8843 77.8668 16.9449 78.4119 16.8507Z" fill="#009296"/>
<path d="M86.6217 14.2666C87.4629 13.8696 88.3445 13.708 89.2664 13.7955C90.1816 13.883 91.0497 14.2128 91.864 14.7848C92.8196 15.451 93.4858 16.2787 93.8627 17.2747C94.2395 18.2639 94.2664 19.2935 93.9501 20.3635L91.9784 18.984C92.0659 18.4389 92.0053 17.9409 91.7967 17.49C91.5814 17.0391 91.2449 16.6488 90.7806 16.3258C90.2826 15.9759 89.7577 15.7875 89.2059 15.7471C88.654 15.7067 88.1224 15.8278 87.611 16.097C87.0995 16.3662 86.6419 16.7901 86.2449 17.3621C85.8546 17.9274 85.6123 18.4994 85.5316 19.0782C85.4508 19.6569 85.5181 20.202 85.7469 20.7067C85.969 21.2114 86.3324 21.6354 86.8304 21.9853C87.2947 22.3083 87.7792 22.49 88.2772 22.5304C88.7752 22.5708 89.2664 22.4564 89.7509 22.1805L91.7227 23.56C90.8277 24.2329 89.8519 24.5627 88.7954 24.5492C87.7388 24.5358 86.7361 24.1926 85.7671 23.5196C84.9528 22.9476 84.3404 22.2477 83.9434 21.42C83.5464 20.5923 83.3849 19.7107 83.4723 18.7821C83.5531 17.8534 83.8896 16.9718 84.475 16.1307C85.0605 15.2895 85.7738 14.6704 86.6217 14.2666Z" fill="#009296"/>
<path d="M92.5639 28.3245C92.3754 27.4093 92.436 26.5008 92.7388 25.6125C93.0416 24.7175 93.58 23.9369 94.3539 23.2707C95.121 22.6045 95.969 22.194 96.8976 22.0257C97.8263 21.8575 98.7281 21.9315 99.6096 22.2478C100.491 22.5641 101.252 23.0957 101.884 23.836C102.53 24.5829 102.941 25.4107 103.129 26.3259C103.311 27.2411 103.25 28.1428 102.947 29.0311C102.645 29.9194 102.106 30.6933 101.339 31.3595C100.565 32.0325 99.7106 32.4497 98.7886 32.6247C97.8667 32.7929 96.9649 32.7256 96.0834 32.4026C95.2018 32.0863 94.4414 31.5547 93.8088 30.8144C93.1628 30.0675 92.7523 29.2397 92.5639 28.3245ZM96.6217 30.5654C97.1466 30.7404 97.6984 30.7606 98.2772 30.6193C98.8492 30.478 99.401 30.1819 99.9326 29.7243C100.458 29.2667 100.834 28.7687 101.056 28.2236C101.279 27.6785 101.339 27.1334 101.238 26.5883C101.137 26.0432 100.881 25.5318 100.471 25.0607C100.06 24.5829 99.5894 24.2532 99.0645 24.0715C98.5396 23.8898 97.9878 23.8629 97.4158 24.0042C96.8438 24.1455 96.292 24.4416 95.7671 24.8925C95.2422 25.3434 94.8653 25.8481 94.6365 26.3999C94.4145 26.9517 94.3539 27.4968 94.4548 28.0486C94.5558 28.6004 94.8115 29.1119 95.222 29.5897C95.6258 30.0675 96.0901 30.3905 96.6217 30.5654Z" fill="#009296"/>
<path d="M110.861 38.19L103.203 38.2303L99.9865 39.9194L99.0107 38.0688L102.221 36.3797L106.588 30.0809L107.685 32.1671L104.509 36.3663L109.764 36.1173L110.861 38.19Z" fill="#009296"/>
<path d="M103.964 45.323L105 48.6003L103.418 49.105L101.75 43.8358L111.689 40.6864L112.322 42.6783L103.964 45.323Z" fill="#009296"/>
<path d="M26.0097 87.6921L17.7863 94.1053L16.501 92.4566L24.7244 86.0434L26.0097 87.6921Z" fill="#009296"/>
<path d="M20.9895 97.3692C20.7472 96.7838 20.6665 96.205 20.754 95.633C20.8414 95.061 21.0972 94.5429 21.5413 94.0785L23.1429 95.6465C22.867 95.9762 22.7392 96.3194 22.7593 96.6896C22.7795 97.0597 22.9612 97.4096 23.3044 97.7461C23.6544 98.0893 24.011 98.271 24.3744 98.2979C24.7378 98.3248 25.0541 98.2037 25.3165 97.9345C25.5319 97.7124 25.6396 97.4634 25.6463 97.1943C25.6463 96.9184 25.5925 96.6424 25.4646 96.3598C25.3435 96.0772 25.1483 95.7138 24.8926 95.2696C24.5494 94.6573 24.2869 94.1324 24.1254 93.6949C23.9572 93.2575 23.9034 92.7999 23.9572 92.3019C24.011 91.8107 24.2735 91.3262 24.7311 90.8551C25.1618 90.411 25.6463 90.135 26.1914 90.0206C26.7297 89.9062 27.2883 89.9601 27.8603 90.1754C28.4323 90.3908 28.9707 90.7474 29.4821 91.2454C30.2493 91.9991 30.6934 92.7932 30.8078 93.6344C30.9222 94.4756 30.6799 95.2629 30.0743 95.9762L28.4256 94.3679C28.6611 94.0987 28.762 93.7757 28.7217 93.4123C28.6813 93.0489 28.4929 92.699 28.1631 92.376C27.867 92.0933 27.5642 91.9386 27.2412 91.9184C26.9182 91.8982 26.6221 92.0328 26.3462 92.3154C26.151 92.5173 26.0568 92.7461 26.0568 93.0085C26.0568 93.271 26.1174 93.5334 26.2385 93.8093C26.3596 94.0853 26.5413 94.4486 26.7903 94.8995C27.1335 95.5186 27.3892 96.0435 27.5575 96.4877C27.7257 96.9318 27.7795 97.4029 27.7257 97.9009C27.6651 98.3988 27.4161 98.8834 26.9585 99.3477C26.5682 99.7447 26.1039 100.021 25.5655 100.155C25.0272 100.297 24.4552 100.27 23.8563 100.088C23.2573 99.8995 22.6853 99.5429 22.1402 99.0045C21.6153 98.4998 21.2385 97.9547 20.9895 97.3692Z" fill="#009296"/>
<path d="M33.8361 97.2879L32.3624 99.4481L35.2628 101.427L34.3274 102.799L31.427 100.821L29.8725 103.102L33.143 105.336L32.1807 106.743L27.1807 103.331L33.069 94.7038L38.069 98.1156L37.1066 99.5221L33.8361 97.2879Z" fill="#009296"/>
<path d="M45.606 101.696L44.9061 103.231L42.3759 102.08L38.7487 110.034L36.8442 109.166L40.4714 101.212L37.9411 100.061L38.641 98.5266L45.606 101.696Z" fill="#009296"/>
<path d="M54.7445 103.944L52.3959 114.105L50.3569 113.634L51.3596 109.314L47.0056 108.304L46.0029 112.625L43.9639 112.154L46.3125 101.992L48.3515 102.463L47.3824 106.642L51.7364 107.652L52.7055 103.473L54.7445 103.944Z" fill="#009296"/>
<path d="M58.311 104.078L57.5236 114.475L55.4375 114.32L56.2248 103.923L58.311 104.078Z" fill="#009296"/>
<path d="M62.7459 113.997C61.8912 113.614 61.1913 113.035 60.6463 112.268C60.1012 111.501 59.7849 110.606 59.6974 109.583C59.6099 108.573 59.7714 107.638 60.1752 106.79C60.579 105.942 61.1712 105.249 61.945 104.724C62.7189 104.199 63.5938 103.896 64.5628 103.809C65.5453 103.721 66.4605 103.876 67.3084 104.26C68.1564 104.65 68.8495 105.222 69.3879 105.996C69.9262 106.763 70.2425 107.651 70.33 108.667C70.4175 109.69 70.2627 110.626 69.8589 111.474C69.4551 112.322 68.8697 113.008 68.0958 113.54C67.3219 114.071 66.4471 114.374 65.478 114.455C64.509 114.536 63.6005 114.388 62.7459 113.997ZM66.9383 112.025C67.3892 111.702 67.7257 111.265 67.9477 110.713C68.1698 110.161 68.2506 109.542 68.19 108.849C68.1294 108.156 67.941 107.557 67.6315 107.059C67.3219 106.561 66.9114 106.191 66.4134 105.956C65.9154 105.72 65.3502 105.626 64.7243 105.68C64.0985 105.733 63.5601 105.922 63.1025 106.238C62.6449 106.554 62.3017 106.992 62.0796 107.53C61.8576 108.075 61.7768 108.694 61.8306 109.388C61.8912 110.081 62.0796 110.68 62.3892 111.184C62.7055 111.689 63.1092 112.059 63.614 112.301C64.1187 112.544 64.6839 112.638 65.3098 112.584C65.9491 112.537 66.4874 112.349 66.9383 112.025Z" fill="#009296"/>
<path d="M82.295 110.357L80.3098 111.016L73.5601 105.713L75.8145 112.503L73.8293 113.163L70.5386 103.25L72.5238 102.591L79.2802 107.907L77.0191 101.104L79.0043 100.444L82.295 110.357Z" fill="#009296"/>
<path d="M89.9532 103.842L86.4 105.989L86.8374 108.042L84.9599 109.179L82.7661 98.3041L84.8522 97.0457L93.466 104.038L91.575 105.182L89.9532 103.842ZM88.6006 102.705L85.0541 99.7509L86.0232 104.266L88.6006 102.705Z" fill="#009296"/>
<path d="M93.7213 89.7982L94.8586 91.0432L92.8061 92.9207L98.7079 99.3675L97.1668 100.781L91.2651 94.3339L89.2193 96.2114L88.082 94.9665L93.7213 89.7982Z" fill="#009296"/>
<path d="M96.8848 88.4792L98.9507 90.0808L101.104 87.3082L102.416 88.3244L100.263 91.0969L102.443 92.7928L104.873 89.6635L106.219 90.7066L102.511 95.4845L94.2603 89.0848L97.9682 84.3069L99.3141 85.35L96.8848 88.4792Z" fill="#009296"/>
<path d="M71.3524 43.5531C70.7401 44.5894 70.1546 45.5854 69.5557 46.6016C70.1546 45.5921 70.7468 44.5894 71.3524 43.5531Z" fill="#009296"/>
<path d="M63.8086 46.1979C64.3133 46.3257 64.7709 46.4401 65.2016 46.5478C64.7642 46.4401 64.3066 46.3325 63.8086 46.1979Z" fill="#009296"/>
<path d="M48.082 51.9918C48.1964 51.9515 48.3108 51.9178 48.4252 51.8842C48.3041 51.9178 48.1897 51.9582 48.082 51.9918Z" fill="#009296"/>
<path d="M60.1411 51.9649C60.2353 51.9784 60.3161 51.9851 60.4103 51.9918L60.592 50.0941C60.5785 50.0941 60.5449 50.0874 60.5112 50.0874C60.3968 50.5181 60.3228 50.7536 60.2824 50.9892C60.2219 51.292 60.1882 51.5948 60.1411 51.9649Z" fill="#009296"/>
<path d="M46.9717 50.5316C45.1884 51.2045 44.8385 52.9407 46.1709 54.3001C47.0458 55.1884 48.1292 55.9757 49.2598 56.5073C55.7739 59.5693 62.6851 60.8613 69.852 60.6863C71.3997 60.646 73.0148 60.2489 74.4616 59.6702C76.1642 58.9905 76.3997 57.261 75.1481 55.9084C74.6366 55.3566 74.031 54.8182 73.3647 54.4818C71.7497 53.6608 70.1211 52.8129 68.4118 52.2476C65.8412 51.3997 63.1898 50.7873 60.5249 50.0605C60.5182 50.074 60.5182 50.0874 60.5114 50.1009C60.5451 50.1076 60.572 50.1076 60.5922 50.1076L60.4105 52.0053C60.3163 51.9919 60.2355 51.9851 60.1413 51.9784C60.1413 51.9851 60.1413 51.9851 60.1413 51.9919C60.6124 52.0928 60.969 52.1668 61.3324 52.2409C64.9596 52.9811 68.5263 53.903 71.8102 55.6796C72.5034 56.0565 73.1225 56.5679 73.7281 57.0794C74.2463 57.5168 74.105 57.9609 73.4993 58.1561C72.7187 58.4051 71.9246 58.6406 71.1171 58.7483C67.611 59.1924 64.1454 58.7146 60.6864 58.183L58.4455 57.8465L54.8318 56.864C54.8318 56.864 53.8964 56.5275 52.6783 56.0228C50.8883 55.3768 49.2328 54.6433 47.8197 53.4252C47.0256 52.7388 47.1063 52.3687 48.0888 52.0121C48.1965 51.9717 48.3109 51.938 48.432 51.9044C49.8452 51.4535 51.3055 51.3728 52.8466 51.3997L52.86 51.4602C54.6568 51.467 57.0188 51.6217 60.1481 51.9851C60.2019 51.615 60.2355 51.3122 60.2894 51.0094C60.3365 50.7738 60.4105 50.5383 60.5182 50.1076C59.8991 50.0336 56.4401 49.3943 51.5209 49.5693C49.9664 49.6096 48.4051 49.9865 46.9717 50.5316Z" fill="#009296"/>
<path d="M52.8528 51.4402L52.8393 51.3796C51.2983 51.3527 49.838 51.4335 48.4248 51.8843C49.3064 51.6219 50.6657 51.4267 52.8528 51.4402Z" fill="#009296"/>
<path d="M52.6717 56.0025C51.0297 55.3161 48.8695 54.3201 47.813 53.4049C49.2262 54.6297 50.8816 55.3565 52.6717 56.0025Z" fill="#009296"/>
<path d="M59.6768 47.2817C59.6902 47.2817 59.7037 47.2817 59.7104 47.2884H59.8181L60.0738 45.6128C60.02 45.6263 59.9594 45.6397 59.8854 45.6464C59.8181 46.1983 59.7508 46.7366 59.6768 47.2817Z" fill="#009296"/>
<path d="M75.424 72.1532C75.5519 71.9985 75.7268 71.7764 75.9085 71.561C78.7416 68.1559 80.8211 64.3538 81.992 60.0604C82.5034 58.1761 82.2208 56.4534 80.9893 55.0133C79.9462 53.7952 78.7349 52.6916 77.4563 51.7225C76.2719 50.8208 74.8991 50.1613 73.5532 49.3538C75.2221 44.6768 75.7336 39.8652 75.0135 34.771C73.9166 35.269 72.8937 35.6324 71.9718 36.1775C68.3581 38.3174 65.3904 41.2111 62.8264 44.5018C62.1131 45.417 61.4805 46.0361 60.276 45.5987C60.2221 45.5785 60.1548 45.592 60.0741 45.6055L59.8184 47.2811H59.7107C59.6972 47.2811 59.6838 47.2811 59.677 47.2744C59.677 47.2811 59.677 47.2878 59.677 47.3013C59.9193 47.3618 60.0539 47.4157 60.1952 47.4359C63.6071 47.9406 66.9314 48.775 70.1481 50.02C73.2908 51.2313 76.3123 52.6781 78.7282 55.1142C81.3863 57.7993 80.9153 60.4103 77.3823 61.7696C75.525 62.483 73.4994 62.7723 71.5344 63.1761C70.9556 63.2972 70.5855 63.4318 70.3163 64.0106C69.9193 64.8518 69.3675 65.6256 68.7686 66.6216C68.5398 65.6122 68.3648 64.9056 68.2235 64.199C68.1158 63.6404 67.813 63.4184 67.2342 63.3847C65.673 63.2972 64.1185 63.1761 62.564 62.9944C57.4832 62.3955 52.5842 61.1034 47.9745 58.8356C45.7201 57.7252 43.5869 56.4264 41.9853 54.4211C40.249 52.2474 40.6057 50.2824 43.035 48.9164C45.7605 47.382 49.8857 46.1236 59.677 47.2811C59.7511 46.7293 59.8184 46.1976 59.8924 45.6391C59.9664 45.6324 60.027 45.6189 60.0808 45.6055C59.3204 45.6727 55.4106 44.9123 49.2396 45.2555C46.5546 45.4036 43.9637 46.1034 41.6622 47.5974C40.3231 48.4655 39.3338 49.6095 39.105 51.2448C38.5869 54.9729 38.7887 58.6741 39.7309 62.3147C40.0741 63.6539 40.5048 64.9662 40.922 66.3659C36.9853 66.2649 33.4119 67.4359 29.8184 69.0106C32.8197 73.6674 36.5882 76.9917 42.2881 77.6983C40.8211 79.273 39.4281 80.7737 37.9879 82.3215C38.2437 82.4493 38.3648 82.5234 38.4994 82.5705C44.5694 84.8921 50.4038 84.3807 56.0162 81.1169C56.3931 80.9015 56.8439 80.6458 57.241 80.6727C60.525 80.9015 63.6272 80.2622 66.5882 78.8692C67.0795 78.6404 67.4361 78.6741 67.9139 78.9567C71.9247 81.312 76.171 81.8369 80.6259 80.4843C81.3661 80.2622 82.0593 79.8989 83.0418 79.4884C80.3836 76.9379 77.9207 74.5624 75.424 72.1532ZM73.1091 43.7548C73.0216 44.3134 72.9207 44.8719 72.8063 45.3968C72.7524 45.6324 72.6986 45.8679 72.6447 46.09C72.6313 46.1573 72.6111 46.2246 72.5909 46.2919C72.5505 46.4601 72.5034 46.6216 72.4563 46.7764C72.4361 46.8369 72.4227 46.9042 72.4025 46.9648C72.3419 47.1734 72.2746 47.3753 72.2073 47.557C72.0593 47.9742 71.9045 48.3376 71.7363 48.6337C70.8345 48.304 69.9193 47.9675 68.9503 47.6108C69.7578 46.238 70.5317 44.9325 71.3392 43.553C70.747 43.2434 70.2558 42.9877 69.7511 42.7185C68.9301 44.0375 68.1562 45.2622 67.4092 46.4937C67.3486 46.5947 67.2881 46.6754 67.2208 46.7427C67.1871 46.7764 67.1468 46.7898 67.1131 46.8168C66.9381 46.9446 66.7295 46.9783 66.4334 46.884C66.0297 46.7562 65.6192 46.6485 65.1885 46.5408C64.7578 46.4332 64.2935 46.3188 63.7955 46.1909C64.4752 45.3161 65.1683 44.4749 65.8951 43.6674C66.2585 43.2636 66.6286 42.8733 66.9987 42.4897C67.3756 42.1061 67.7591 41.7293 68.1494 41.3659C68.9301 40.6391 69.7511 39.946 70.6057 39.2999C71.4604 38.6539 72.3554 38.0482 73.2975 37.4897C73.3311 37.6108 73.3648 37.7522 73.385 37.9069C73.459 38.378 73.4859 39.0038 73.4725 39.7172C73.4657 39.9392 73.459 40.168 73.4455 40.4036C73.4119 41.0159 73.3581 41.6754 73.2773 42.3417C73.2639 42.4359 73.2571 42.5301 73.2437 42.6243C73.2235 43.0079 73.1696 43.3847 73.1091 43.7548ZM32.5909 69.8585C35.5115 68.7818 38.284 68.0213 41.2316 68.2838C41.5344 68.3107 41.9045 68.5664 42.0795 68.8289C42.4429 69.3605 42.6986 69.9594 43.0754 70.6862C41.6084 70.6862 40.276 70.6862 38.856 70.6862C38.7551 71.2044 38.6474 71.7158 38.5128 72.4089C39.3338 72.4897 40.1077 72.6243 40.8749 72.6243C41.8103 72.6243 42.739 72.5032 43.6744 72.4695C43.9233 72.4628 44.2665 72.5099 44.4146 72.6714C44.9193 73.2367 45.3634 73.8692 45.8211 74.4682C45.0606 75.4439 44.1521 75.8881 42.887 75.8343C38.459 75.6458 35.3769 73.203 32.5909 69.8585ZM41.1912 81.4399C43.1764 79.5422 45.1145 77.6849 47.0929 75.7939C47.8466 76.4264 48.4321 76.911 49.1589 77.5166C48.2908 78.0752 47.4832 78.6001 46.5949 79.1721C46.8372 79.6633 47.0862 80.1613 47.4025 80.8006C48.3244 80.2219 49.2396 79.7239 50.0606 79.098C50.6192 78.6741 51.0431 78.6472 51.642 78.9836C52.3486 79.3807 53.1293 79.6633 53.8762 79.9931C52.2208 81.8908 44.2464 82.8531 41.1912 81.4399ZM62.9678 78.1559C63.4254 77.4359 63.8628 76.7562 64.3675 75.9756C63.8089 75.6795 63.2975 75.4103 62.9005 75.195C61.9516 76.2919 61.1037 77.3484 60.1616 78.3107C59.852 78.627 59.28 78.8423 58.8291 78.8423C54.0579 78.8894 50.2962 76.7225 47.2679 73.2367C43.1158 68.4587 41.1239 62.7791 40.7134 56.5072C40.7067 56.4197 40.7067 56.339 40.7201 56.2515C40.7268 56.1976 40.7605 56.1505 40.8009 56.0631C46.6555 61.4466 53.8291 63.5328 61.3863 64.6835C62.9274 64.919 64.4886 65.0536 66.0431 65.1748C66.5748 65.2151 66.743 65.4574 66.7363 65.915C66.7161 67.3349 66.6824 68.7481 66.6622 70.168C66.6555 70.4103 66.6622 70.6526 66.6622 71.0159C68.7013 69.4614 70.3702 67.7252 71.6219 65.6054C71.7699 65.3497 72.0593 65.0738 72.3285 65.0065C74.4617 64.4816 76.6151 64.0038 78.708 63.526C78.6609 67.6647 68.1158 77.6579 62.9678 78.1559ZM69.2194 77.4964C69.7914 77.0927 70.3231 76.6754 70.8951 76.339C71.0431 76.2515 71.3594 76.3726 71.5546 76.4803C72.2948 76.8975 73.0149 77.3417 73.8359 77.8329C74.132 77.2744 74.4079 76.7696 74.704 76.2044C73.9637 75.7737 73.3311 75.4103 72.5303 74.946C72.9879 74.5422 73.3446 74.1855 73.7551 73.9029C73.9032 73.802 74.2598 73.8154 74.3877 73.9298C76.1575 75.4641 77.9072 77.0321 79.704 78.627C77.315 79.946 71.8103 79.4076 69.2194 77.4964Z" fill="#009296"/>
<path d="M73.2637 42.6313C73.2166 43.0015 73.1695 43.3783 73.1089 43.7552C73.1695 43.3851 73.2233 43.0082 73.2637 42.6313Z" fill="#009296"/>
<path d="M72.4562 46.7764C72.436 46.8369 72.4225 46.9042 72.4023 46.9648C72.4225 46.9042 72.4427 46.8369 72.4562 46.7764Z" fill="#009296"/>
<path d="M72.6447 46.097C72.6312 46.1643 72.611 46.2316 72.5908 46.2989C72.611 46.2249 72.6245 46.1643 72.6447 46.097Z" fill="#009296"/>
<path d="M73.2974 42.3552C73.3781 41.6823 73.432 41.0295 73.4656 40.4171C73.4521 40.693 73.432 40.9689 73.4118 41.2583C73.3848 41.615 73.3445 41.9851 73.2974 42.3552Z" fill="#009296"/>
<path d="M71.7427 48.6342C71.9042 48.3381 72.0657 47.9747 72.2137 47.5575C72.0657 47.9747 71.9109 48.3448 71.7427 48.6342Z" fill="#009296"/>
<path d="M66.4468 46.891C66.7429 46.9852 66.9515 46.9516 67.1265 46.8237C67.0188 46.8978 66.9044 46.9516 66.7631 46.9516C66.6689 46.9516 66.5679 46.9314 66.4468 46.891Z" fill="#009296"/>
<path d="M71.3523 43.5531C70.5381 44.9326 69.7709 46.2382 68.9634 47.611C69.1653 47.2678 69.3604 46.9313 69.5623 46.5948C70.1545 45.5921 70.7467 44.5894 71.3523 43.5531Z" fill="#009296"/>
<path d="M65.2017 46.5477C65.6323 46.6554 66.0428 46.7631 66.4466 46.8909C66.2447 46.8304 66.0428 46.7698 65.8342 46.716C65.6256 46.6554 65.417 46.6016 65.2017 46.5477Z" fill="#009296"/>
<path d="M68.9634 47.6178C69.9324 47.9745 70.8476 48.3109 71.7494 48.6407C71.2985 48.4724 70.8409 48.3109 70.3833 48.136C69.9122 47.9677 69.4479 47.7928 68.9634 47.6178Z" fill="#009296"/>
<path d="M72.2139 47.5572C72.2812 47.3687 72.3417 47.1669 72.409 46.965C72.3417 47.1736 72.2812 47.3687 72.2139 47.5572Z" fill="#009296"/>
<path d="M72.463 46.7768C72.5101 46.622 72.5504 46.4605 72.5975 46.2922C72.5504 46.4605 72.5033 46.622 72.463 46.7768Z" fill="#009296"/>
<path d="M72.4023 46.9648C72.4225 46.9042 72.436 46.8437 72.4562 46.7764C72.4427 46.8369 72.4225 46.9042 72.4023 46.9648Z" fill="#009296"/>
<path d="M65.9082 43.6809C65.1814 44.4884 64.4883 45.3296 63.8086 46.2045C64.1922 45.7065 64.5892 45.222 64.9863 44.7509C65.2891 44.3808 65.5919 44.0241 65.9082 43.6809Z" fill="#009296"/>
<path d="M67.0118 42.4965C66.635 42.88 66.2649 43.2703 65.9082 43.6741C66.0832 43.479 66.2649 43.2905 66.4466 43.1021C66.6283 42.907 66.8167 42.6983 67.0118 42.4965Z" fill="#009296"/>
<path d="M68.1627 41.3799C67.7724 41.7433 67.3888 42.1201 67.012 42.5037C66.8168 42.6989 66.6284 42.9075 66.4399 43.1094C66.9985 42.5104 67.5705 41.9317 68.1627 41.3799Z" fill="#009296"/>
<path d="M64.9863 44.7444C64.5892 45.2222 64.1922 45.7 63.8086 46.198C64.1922 45.7 64.5825 45.2222 64.9863 44.7444Z" fill="#009296"/>
</svg>
