<svg width="120" height="120" viewBox="0 0 120 120" fill="none" xmlns="http://www.w3.org/2000/svg">
<path d="M60 0C26.9179 0 0 26.9179 0 60C0 93.0821 26.9179 120 60 120C93.0821 120 120 93.0821 120 60C120 26.9179 93.0821 0 60 0ZM60 118.479C27.7524 118.479 1.51413 92.2409 1.51413 59.9933C1.51413 27.7456 27.7456 1.51413 60 1.51413C92.2544 1.51413 118.486 27.7524 118.486 60C118.486 92.2476 92.2476 118.479 60 118.479Z" fill="#009296"/>
<path d="M16.4869 36.1506C16.9782 36.0968 17.4223 35.942 17.8059 35.6795C18.1895 35.4238 18.6471 35.0537 19.172 34.5826C19.5489 34.2327 19.8651 33.9635 20.1074 33.7818C20.3564 33.6001 20.6121 33.479 20.8813 33.4252C21.1505 33.3713 21.4129 33.4184 21.6821 33.5799C22.0051 33.7751 22.1935 34.0577 22.2474 34.4144C22.3012 34.7778 22.2003 35.1614 21.9445 35.5786C21.6956 35.9891 21.3927 36.2448 21.0361 36.3457C20.6794 36.4467 20.3093 36.3996 19.9324 36.2044L18.7615 38.1156C19.3066 38.4386 19.8719 38.5799 20.4506 38.5396C21.0293 38.4992 21.5744 38.2906 22.0926 37.9272C22.6108 37.5638 23.0616 37.0658 23.4385 36.4467C23.8423 35.7939 24.0643 35.1546 24.1182 34.5288C24.172 33.9029 24.0643 33.3444 23.8086 32.8464C23.5529 32.3484 23.1895 31.9581 22.7117 31.662C22.1599 31.3256 21.635 31.1842 21.1303 31.2381C20.6323 31.2919 20.1814 31.4534 19.7844 31.7091C19.3941 31.9716 18.9297 32.335 18.4048 32.8128C18.0145 33.156 17.705 33.4184 17.4627 33.5934C17.2205 33.7684 16.9715 33.8828 16.7225 33.9433C16.4668 34.0039 16.2245 33.9635 15.989 33.8155C15.6525 33.6069 15.4573 33.3444 15.4035 33.0281C15.3497 32.7118 15.4371 32.3754 15.6458 32.0322C15.888 31.6351 16.1841 31.3727 16.5341 31.2515C16.884 31.1304 17.2137 31.1573 17.53 31.3256L18.7346 29.3673C17.9001 28.9366 17.0859 28.8693 16.2851 29.1721C15.4843 29.475 14.8046 30.0806 14.246 30.9958C13.8692 31.6082 13.6404 32.2139 13.5596 32.8195C13.4789 33.4252 13.5462 33.977 13.775 34.475C14.0038 34.9797 14.3806 35.3902 14.9055 35.7132C15.4641 36.0564 15.989 36.2044 16.4869 36.1506Z" fill="#009296"/>
<path d="M21.1713 24.6566L27.6181 30.5584L29.0313 29.0173L22.5845 23.1156L24.462 21.0631L23.2103 19.9258L18.0488 25.5718L19.2938 26.7091L21.1713 24.6566Z" fill="#009296"/>
<path d="M36.561 22.6176L35.5314 21.265L32.382 23.6674L30.7064 21.4736L33.4991 19.3404L32.4897 18.0281L29.6969 20.1546L28.1088 18.0752L31.2582 15.6728L30.2218 14.3202L25.417 17.9945L31.7562 26.2919L36.561 22.6176Z" fill="#009296"/>
<path d="M39.0979 21.0969L38.8489 19.0107L42.5838 17.2005L44.071 18.6877L46.0629 17.7254L38.1289 9.95959L35.9351 11.0229L37.1262 22.0592L39.0979 21.0969ZM41.3456 15.9421L38.6268 17.2611L38.0818 12.6783L41.3456 15.9421Z" fill="#009296"/>
<path d="M48.9635 17.0723L48.0281 13.1154L48.9904 12.8866L52.16 16.3119L54.5154 15.7533L51.117 12.2136C51.837 11.8301 52.3215 11.3254 52.584 10.6928C52.8464 10.0602 52.8935 9.41418 52.7388 8.74796C52.6042 8.1625 52.3417 7.67125 51.9514 7.26748C51.5611 6.86371 51.0631 6.5878 50.444 6.43975C49.8249 6.2917 49.125 6.31189 48.3377 6.50032L44.5288 7.40207L46.9245 17.5501L48.9635 17.0723ZM48.6674 8.20961C49.2193 8.08175 49.6634 8.10866 49.9931 8.30382C50.3229 8.49897 50.545 8.82872 50.6526 9.29305C50.767 9.77084 50.7132 10.1679 50.5046 10.4976C50.296 10.8274 49.9124 11.0562 49.3606 11.1908L47.658 11.5945L46.9581 8.61337L48.6674 8.20961Z" fill="#009296"/>
<path d="M57.1583 5.19998L55.0728 5.3739L55.9395 15.7681L58.0251 15.5942L57.1583 5.19998Z" fill="#009296"/>
<path d="M61.8034 14.8722C62.5639 15.3904 63.4387 15.6932 64.4347 15.774C65.6056 15.8682 66.6487 15.6596 67.5706 15.1414C68.4858 14.6233 69.1655 13.8494 69.6029 12.813L67.2072 12.6111C66.9246 13.0889 66.5612 13.4321 66.1103 13.6542C65.6594 13.8696 65.148 13.957 64.5827 13.9099C63.9771 13.8561 63.4522 13.6744 63.0013 13.3514C62.5504 13.0284 62.2207 12.5977 61.9986 12.0526C61.7765 11.5075 61.6958 10.8951 61.7563 10.2087C61.8169 9.51558 61.9986 8.91666 62.3014 8.42541C62.6042 7.93416 63.008 7.56404 63.506 7.32178C64.004 7.07951 64.5491 6.97857 65.1547 7.03241C65.72 7.07951 66.2112 7.24775 66.6217 7.53039C67.0322 7.81303 67.3351 8.21679 67.5302 8.72824L69.9259 8.93012C69.6635 7.84667 69.1251 6.97184 68.2974 6.30562C67.4697 5.63941 66.4804 5.25583 65.323 5.15488C64.327 5.07413 63.4185 5.22218 62.5773 5.60576C61.7429 5.98934 61.0565 6.56807 60.5316 7.34196C59.9999 8.10912 59.6971 9.01087 59.6096 10.0338C59.5221 11.0566 59.6769 11.992 60.074 12.8332C60.4643 13.6744 61.043 14.3541 61.8034 14.8722Z" fill="#009296"/>
<path d="M76.5947 16.3257L80.4238 17.9408L80.2825 20.0404L82.3215 20.9018L82.9272 9.82508L80.6863 8.87622L73.1694 17.0391L75.195 17.8937L76.5947 16.3257ZM80.8545 11.5747L80.5449 16.1777L77.7657 15L80.8545 11.5747Z" fill="#009296"/>
<path d="M86.8167 24.2732C87.7588 24.973 88.7547 25.3499 89.8113 25.3902C90.8611 25.4374 91.8503 25.1345 92.7655 24.4885L90.8341 23.0551C90.3429 23.3108 89.8516 23.4118 89.3537 23.3579C88.8557 23.3041 88.3779 23.109 87.9203 22.7657C87.4358 22.4024 87.0858 21.9649 86.8705 21.4535C86.6619 20.9421 86.608 20.397 86.7023 19.825C86.8032 19.2462 87.0589 18.681 87.4694 18.1359C87.8866 17.5773 88.351 17.1668 88.8759 16.9111C89.394 16.6554 89.9324 16.5477 90.4775 16.6083C91.0293 16.6621 91.5475 16.8707 92.032 17.2341C92.4896 17.5706 92.8126 17.9744 93.0145 18.432C93.2164 18.8896 93.2635 19.3876 93.1558 19.9326L95.0872 21.366C95.4371 20.3095 95.4371 19.2799 95.0939 18.2772C94.7507 17.2745 94.1047 16.4266 93.1693 15.7334C92.3685 15.1413 91.5138 14.7846 90.5986 14.6702C89.6834 14.5558 88.8019 14.6836 87.9472 15.0605C87.0926 15.4373 86.3591 16.0363 85.7467 16.8573C85.1343 17.6783 84.7709 18.5531 84.6632 19.475C84.5556 20.397 84.6834 21.2785 85.0603 22.1264C85.4304 22.9609 86.0158 23.681 86.8167 24.2732Z" fill="#009296"/>
<path d="M99.1473 21.0728L91.6143 28.2877L93.0619 29.7992L100.595 22.5843L99.1473 21.0728Z" fill="#009296"/>
<path d="M96.3863 33.9162C97.0054 34.818 97.7321 35.4909 98.5599 35.9283C99.3876 36.3657 100.249 36.5542 101.151 36.4802C102.052 36.4061 102.934 36.0764 103.795 35.4842C104.657 34.892 105.283 34.1787 105.68 33.3577C106.077 32.5367 106.211 31.6618 106.09 30.7332C105.969 29.8045 105.599 28.8893 104.973 27.9876L102.9 24.9862L94.3203 30.9149L96.3863 33.9162ZM102.631 27.7116L103.472 28.9297C104.092 29.8314 104.327 30.6995 104.159 31.5407C103.997 32.3819 103.466 33.1087 102.571 33.7278C101.676 34.3469 100.814 34.5757 99.9865 34.4277C99.1588 34.2729 98.4253 33.748 97.8062 32.8462L96.965 31.6282L102.631 27.7116Z" fill="#009296"/>
<path d="M21.4941 88.9638C21.3191 88.4726 21.198 88.089 21.1239 87.7996C21.0566 87.5103 21.0364 87.2411 21.0768 86.9787C21.1172 86.7162 21.2451 86.5076 21.4739 86.3461C21.7969 86.1105 22.1132 86.0298 22.4227 86.0971C22.7323 86.1711 23.0149 86.3663 23.2572 86.696C23.5331 87.0729 23.6677 87.443 23.6475 87.8131C23.6273 88.1832 23.4792 88.4793 23.2033 88.7081L24.5694 90.5587C25.2827 89.9463 25.6461 89.2128 25.6663 88.3649C25.6865 87.517 25.377 86.6556 24.7377 85.7875C24.3137 85.2088 23.8359 84.7714 23.3043 84.4686C22.7727 84.1657 22.2343 84.0244 21.6825 84.0513C21.1307 84.0782 20.6058 84.2734 20.1078 84.6368C19.5762 85.0271 19.2464 85.4645 19.1118 85.9423C18.9772 86.4201 18.957 86.8844 19.0513 87.342C19.1455 87.7996 19.3137 88.3582 19.556 89.0177C19.7377 89.5022 19.8723 89.8925 19.9463 90.1886C20.0203 90.4847 20.0405 90.7673 19.9867 91.0365C19.9395 91.3057 19.7915 91.5345 19.5425 91.7162C19.2397 91.9383 18.9099 92.0123 18.5533 91.9248C18.1966 91.8373 17.8803 91.6018 17.5842 91.2115C17.3016 90.8279 17.1737 90.4511 17.2141 90.0809C17.2545 89.7108 17.4362 89.3878 17.7592 89.1119L16.4268 87.3084C15.922 87.6987 15.5788 88.163 15.4039 88.7149C15.2289 89.2667 15.2155 89.8521 15.3635 90.4645C15.5116 91.0836 15.8009 91.6826 16.2316 92.268C16.6892 92.8871 17.1939 93.3313 17.7525 93.6139C18.311 93.8966 18.8696 94.0042 19.4281 93.9571C19.9867 93.9033 20.4846 93.7149 20.9355 93.3851C21.4537 93.0015 21.7834 92.5641 21.9247 92.0796C22.0593 91.5951 22.0795 91.1173 21.9853 90.6597C21.9046 90.1886 21.7363 89.6233 21.4941 88.9638Z" fill="#009296"/>
<path d="M31.7095 95.8613L32.8602 94.6298L27.2815 89.401L26.1308 90.6325L28.1563 92.5302L22.1738 98.903L23.7014 100.336L29.6839 93.9636L31.7095 95.8613Z" fill="#009296"/>
<path d="M34.9863 103.183L35.9015 101.797L32.9742 99.8654L34.4143 97.6783L37.7184 99.8654L38.6538 98.4388L33.6067 95.1077L27.853 103.822L32.9001 107.153L33.8355 105.734L30.5314 103.553L32.0589 101.245L34.9863 103.183Z" fill="#009296"/>
<path d="M35.0405 108.493L37.0728 109.334L38.4658 107.759L42.3016 109.347L42.1805 111.447L44.2263 112.288L44.7444 101.205L42.4968 100.276L35.0405 108.493ZM42.416 107.577L39.6233 106.427L42.6852 102.968L42.416 107.577Z" fill="#009296"/>
<path d="M54.6431 104.199C54.1384 103.816 53.4856 103.553 52.6915 103.412L48.8423 102.705L46.958 112.954L49.0172 113.331L49.7507 109.334L50.7198 109.509L52.2474 113.923L54.6296 114.361L52.9405 109.751C53.7548 109.684 54.4008 109.421 54.8921 108.95C55.3833 108.479 55.6929 107.907 55.814 107.228C55.9217 106.642 55.8813 106.084 55.6861 105.559C55.4977 105.034 55.1478 104.576 54.6431 104.199ZM53.6942 106.884C53.6067 107.362 53.3981 107.712 53.0751 107.934C52.7521 108.156 52.3079 108.21 51.7494 108.109L50.0334 107.793L50.5852 104.778L52.3012 105.094C52.8598 105.195 53.2501 105.404 53.4789 105.714C53.7077 106.03 53.7817 106.413 53.6942 106.884Z" fill="#009296"/>
<path d="M57.8296 104.033L57.354 114.453L59.4448 114.549L59.9204 104.129L57.8296 104.033Z" fill="#009296"/>
<path d="M68.4992 111.837C68.0954 112.14 67.6176 112.322 67.0524 112.389C66.4467 112.463 65.8949 112.382 65.3902 112.153C64.8855 111.925 64.475 111.568 64.152 111.083C63.8289 110.592 63.6271 110.007 63.5463 109.327C63.4655 108.634 63.5261 108.015 63.728 107.47C63.9299 106.925 64.2462 106.487 64.6836 106.144C65.121 105.808 65.6392 105.606 66.2448 105.532C66.8101 105.464 67.3215 105.532 67.7791 105.727C68.2367 105.922 68.6136 106.258 68.9097 106.723L71.2987 106.44C70.8276 105.431 70.1277 104.684 69.1856 104.193C68.2435 103.701 67.1937 103.526 66.0362 103.661C65.047 103.775 64.1789 104.105 63.4386 104.65C62.6984 105.195 62.1398 105.895 61.7764 106.756C61.4131 107.618 61.2919 108.553 61.4063 109.576C61.5207 110.599 61.8639 111.481 62.4157 112.228C62.9676 112.974 63.6742 113.526 64.5221 113.883C65.37 114.24 66.2919 114.361 67.2812 114.246C68.4454 114.112 69.4279 113.695 70.2287 113.001C71.0227 112.308 71.5342 111.42 71.7563 110.316L69.3673 110.599C69.1856 111.124 68.8962 111.534 68.4992 111.837Z" fill="#009296"/>
<path d="M77.7925 100.734L78.6269 111.797L80.6323 110.902L80.4506 108.809L84.246 107.113L85.6862 108.647L87.705 107.746L80.0267 99.7375L77.7925 100.734ZM80.2824 107.052L79.8786 102.456L83.0347 105.821L80.2824 107.052Z" fill="#009296"/>
<path d="M94.0242 99.2123C94.1319 99.7574 94.0915 100.255 93.9031 100.72C93.7079 101.184 93.3849 101.588 92.934 101.931C92.4495 102.294 91.9313 102.51 91.3862 102.57C90.8412 102.631 90.3028 102.53 89.7712 102.274C89.2463 102.018 88.7752 101.615 88.358 101.063C87.9407 100.504 87.6783 99.9458 87.5706 99.3738C87.4697 98.8018 87.5168 98.2567 87.7254 97.7453C87.934 97.2338 88.2772 96.7964 88.7617 96.4263C89.2126 96.0831 89.6904 95.8812 90.1817 95.8206C90.6796 95.7601 91.1709 95.8543 91.6621 96.1033L93.58 94.6497C92.6648 94.0171 91.6756 93.7278 90.6191 93.7816C89.5626 93.8354 88.5666 94.2123 87.6379 94.9121C86.8438 95.5111 86.2651 96.2379 85.895 97.079C85.5316 97.927 85.4037 98.8085 85.5249 99.7372C85.646 100.666 86.0161 101.534 86.6352 102.355C87.2543 103.176 87.9946 103.761 88.8492 104.125C89.7039 104.488 90.5922 104.609 91.5006 104.488C92.4158 104.367 93.2638 104.004 94.0578 103.405C94.9932 102.698 95.6325 101.844 95.969 100.841C96.3055 99.8449 96.292 98.8152 95.9286 97.752L94.0242 99.2123Z" fill="#009296"/>
<path d="M93.7585 89.5299L92.3115 91.042L99.8477 98.2538L101.295 96.7417L93.7585 89.5299Z" fill="#009296"/>
<path d="M106.265 86.2047C105.888 85.3837 105.269 84.6771 104.408 84.0714C103.553 83.4725 102.672 83.1293 101.763 83.0418C100.855 82.9611 99.9866 83.136 99.1589 83.5667C98.3311 84.0041 97.6043 84.6704 96.9718 85.5654L94.8789 88.5465L103.419 94.5358L105.511 91.5479C106.137 90.6529 106.521 89.7377 106.642 88.8157C106.77 87.9005 106.649 87.0257 106.265 86.2047ZM104.011 90.6058L103.163 91.8171L97.5236 87.8601L98.3715 86.6488C98.9973 85.7538 99.7376 85.2356 100.579 85.0943C101.427 84.9597 102.288 85.202 103.176 85.8211C104.065 86.4469 104.583 87.1737 104.731 88.0082C104.886 88.8426 104.643 89.704 104.011 90.6058Z" fill="#009296"/>
<path d="M40.4441 56.7229C40.047 56.2653 39.3472 56.2115 38.8828 56.6018C38.8761 56.6085 38.2839 57.0998 37.4831 57.0998C37.1332 57.0998 36.7294 56.5009 36.5881 56.1778C36.3526 55.6193 35.7065 55.3501 35.1413 55.5856C34.576 55.8212 34.3068 56.4672 34.5423 57.0325C34.6365 57.268 35.545 59.3205 37.4831 59.3205C39.1116 59.3205 40.2153 58.3851 40.3364 58.2774C40.8007 57.8737 40.8411 57.1805 40.4441 56.7229Z" fill="#009296"/>
<path d="M35.7338 60.5924C34.5763 59.6435 33.2439 59.6637 33.0959 59.6637C32.5373 59.6839 32.1066 60.1483 32.1134 60.7068C32.1268 61.2653 32.5844 61.7028 33.1362 61.7028C33.143 61.7028 33.143 61.7028 33.1497 61.7028C33.1901 61.7028 33.8698 61.7028 34.435 62.1671C34.684 62.369 34.6167 63.0352 34.5292 63.3448C34.3677 63.8831 34.6706 64.4484 35.2089 64.6166C35.3099 64.6435 35.4108 64.6637 35.505 64.6637C35.9424 64.6637 36.3462 64.3811 36.4808 63.9437C36.5548 63.7149 37.1134 61.7297 35.7338 60.5924Z" fill="#009296"/>
<path d="M40.9151 59.6903C40.9084 59.6903 40.8949 59.6903 40.8882 59.6903C40.6527 59.697 38.5935 59.798 37.9542 61.4602C37.4158 62.8599 37.8532 64.1183 37.9071 64.2596C38.0618 64.6701 38.4454 64.9191 38.8559 64.9191C38.9703 64.9191 39.0914 64.8989 39.2059 64.8585C39.7307 64.6701 40.0067 64.0847 39.825 63.5598C39.825 63.553 39.5962 62.8801 39.8586 62.1937C39.973 61.8908 40.6258 61.7428 40.9488 61.7293C41.5073 61.7091 41.9515 61.2448 41.938 60.6863C41.9178 60.1345 41.467 59.6903 40.9151 59.6903Z" fill="#009296"/>
<path d="M88.7284 57.362C88.3179 56.9852 87.8939 56.6218 87.4498 56.2719C87.4498 56.2651 87.4565 56.2651 87.4565 56.2584L87.4632 56.2651C88.1429 54.9865 88.5399 53.5666 88.5399 52.0928C88.5399 48.5531 87.6449 47.1467 86.1577 44.8116C85.976 44.5222 85.7741 44.2126 85.5723 43.8829C84.6032 42.3351 83.9437 41.0094 83.1766 39.4751C82.8333 38.7954 82.47 38.0686 82.0527 37.2611C81.9787 37.1198 81.9047 36.9448 81.8172 36.7564C81.2856 35.572 80.3973 33.5868 78.4928 33.5868H78.1766C76.2721 33.5868 75.3838 35.572 74.8522 36.7564C74.7647 36.9515 74.6907 37.1265 74.6167 37.2611C74.1994 38.0686 73.836 38.7954 73.4928 39.4751C72.7257 41.0094 72.0662 42.3284 71.0971 43.8829C70.8885 44.2126 70.6934 44.5222 70.5117 44.8116C69.3004 46.7093 68.4861 47.9946 68.2237 50.3095C68.2169 50.3095 68.2102 50.3095 68.2035 50.3095C66.6153 50.3634 65.0945 50.5383 63.6476 50.8344C59.6032 45.4374 52.692 42.1265 45.2896 42.1265C33.1698 42.1265 23.3179 50.8008 23.3179 61.467C23.3179 72.1332 33.1766 80.8075 45.2896 80.8075C49.3542 80.8075 53.2775 79.825 56.7163 77.9811L56.7095 77.9744C56.7095 77.9744 56.7095 77.9744 56.7163 77.9744C59.8657 81.0027 64.0312 83.1023 68.6813 83.9704C70.256 84.2665 71.8307 84.4078 73.3784 84.4078C77.295 84.4078 81.0702 83.4791 84.3273 81.6824C88.937 79.1453 91.9518 75.1682 92.8334 70.4778C92.941 69.8856 93.1227 68.3513 93.1564 68.1898C93.8428 64.502 92.2748 60.6595 88.7284 57.362ZM70.256 50.3163C70.4982 48.607 71.1308 47.611 72.221 45.9085C72.4094 45.6124 72.6045 45.3028 72.8199 44.9663C73.836 43.3378 74.5157 41.9717 75.3031 40.397C75.6395 39.7241 75.9962 39.004 76.4134 38.2099C76.5009 38.0417 76.5951 37.8331 76.7028 37.5976C77.0124 36.9112 77.5844 35.6326 78.1631 35.6326H78.4794C79.0648 35.6326 79.6368 36.9112 79.9397 37.5976C80.0473 37.8331 80.1416 38.0417 80.229 38.2099C80.6463 39.0107 81.0029 39.7241 81.3394 40.397C82.1268 41.9717 82.8064 43.3378 83.8226 44.9663C84.0312 45.3028 84.2331 45.6191 84.4215 45.9152C85.8347 48.1426 86.4875 49.1588 86.4875 52.1063C86.4875 53.1494 86.2385 54.1521 85.7943 55.074C85.5117 55.6595 85.155 56.218 84.7311 56.7227C84.7378 56.7227 84.7378 56.7295 84.7445 56.7295C84.7378 56.7295 84.7311 56.7227 84.7243 56.7227C84.2331 57.3149 83.6543 57.8398 83.0083 58.2705C82.3152 58.7348 81.5547 59.0982 80.7472 59.3338L80.7136 59.3472C80.0272 59.5491 79.3475 59.6568 78.614 59.6568C78.3919 59.6568 78.3448 59.677 78.0622 59.6568C75.7607 59.6568 73.614 58.5935 72.1402 56.9784C72.0998 56.9717 72.0998 56.965 72.1335 56.9717C71.5682 56.3459 71.0971 55.646 70.7607 54.8788C70.3973 54.0646 70.1887 53.183 70.1685 52.2813H70.1617C70.1617 52.2207 70.155 52.1601 70.155 52.0928C70.155 51.4064 70.1887 50.8344 70.256 50.3163C70.2627 50.3163 70.2627 50.3163 70.256 50.3163ZM69.4888 56.8035C69.4955 56.8035 69.4955 56.8102 69.4955 56.8102C69.4955 56.8102 69.4955 56.8102 69.5023 56.8102C71.2654 59.6702 74.5157 61.5949 78.0622 61.6958C78.3583 61.7025 78.5669 61.6958 78.5938 61.6958C80.1685 61.6958 81.6893 61.292 83.042 60.5989C85.8953 62.4293 87.5507 64.6635 87.1739 66.7025C87.1469 66.8573 87.0056 67.214 86.8508 67.5706C86.1846 68.8627 84.6301 69.9327 82.4094 70.5922C79.4282 71.4737 75.6395 71.5612 71.7499 70.8344C67.8603 70.1077 64.3609 68.6608 61.898 66.7564C59.98 65.2759 58.8966 63.6339 58.8159 62.1467L58.7957 62.14C58.8091 61.8035 58.8293 61.5074 58.8495 61.4132C59.1591 59.751 60.8953 58.3378 63.614 57.5303C65.2627 57.039 67.1469 56.7968 69.1658 56.7968C69.2735 56.7968 69.3811 56.8035 69.4888 56.8035ZM63.6543 50.8412C63.6611 50.8479 63.6678 50.8614 63.6745 50.8681C63.6678 50.8614 63.6543 50.8546 63.6543 50.8412C63.6409 50.8479 63.6342 50.8479 63.6274 50.8546C63.6342 50.8479 63.6409 50.8412 63.6543 50.8412ZM55.3098 76.4939C52.2748 78.0282 48.836 78.8358 45.2896 78.8358C34.26 78.8358 25.2896 71.043 25.2896 61.467C25.2896 51.891 34.26 44.0982 45.2896 44.0982C51.7768 44.0982 57.8199 46.8506 61.5548 51.3728C61.5615 51.3728 61.5749 51.3728 61.5817 51.3728C61.5749 51.3728 61.5615 51.3795 61.5548 51.3795C61.5548 51.3795 61.5548 51.3728 61.548 51.3728C56.3192 52.9542 52.5507 56.1844 51.7499 60.4509C51.7364 60.5316 51.7297 60.5989 51.7163 60.6797C51.5951 61.1036 51.4403 61.9044 51.299 62.6312C50.4175 67.3284 51.7499 72.1332 55.0406 76.1642C55.1281 76.2719 55.2223 76.3795 55.3165 76.4872L55.3098 76.4939ZM83.3717 79.9663C79.2264 82.2544 74.1389 82.9946 69.0379 82.039C63.9639 81.0902 59.5359 78.5599 56.5615 74.9192C54.7109 72.6514 53.5601 70.1211 53.1631 67.5235C53.1564 67.5101 53.1496 67.4966 53.1362 67.4832C53.1429 67.4966 53.1564 67.5101 53.1631 67.5235V67.5303C55.9424 72.3082 62.1873 76.3593 69.9329 77.8062C71.9181 78.1763 73.8966 78.358 75.8212 78.358C79.1792 78.358 82.3623 77.7994 85.1281 76.6958C86.7499 76.0498 88.1564 75.2355 89.3206 74.3001C88.0016 76.5814 85.976 78.533 83.3717 79.9663ZM91.225 67.8331C91.1914 68.0282 91.0971 68.4118 91.0971 68.4118C90.3502 71.1507 87.9949 73.4253 84.4013 74.8654C80.404 76.4603 75.3973 76.8169 70.3098 75.8681C60.1416 73.9704 53.015 66.1171 53.6476 61.1507C54.2802 56.1844 60.5992 52.5303 68.1227 52.2745V52.2813C68.1362 52.2813 68.1429 52.288 68.1564 52.288C68.1496 52.288 68.1362 52.288 68.1294 52.288C68.1496 53.1628 68.2977 54.0175 68.5669 54.8317C68.5669 54.8317 68.5669 54.8317 68.5601 54.8317C66.5749 54.8788 64.7041 55.148 63.0487 55.6326C59.5426 56.6689 57.3623 58.5935 56.9047 61.0431C56.8576 61.2786 56.8374 61.5208 56.8239 61.7564L56.8307 61.7631C56.7297 63.9973 58.0689 66.2988 60.6799 68.3109C63.3852 70.4038 67.1873 71.9852 71.3798 72.7658C73.2371 73.1157 75.0877 73.284 76.8508 73.284C79.0648 73.284 81.1443 73.0148 82.9679 72.4697C86.0231 71.5612 88.0689 69.9865 88.8495 67.9744H88.8562C88.9706 67.6783 89.0581 67.3822 89.112 67.0659C89.6099 64.4011 87.9343 61.6487 84.8387 59.428L84.832 59.4212C84.8387 59.4212 84.8387 59.428 84.8455 59.428C85.3973 58.9771 85.902 58.4724 86.3529 57.9273C86.723 58.2099 87.0729 58.506 87.3959 58.8089C90.4242 61.6285 91.7836 64.8385 91.225 67.8331Z" fill="#009296"/>
<path d="M83.2908 51.9579C82.7457 51.9378 82.2612 52.3752 82.2343 52.9337C82.2343 52.9404 82.2074 53.1087 82.2074 53.1087C82.1737 53.2904 82.0862 53.6067 81.8978 53.9768L81.9113 53.9633L81.8978 53.9835C81.7565 54.2527 81.5681 54.5488 81.2854 54.8449C81.2787 54.8449 81.272 54.8449 81.272 54.8516C80.7538 55.39 80.0809 55.6524 79.4887 55.7736C78.7417 55.9351 78.1226 55.8745 78.1024 55.8745C77.8736 55.8476 77.7053 55.8745 77.5304 55.9822C77.5237 55.9822 77.4698 56.0091 77.4631 56.0091C77.1939 56.1639 77.0055 56.4398 76.9718 56.7695C76.9113 57.3281 77.315 57.8328 77.8736 57.8933C78.3581 57.927 79.8251 57.7857 80.9893 57.3684C81.8776 57.0454 82.5438 56.4667 82.7525 56.2446C82.9072 56.0898 83.0351 55.9351 83.1562 55.7803C83.1697 55.7668 83.1697 55.7668 83.1831 55.7466C83.6744 55.1141 84.0311 54.2123 84.0782 54.0374C84.0984 53.9633 84.4012 53.2365 84.28 52.7453C84.1522 52.1935 83.6071 51.9714 83.2908 51.9579Z" fill="#009296"/>
</svg>
