<svg width="120" height="120" viewBox="0 0 120 120" fill="none" xmlns="http://www.w3.org/2000/svg">
<path d="M60 0C26.9179 0 0 26.9179 0 60C0 93.0821 26.9179 120 60 120C93.0821 120 120 93.0821 120 60C119.993 26.9112 93.0821 0 60 0ZM60 118.479C27.7524 118.479 1.51413 92.2409 1.51413 59.9933C1.51413 27.7456 27.7524 1.5074 60 1.5074C92.2476 1.5074 118.486 27.7456 118.486 59.9933C118.479 92.2477 92.2476 118.479 60 118.479Z" fill="#009296"/>
<path d="M25.9288 21.3322C26.3393 21.8504 26.7835 22.1667 27.2612 22.2878C27.7458 22.4089 28.2101 22.4157 28.661 22.3013C29.1119 22.1936 29.6704 22.0052 30.3232 21.7427C30.8009 21.5408 31.1845 21.3995 31.4806 21.3188C31.7767 21.2313 32.0594 21.2111 32.3285 21.2515C32.5977 21.2918 32.8333 21.4332 33.0217 21.6754C33.2572 21.9715 33.338 22.3013 33.2639 22.6579C33.1899 23.0146 32.9611 23.3443 32.5775 23.6472C32.2007 23.9433 31.8306 24.0778 31.4604 24.0509C31.0903 24.024 30.7606 23.8558 30.4712 23.5328L28.7081 24.919C29.1119 25.417 29.5896 25.74 30.1482 25.8948C30.7067 26.0563 31.2855 26.0496 31.8979 25.8813C32.5102 25.7131 33.1024 25.4103 33.6744 24.9594C34.2734 24.4816 34.7108 23.9634 34.9732 23.3914C35.2357 22.8194 35.3299 22.2609 35.2626 21.7091C35.1953 21.1573 34.9867 20.6593 34.6435 20.2219C34.2397 19.7104 33.7956 19.4009 33.311 19.2797C32.8265 19.1586 32.3487 19.1519 31.8911 19.2595C31.4335 19.3672 30.875 19.5556 30.2155 19.8181C29.731 20.0065 29.3474 20.1478 29.0647 20.2219C28.7821 20.3026 28.5062 20.3228 28.2505 20.2959C27.9948 20.269 27.7727 20.1411 27.6044 19.919C27.3555 19.6095 27.268 19.2932 27.3285 18.9769C27.3891 18.6606 27.5843 18.378 27.9005 18.1223C28.2707 17.8329 28.6341 17.6916 29.0042 17.6983C29.3743 17.705 29.6771 17.8464 29.9127 18.1155L31.7162 16.6889C31.0836 15.9958 30.3366 15.6525 29.4887 15.6593C28.6341 15.666 27.7861 16.0025 26.945 16.6687C26.3797 17.1128 25.9557 17.6041 25.6731 18.1425C25.3837 18.6808 25.2626 19.2259 25.303 19.771C25.3299 20.3295 25.5452 20.8477 25.9288 21.3322Z" fill="#009296"/>
<path d="M37.2883 20.0676C37.8872 20.4579 38.5399 20.6463 39.2465 20.6463C39.9531 20.6463 40.653 20.4714 41.3461 20.1282C42.0527 19.7782 42.6247 19.3273 43.0622 18.7621C43.4996 18.2035 43.762 17.5642 43.8293 16.8442C43.8966 16.1241 43.7418 15.3704 43.3515 14.5696L40.505 8.79572L38.614 9.72438L41.4673 15.5117C41.7768 16.1443 41.8508 16.7096 41.6893 17.2076C41.5211 17.7055 41.1375 18.1026 40.5319 18.4054C39.9329 18.7015 39.3879 18.7621 38.8899 18.5871C38.3919 18.4121 37.9881 18.0151 37.6786 17.3758L34.8253 11.5884L32.9478 12.5171L35.7943 18.291C36.1914 19.0918 36.6893 19.684 37.2883 20.0676Z" fill="#009296"/>
<path d="M46.097 15.1552C46.7228 15.8416 47.4833 16.3194 48.3648 16.5818C49.2464 16.851 50.1751 16.8712 51.1441 16.6559C52.2881 16.4001 53.2235 15.882 53.9436 15.1148C54.6636 14.3476 55.0808 13.4055 55.1818 12.2884L52.8332 12.8133C52.7121 13.3517 52.4631 13.7958 52.0997 14.1323C51.7296 14.4755 51.272 14.711 50.7201 14.8322C50.1279 14.9668 49.5694 14.9466 49.0445 14.7716C48.5196 14.5966 48.0755 14.2871 47.6986 13.8362C47.3285 13.3853 47.066 12.8201 46.9113 12.1538C46.7565 11.4742 46.7565 10.855 46.8978 10.2898C47.0391 9.72449 47.315 9.25343 47.7121 8.87658C48.1091 8.493 48.6071 8.23728 49.1993 8.10269C49.7511 7.98156 50.2693 7.98829 50.7471 8.13634C51.2249 8.28439 51.6354 8.57375 51.9786 9.01117L54.3271 8.48627C53.7551 7.53068 52.9745 6.85774 51.992 6.46743C51.0095 6.07712 49.9463 6.00982 48.809 6.26554C47.8399 6.48089 47.0122 6.90484 46.3258 7.51723C45.6394 8.13634 45.1616 8.89004 44.8924 9.78506C44.6165 10.6801 44.5963 11.6222 44.8184 12.6249C45.0405 13.6276 45.4644 14.4688 46.097 15.1552Z" fill="#009296"/>
<path d="M59.2662 11.4534L60.2487 11.4602L62.5232 15.5382L64.9458 15.5517L62.4761 11.3121C63.2635 11.1102 63.8624 10.7266 64.2594 10.1816C64.6632 9.62974 64.8651 9.01063 64.8651 8.32422C64.8651 7.7253 64.7305 7.18694 64.4479 6.70242C64.1652 6.21789 63.7413 5.83431 63.176 5.54495C62.6107 5.25558 61.9243 5.11426 61.1168 5.10753L57.2002 5.08734L57.1396 15.518L59.2325 15.5315L59.2662 11.4534ZM59.2931 6.82355L61.0427 6.83028C61.608 6.83028 62.032 6.97159 62.3079 7.23404C62.5838 7.49649 62.7251 7.87334 62.7184 8.35114C62.7184 8.84239 62.5771 9.21924 62.2944 9.48842C62.0118 9.76433 61.5878 9.89219 61.0226 9.89219L59.2729 9.87873L59.2931 6.82355Z" fill="#009296"/>
<path d="M68.4186 15.5319C69.105 16.1645 69.926 16.5951 70.8749 16.8239C71.8237 17.046 72.7524 17.0326 73.6474 16.7768C74.5492 16.5211 75.3231 16.0501 75.9691 15.3704C76.6151 14.6907 77.0593 13.8495 77.3015 12.8535C77.5371 11.8643 77.5169 10.9222 77.2477 10.0204C76.9785 9.11869 76.5007 8.35826 75.8143 7.71896C75.1279 7.08639 74.3069 6.6557 73.3513 6.4269C72.4025 6.1981 71.4738 6.21829 70.5788 6.47401C69.677 6.72973 68.9031 7.20079 68.2504 7.87374C67.5976 8.55342 67.1535 9.38787 66.918 10.3704C66.6824 11.3663 66.6959 12.3152 66.9785 13.2169C67.2477 14.1322 67.7322 14.8993 68.4186 15.5319ZM69.0041 10.8818C69.1656 10.2021 69.4348 9.64359 69.8184 9.19272C70.2019 8.74857 70.6595 8.44574 71.1912 8.28424C71.7228 8.12273 72.3015 8.116 72.9072 8.26405C73.5196 8.4121 74.0243 8.67455 74.4213 9.05813C74.8184 9.44171 75.0943 9.9195 75.2356 10.4848C75.3769 11.0568 75.3634 11.6826 75.2019 12.3623C75.0404 13.042 74.7645 13.6073 74.3809 14.0581C73.9974 14.509 73.5398 14.8186 73.0081 14.9801C72.4765 15.1483 71.9045 15.155 71.2988 15.007C70.6865 14.8589 70.1817 14.5965 69.778 14.2062C69.3742 13.8159 69.105 13.3381 68.9637 12.7593C68.8224 12.1806 68.8426 11.5615 69.0041 10.8818Z" fill="#009296"/>
<path d="M78.5596 18.9837C78.9701 19.4682 79.5018 19.8653 80.1545 20.1883C80.8409 20.5315 81.5004 20.693 82.1263 20.693C82.7521 20.6863 83.2972 20.5315 83.7683 20.2354C84.2393 19.9326 84.596 19.5355 84.845 19.0376C85.1343 18.4588 85.2286 17.9205 85.1276 17.4292C85.0267 16.938 84.8315 16.5005 84.5354 16.1372C84.2393 15.7738 83.8356 15.3431 83.3174 14.8653C82.9405 14.5086 82.6512 14.2193 82.456 13.9972C82.2609 13.7751 82.1195 13.5396 82.0388 13.2906C81.958 13.0416 81.9782 12.7926 82.0994 12.5436C82.2743 12.1869 82.5166 11.9716 82.8329 11.8909C83.1491 11.8101 83.4856 11.8639 83.849 12.0456C84.2662 12.2542 84.5556 12.5234 84.7037 12.8599C84.8517 13.1964 84.8584 13.5261 84.7171 13.8559L86.7763 14.8787C87.133 14.0106 87.1195 13.1896 86.7494 12.4225C86.3793 11.6553 85.7131 11.0362 84.7508 10.5517C84.1115 10.2354 83.4856 10.0604 82.8732 10.0335C82.2676 10.0066 81.7225 10.1277 81.238 10.3969C80.7602 10.6728 80.3833 11.0833 80.1074 11.6351C79.8181 12.2273 79.7171 12.759 79.8181 13.2502C79.9123 13.7347 80.1074 14.1654 80.4035 14.5221C80.6929 14.8855 81.1034 15.3027 81.6216 15.7805C82.0051 16.1237 82.3012 16.4131 82.5031 16.6419C82.705 16.8707 82.8463 17.1197 82.9271 17.3754C83.0078 17.6378 82.9809 17.907 82.8463 18.1829C82.6781 18.5194 82.4156 18.7347 82.0657 18.8222C81.709 18.9097 81.3187 18.8424 80.8813 18.6271C80.4506 18.4117 80.1747 18.1358 80.0334 17.7926C79.8988 17.4494 79.9123 17.0793 80.0738 16.6822L78.0684 15.6863C77.7925 16.265 77.705 16.837 77.7992 17.4023C77.8934 17.981 78.1491 18.5059 78.5596 18.9837Z" fill="#009296"/>
<path d="M89.4551 26.1375L90.4712 24.7782L87.3084 22.4027L88.9638 20.1887L91.7768 22.3017L92.7727 20.9693L89.9598 18.863L91.5345 16.7768L94.6974 19.1523L95.7202 17.7862L90.8817 14.1591L84.6099 22.5103L89.4551 26.1375Z" fill="#009296"/>
<path d="M36.9179 101.373C37.2477 100.31 37.2275 99.28 36.8574 98.2908C36.494 97.2948 35.8345 96.4604 34.8856 95.7807C34.0714 95.2019 33.21 94.8655 32.2948 94.7713C31.3796 94.677 30.498 94.8251 29.6501 95.2154C28.8022 95.6057 28.0821 96.2248 27.4832 97.0593C26.891 97.8937 26.5478 98.7753 26.4536 99.704C26.3594 100.633 26.5142 101.507 26.9045 102.342C27.2948 103.176 27.8937 103.883 28.708 104.462C29.6635 105.141 30.673 105.498 31.7228 105.518C32.7726 105.538 33.7551 105.222 34.6568 104.556L32.6985 103.163C32.214 103.432 31.7228 103.54 31.2248 103.499C30.7268 103.459 30.2423 103.271 29.7779 102.941C29.28 102.591 28.9233 102.16 28.708 101.656C28.4859 101.151 28.4186 100.606 28.5128 100.027C28.607 99.4482 28.8426 98.8762 29.2463 98.3177C29.6501 97.7524 30.1144 97.3285 30.6259 97.066C31.1373 96.7968 31.6757 96.6824 32.2207 96.7295C32.7726 96.7699 33.2907 96.9718 33.7887 97.3217C34.253 97.6515 34.5895 98.0418 34.7981 98.4994C35.0068 98.957 35.0606 99.455 34.9664 100L36.9179 101.373Z" fill="#009296"/>
<path d="M46.4066 102.449C45.8212 101.723 45.0742 101.178 44.159 100.814C43.2505 100.451 42.3353 100.336 41.4066 100.458C40.478 100.579 39.6435 100.929 38.8965 101.507C38.1496 102.086 37.591 102.846 37.2142 103.789C36.8373 104.744 36.7162 105.686 36.8575 106.615C36.9988 107.544 37.3689 108.378 37.9544 109.105C38.5399 109.832 39.2936 110.377 40.1953 110.74C41.0971 111.104 42.019 111.218 42.9477 111.097C43.8763 110.976 44.7108 110.626 45.451 110.047C46.1913 109.468 46.7498 108.701 47.1334 107.752C47.5103 106.81 47.6314 105.875 47.4901 104.946C47.3487 104.017 46.9921 103.176 46.4066 102.449ZM45.1348 106.945C44.879 107.591 44.5224 108.109 44.0782 108.499C43.6341 108.89 43.1361 109.125 42.5843 109.213C42.0325 109.3 41.4672 109.226 40.8885 108.99C40.3097 108.755 39.8454 108.418 39.5022 107.981C39.159 107.537 38.9571 107.025 38.9033 106.433C38.8494 105.841 38.9504 105.222 39.2128 104.576C39.4685 103.93 39.8252 103.412 40.2626 103.028C40.7 102.645 41.2047 102.409 41.7566 102.328C42.3084 102.248 42.8736 102.328 43.4591 102.557C44.0446 102.793 44.5022 103.122 44.8454 103.56C45.1886 103.997 45.3837 104.509 45.4376 105.094C45.4914 105.68 45.3905 106.299 45.1348 106.945Z" fill="#009296"/>
<path d="M51.2723 106.648C51.6087 106.171 52.026 105.827 52.5374 105.612C53.0421 105.397 53.6007 105.329 54.1996 105.417C54.7581 105.498 55.2426 105.686 55.633 105.996C56.0233 106.305 56.3059 106.722 56.4741 107.247L58.8564 107.584C58.6612 106.494 58.1632 105.585 57.3826 104.872C56.5953 104.158 55.6262 103.721 54.4755 103.56C53.4862 103.418 52.571 103.519 51.7097 103.856C50.8483 104.192 50.1417 104.73 49.563 105.471C48.991 106.211 48.6343 107.086 48.493 108.102C48.3517 109.118 48.4526 110.06 48.7958 110.922C49.139 111.783 49.6774 112.496 50.4109 113.055C51.1444 113.613 51.999 113.963 52.9883 114.105C54.1525 114.266 55.209 114.118 56.1511 113.654C57.1 113.189 57.8133 112.449 58.3113 111.446L55.9291 111.11C55.6195 111.568 55.2359 111.897 54.7716 112.086C54.3072 112.274 53.7958 112.335 53.2305 112.254C52.6316 112.167 52.1134 111.951 51.6827 111.608C51.2521 111.258 50.9425 110.807 50.7541 110.255C50.5657 109.704 50.5186 109.084 50.6128 108.405C50.7204 107.705 50.9358 107.126 51.2723 106.648Z" fill="#009296"/>
<path d="M69.8791 105.902C69.3272 105.141 68.6274 104.569 67.7795 104.192C66.9248 103.816 66.0096 103.674 65.0271 103.768C64.0581 103.863 63.1832 104.179 62.4161 104.711C61.6489 105.242 61.0635 105.942 60.6664 106.79C60.2694 107.638 60.1146 108.573 60.2155 109.59C60.3165 110.612 60.6395 111.501 61.1913 112.261C61.7431 113.022 62.4497 113.594 63.3044 113.97C64.159 114.347 65.0742 114.489 66.05 114.394C67.019 114.3 67.8939 113.991 68.661 113.452C69.4282 112.914 70.0137 112.221 70.404 111.373C70.7943 110.525 70.9423 109.583 70.8481 108.56C70.7472 107.55 70.4241 106.662 69.8791 105.902ZM68.4793 110.633C68.264 111.184 67.9275 111.622 67.4834 111.952C67.0325 112.281 66.5009 112.476 65.875 112.537C65.2492 112.598 64.6839 112.51 64.1792 112.275C63.6745 112.039 63.2573 111.669 62.941 111.171C62.6247 110.673 62.4295 110.074 62.3622 109.381C62.2949 108.688 62.369 108.069 62.591 107.524C62.8064 106.978 63.1429 106.541 63.6005 106.218C64.0581 105.895 64.5964 105.7 65.2223 105.639C65.8481 105.579 66.4134 105.666 66.9114 105.895C67.4161 106.124 67.8266 106.487 68.1429 106.985C68.4591 107.483 68.6543 108.075 68.7216 108.769C68.7889 109.462 68.6947 110.081 68.4793 110.633Z" fill="#009296"/>
<path d="M73.9232 102.133L73.728 113.23L75.8074 112.523L75.8209 110.424L79.7509 109.091L81.043 110.754L83.1358 110.04L76.2247 101.359L73.9232 102.133ZM75.8209 108.654L75.8478 104.038L78.6809 107.685L75.8209 108.654Z" fill="#009296"/>
<path d="M87.2883 97.6246L86.4404 96.1643L79.832 100.007L80.6799 101.467L83.0824 100.074L87.4767 107.625L89.2802 106.575L84.8926 99.0176L87.2883 97.6246Z" fill="#009296"/>
<path d="M94.32 100.949L92.5501 98.8294L95.2419 96.5818L94.1786 95.3031L91.4801 97.5575L89.8045 95.5521L92.8462 93.0151L91.7493 91.7029L87.106 95.5858L93.8085 103.601L98.4519 99.7177L97.3549 98.4122L94.32 100.949Z" fill="#009296"/>
<path d="M13.6067 64.6637C15.4573 65.9827 17.5502 66.7768 19.7036 67.4295C23.1289 68.4659 26.6417 69.0312 30.2016 69.3474C34.0777 69.6974 37.9607 69.7512 41.8503 69.5022C46.783 69.1859 51.6484 68.4995 56.3187 66.7835C57.9136 66.198 59.4681 65.5116 60.7938 64.4215C61.3523 63.9639 61.857 63.4053 62.2675 62.8131C62.853 61.9585 62.8059 61.0231 62.281 60.1281C61.8368 59.3609 61.1975 58.7822 60.4842 58.2707C58.7144 57.0056 56.7157 56.225 54.6565 55.5789C51.3321 54.5426 47.9135 53.9369 44.4479 53.6408C42.1598 53.4457 39.8651 53.3447 37.5771 53.2034C31.6484 53.2707 25.7803 53.7485 20.0602 55.404C17.7453 56.0702 15.4977 56.9181 13.5259 58.3515C12.853 58.8427 12.2473 59.408 11.8234 60.1348C11.3119 61.0231 11.3052 61.9114 11.8099 62.7997C12.2541 63.5736 12.9001 64.1523 13.6067 64.6637ZM11.9714 60.2223C12.3348 59.5964 12.8597 59.0446 13.6269 58.4861C15.7601 56.9383 18.2164 56.1173 20.1141 55.5655C25.0737 54.1321 30.464 53.4592 37.5771 53.3717C38.2904 53.4188 39.0037 53.4524 39.717 53.4928C41.2648 53.5803 42.8732 53.6678 44.4411 53.8024C48.1491 54.1254 51.4802 54.7579 54.6161 55.7337C56.3052 56.2586 58.4923 57.0392 60.3967 58.3986C61.211 58.9841 61.7695 59.5561 62.1464 60.2021C62.6578 61.0836 62.6578 61.9518 62.1329 62.7055C61.7292 63.2909 61.2312 63.836 60.6861 64.2801C59.3065 65.4107 57.6713 66.0971 56.2581 66.6153C52.2271 68.089 47.6444 68.9504 41.8368 69.3205C37.9943 69.5628 34.0845 69.5157 30.215 69.1657C26.2379 68.8091 22.8126 68.1832 19.7507 67.2546C17.8664 66.6826 15.6726 65.9087 13.7009 64.509C12.8799 63.9235 12.3281 63.3515 11.958 62.7055C11.4869 61.8777 11.4869 61.0635 11.9714 60.2223Z" fill="#009296"/>
<path d="M62.4697 57.9877C60.9421 56.5408 59.1116 55.6795 57.685 55.0873C54.973 53.9702 51.9784 53.1761 48.2637 52.6041C42.5908 51.7225 36.6083 51.5408 30.4845 52.0523C25.3768 52.483 21.2449 53.3174 17.4898 54.6835C15.4979 55.4103 13.9838 56.1775 12.7186 57.1128C12.2341 57.4695 11.7832 57.8666 11.3727 58.2838C10.3835 59.2999 9.90572 60.4843 9.92591 61.9042C10.0874 73.0281 16.5141 83.1021 26.3054 87.5637C29.8317 89.1721 33.6204 89.8921 38.5867 89.8921C38.6002 89.8921 38.6137 89.8921 38.6271 89.8921C45.7469 89.6902 52.3418 86.2717 57.4024 80.2353L57.3216 80.0671L57.2408 79.8988L56.7698 78.9096L56.689 78.7414L56.6083 78.5664C55.8748 79.4884 55.074 80.3766 54.2058 81.2178C46.3189 88.8962 34.253 90.417 24.8653 84.9123C18.1964 81.0025 13.9367 75.0133 12.1937 67.1061C12.0793 66.5947 11.9986 66.0698 11.9111 65.518C11.8909 65.3901 11.8707 65.2622 11.8505 65.1344C12.012 65.2757 12.1601 65.3968 12.3014 65.5112C13.6742 66.5947 15.3499 67.4762 17.5706 68.2771C21.2516 69.6028 25.2556 70.417 30.1682 70.841C36.9515 71.4264 43.2166 71.1976 49.3337 70.1411C52.7859 69.5422 55.5652 68.7548 58.0955 67.6647C59.1655 67.2071 60.0672 66.7293 60.868 66.2044L61.5073 65.5449C60.4239 66.3726 59.253 66.985 58.0282 67.5166L57.9609 67.3618C59.8317 66.5543 61.191 65.6997 62.362 64.6028L62.685 64.2999V64.3268L63.8088 63.1626L63.9838 62.981L64.1587 62.7993C64.1722 62.557 64.1857 62.308 64.1924 62.0657C64.253 60.4709 63.681 59.1384 62.4697 57.9877ZM62.2745 62.8194C61.864 63.4116 61.3593 63.9702 60.8007 64.4278C59.475 65.5112 57.9205 66.2044 56.3256 66.7898C51.6554 68.4991 46.79 69.1923 41.8573 69.5085C37.9744 69.7575 34.0915 69.7037 30.2085 69.3538C26.6487 69.0308 23.1359 68.4722 19.7106 67.4359C17.5571 66.7831 15.4643 65.9823 13.6137 64.6701C12.9003 64.1653 12.261 63.5799 11.8169 62.8127C11.3122 61.9244 11.3189 61.0361 11.8303 60.1478C12.2543 59.4143 12.8532 58.8491 13.5329 58.3645C15.5046 56.9312 17.7523 56.09 20.0672 55.417C25.7873 53.7683 31.6554 53.2905 37.584 53.2165C39.8788 53.3578 42.1735 53.452 44.4548 53.6539C47.9205 53.9567 51.3324 54.5557 54.6635 55.592C56.7227 56.2313 58.7213 57.0186 60.4912 58.2838C61.2045 58.7885 61.8438 59.374 62.2879 60.1411C62.8128 61.0294 62.86 61.9648 62.2745 62.8194Z" fill="#009296"/>
<path d="M61.5006 65.559L62.685 64.3342V64.3073L62.362 64.6101C61.1911 65.7138 59.8317 66.5617 57.9609 67.3692L58.0282 67.524C59.2463 66.9991 60.4172 66.38 61.5006 65.559Z" fill="#009296"/>
<path d="M79.2801 45.8413C78.3649 44.0512 77.2344 42.2949 75.9154 40.6192C75.8144 40.4914 75.7404 40.3164 75.6731 40.0674C75.1213 38.0486 74.2398 36.4604 72.9813 35.2154C72.0527 34.2935 70.9087 33.5802 69.583 33.0957C69.1388 32.9342 68.7956 32.9476 68.5533 33.1293C68.3178 33.311 68.2236 33.6408 68.2707 34.0984C61.8912 30.6058 55.2357 29.7646 48.4726 31.6017C41.7566 33.4254 36.5278 37.3622 32.4901 43.6273C32.4766 43.5869 32.4699 43.5465 32.4564 43.5062C32.3622 43.1697 32.2815 42.8736 32.2276 42.5708C32.1603 42.2276 32.0123 41.77 31.447 41.7161C30.7943 41.6556 30.5856 42.2208 30.5183 42.4025C29.5426 45.0741 29.1253 47.3285 29.1859 49.5089C29.1994 49.9665 29.2465 50.4241 29.3138 50.9624C29.3811 51.5344 29.7445 51.8574 30.2626 51.7901C30.4914 51.7632 30.6731 51.6623 30.801 51.5008C30.949 51.3124 31.0029 51.0499 30.9692 50.7471C30.7337 49.0109 30.875 47.1939 31.3999 45.1953C31.5009 45.3433 31.6018 45.4846 31.7095 45.6192C31.9921 45.9826 32.2815 46.1508 32.5776 46.1307C32.8737 46.1105 33.1361 45.8951 33.3515 45.5048C35.229 42.1805 37.7323 39.3541 40.7943 37.1064C49.0513 31.0566 59.9531 30.7202 68.5668 36.2585C68.5937 36.272 68.6139 36.2922 68.6408 36.3124C68.7081 36.3662 68.7956 36.4335 68.91 36.4537L69.0379 36.4739C69.2599 36.5075 69.5089 36.5479 69.731 36.4739C70.054 36.3729 70.2155 36.0566 70.1617 35.6259L70.1079 35.1549C70.1617 35.1818 70.2155 35.2087 70.2626 35.2356C72.1671 36.3191 73.412 38.0486 74.0581 40.5385C74.1792 40.9893 74.3676 41.3729 74.6503 41.7296C76.1375 43.5802 77.3353 45.5452 78.2774 47.6044L78.3986 47.4564L78.513 47.315L79.2128 46.4469L79.3272 46.2989L79.4416 46.1576C79.3878 46.0634 79.334 45.949 79.2801 45.8413Z" fill="#009296"/>
<path d="M58.2573 59.0578C57.6112 58.2906 56.7499 57.8128 56.0702 57.4831C54.4215 56.6823 52.517 56.0968 50.0742 55.6392C43.3178 54.3741 36.4201 54.1385 29.5695 54.9393C25.6059 55.397 22.4497 56.1103 19.6368 57.1803C18.9437 57.4427 18.2775 57.7792 17.6314 58.1089C17.443 58.2031 17.2478 58.3041 17.0594 58.3983C16.8037 58.5262 16.5816 58.7079 16.3394 58.8963C15.5857 59.5019 15.1819 60.37 15.2357 61.2785C15.2828 62.1533 15.7606 62.934 16.5412 63.4252C17.0998 63.7819 17.7391 64.0107 18.3582 64.2395C18.6072 64.327 18.8562 64.4212 19.0984 64.5154C19.2667 64.5827 19.4349 64.6298 19.6233 64.6769C19.6435 64.6836 19.6637 64.6904 19.6839 64.6904L19.5426 64.8922C19.3542 65.1749 19.1725 65.4306 18.9908 65.693C18.7283 66.0632 18.7014 66.4131 18.9168 66.7361C19.1859 67.1466 19.6099 67.1332 19.8993 67.0793L21.0635 66.8842C22.3488 66.6621 23.6745 66.44 24.9867 66.2583C25.2828 66.2179 25.5924 66.2651 25.9221 66.3122C26.124 66.3391 26.3326 66.3727 26.5412 66.3795C29.3744 66.5073 32.1469 66.6352 34.8993 66.7294C35.229 66.7428 35.377 66.8236 35.5184 67.0726C35.7203 67.436 35.9558 67.7792 36.1779 68.1224L36.3394 68.3714C36.5009 68.6136 36.7162 68.7751 36.9585 68.8223C37.0123 68.8357 37.0594 68.8357 37.1133 68.8357C37.268 68.8357 37.4228 68.7886 37.5641 68.6944C37.9612 68.4252 38.0419 67.9407 37.7593 67.4764C37.6247 67.261 37.4901 67.0457 37.3421 66.8169L37.2882 66.7294C37.4497 66.7227 37.6045 66.7227 37.7593 66.7159C38.2976 66.7025 38.8024 66.689 39.3138 66.6486C40.7404 66.541 42.1738 66.4333 43.6005 66.3256C44.832 66.2314 46.0635 66.1372 47.3017 66.043C47.4094 66.0363 47.5507 66.0699 47.6516 66.1237C48.1159 66.3862 48.5735 66.6554 49.0379 66.9245C49.2936 67.0726 49.5426 67.2206 49.7983 67.3687C50.3232 67.6715 50.8145 67.5908 51.0769 67.1533C51.3394 66.7092 51.1846 66.2449 50.6597 65.9286C50.4915 65.8276 50.3299 65.7334 50.1415 65.6258C50.2694 65.5988 50.404 65.5719 50.5318 65.545C51.1307 65.4239 51.7028 65.3095 52.268 65.1816C53.7485 64.8451 55.303 64.4414 56.7229 63.6271C57.3421 63.2704 57.8804 62.8398 58.2842 62.3821C59.159 61.3862 59.1523 60.1143 58.2573 59.0578ZM21.0702 65.3566C21.2586 65.0807 21.4067 64.8788 21.5412 64.6634C21.8912 64.1318 21.7229 63.6809 21.0971 63.506C20.5049 63.3377 19.906 63.2031 19.3273 63.0013C18.7216 62.7994 18.1025 62.6042 17.5507 62.2879C16.4941 61.689 16.4538 60.4777 17.4766 59.8586C18.3044 59.3606 19.1927 58.9367 20.1011 58.6002C23.8764 57.2139 27.8064 56.5477 31.797 56.2179C37.4901 55.7469 43.163 55.9622 48.8023 56.9245C51.0298 57.3081 53.2303 57.8061 55.2828 58.7751C55.8683 59.0511 56.4268 59.4144 56.9248 59.8249C57.5843 60.3768 57.5843 61.0228 56.9585 61.615C56.6422 61.9111 56.2721 62.1735 55.8885 62.3754C55.3299 62.6581 54.7512 62.907 54.159 63.1022C51.0635 64.1116 47.8602 64.5356 44.6368 64.7644C41.5345 64.9865 38.4255 65.1143 35.3165 65.1951C32.4228 65.2691 29.5157 65.2287 26.6422 64.8519C25.5049 64.7038 24.4147 64.7778 23.3111 64.9932C22.5978 65.1278 21.8844 65.222 21.0702 65.3566Z" fill="#009296"/>
<path d="M90.969 65.175C92.1131 64.6165 93.1763 63.8964 94.2934 63.2638C94.5222 63.136 94.8183 63.0148 95.074 63.035C96.0902 63.1158 97.0525 62.9745 97.961 62.5169C100.02 61.4738 101.332 59.7712 101.904 57.5909C102.187 56.5007 102.537 55.5317 103.345 54.751C103.419 54.677 103.486 54.5895 103.546 54.5088C104.556 53.0619 105.296 51.5209 105.182 49.7039C105.108 48.5397 104.623 47.5774 103.573 46.9987C102.308 46.2988 100.969 46.4065 99.6433 46.7968C98.3311 47.1804 97.1871 47.8735 96.1171 48.7147C95.9018 48.8829 95.6057 49.031 95.3365 49.0444C93.8896 49.1319 92.5572 49.5693 91.3594 50.3567C89.3943 51.642 88.1158 53.3446 88.2436 55.8412C88.2503 56.0162 88.109 56.2181 87.9946 56.3728C87.5168 56.992 86.9919 57.564 86.5478 58.2033C86.2988 58.5667 86.0767 58.93 85.895 59.3002L87.9677 65.1615C88.9435 65.6124 89.9798 65.6595 90.969 65.175ZM87.1332 62.0256C87.2073 61.6084 87.2342 61.1844 87.362 60.7874C87.7725 59.4482 88.5935 58.3513 89.5828 57.3823C90.0202 56.9583 90.1413 56.5344 90.0404 55.9152C89.8048 54.4549 90.6191 53.4186 91.642 52.537C92.8668 51.4872 94.2934 50.9422 95.9287 50.9489C96.245 50.9489 96.5882 50.7335 96.8843 50.5586C97.8937 49.9597 98.856 49.2732 99.8991 48.7551C100.417 48.4926 101.083 48.4388 101.682 48.4321C102.806 48.4253 103.425 49.0377 103.257 50.1481C103.122 51.0566 102.779 51.9785 102.349 52.7995C101.972 53.5128 101.319 54.0714 100.841 54.7376C100.599 55.0741 100.377 55.4913 100.323 55.8951C100.034 58.1158 98.9704 59.8116 97.0121 60.9085C96.3123 61.2988 95.5451 61.4401 94.7577 61.1642C94.2732 60.996 93.9098 61.1777 93.5532 61.494C92.4764 62.4294 91.3055 63.2033 89.8923 63.5263C89.4886 63.6205 89.0646 63.6138 88.6541 63.6541C88.6406 63.6003 88.6272 63.5465 88.6205 63.4859C88.8022 63.3177 88.9906 63.1427 89.1723 62.9745C92.4428 59.9327 95.7201 56.891 98.9906 53.8493C99.751 53.1427 99.8721 52.6313 99.4011 52.14C98.9367 51.6488 98.4388 51.743 97.6649 52.4563C94.3876 55.498 91.1171 58.5397 87.8466 61.5815C87.6649 61.7497 87.4832 61.9179 87.3015 62.0862C87.2409 62.066 87.1871 62.0458 87.1332 62.0256Z" fill="#009296"/>
<path d="M60.8076 85.5652C60.8144 85.9084 60.7942 86.2516 60.7471 86.6016C61.3191 86.4804 61.8776 86.3391 62.4362 86.1776C62.49 85.821 62.5237 85.4643 62.5304 85.1211C61.9584 85.2893 61.3864 85.4306 60.8076 85.5652Z" fill="#009296"/>
<path d="M62.5233 84.9462C62.5233 84.8857 62.5233 84.8251 62.5233 84.7645C61.9513 84.9395 61.3726 85.0943 60.7871 85.2221C60.7938 85.276 60.7938 85.3365 60.7938 85.3971C61.3793 85.2625 61.958 85.1145 62.5233 84.9462Z" fill="#009296"/>
<path d="M62.4025 86.3662C61.844 86.521 61.2854 86.6623 60.7134 86.7834C60.7 86.844 60.6933 86.8978 60.6865 86.9584C61.4268 86.8036 62.1535 86.6219 62.8669 86.4066C62.7121 86.3999 62.5573 86.3999 62.4025 86.3999C62.4025 86.3864 62.4025 86.3729 62.4025 86.3662Z" fill="#009296"/>
<path d="M60.7465 86.6014C60.7398 86.662 60.7263 86.7225 60.7129 86.7831C61.2849 86.6619 61.8434 86.5274 62.402 86.3659C62.4154 86.3053 62.4222 86.238 62.4289 86.1774C61.8771 86.3389 61.3118 86.4803 60.7465 86.6014Z" fill="#009296"/>
<path d="M62.5234 85.1213C62.5234 85.0607 62.5234 85.0069 62.5234 84.9463C61.9581 85.1145 61.3794 85.2693 60.7939 85.3972C60.7939 85.451 60.8007 85.5116 60.8007 85.5654C61.3861 85.4308 61.9581 85.2895 62.5234 85.1213Z" fill="#009296"/>
<path d="M62.0528 82.3752C61.999 82.2272 62.0057 82.0926 62.0393 81.9647C62.0124 81.8772 61.9922 81.7965 61.9653 81.709C61.824 81.9176 61.7971 82.1599 61.8913 82.429C61.9653 82.6309 62.0999 82.7655 62.2681 82.8463C62.248 82.7722 62.2345 82.6915 62.2143 82.6175C62.147 82.5569 62.0932 82.4761 62.0528 82.3752Z" fill="#009296"/>
<path d="M62.0529 82.3755C62.0932 82.4764 62.1471 82.5572 62.2211 82.6245C62.1673 82.4024 62.1067 82.187 62.0461 81.965C62.0057 82.0928 61.999 82.2274 62.0529 82.3755Z" fill="#009296"/>
<path d="M81.1238 50.3702C80.8547 49.5021 80.5451 48.6407 80.1952 47.7995C80.1615 47.8601 80.1279 47.9206 80.0942 47.9812C80.4644 48.8628 80.7739 49.7645 81.0498 50.673C81.0633 50.572 81.0902 50.4711 81.1238 50.3702Z" fill="#009296"/>
<path d="M80.9691 51.0361C80.9893 50.9149 81.0095 50.7938 81.0364 50.6794C80.7605 49.7709 80.4509 48.8759 80.0808 47.9876C80.0472 48.0482 80.0068 48.1155 79.9731 48.176C80.3635 49.1182 80.6932 50.067 80.9691 51.0361Z" fill="#009296"/>
<path d="M91.2248 47.2275C90.8412 46.7766 90.7336 46.2988 90.6999 45.7336C90.599 43.856 90.2356 42.0525 88.9099 40.5922C87.2544 38.7753 85.0606 38.8089 83.4321 40.6663C82.1871 42.0862 81.6622 43.7887 81.3796 45.6124C81.3527 45.7941 81.2988 45.9758 81.2315 46.1575C81.1373 46.4065 81.0162 46.642 80.8614 46.8372C80.6124 47.1467 80.3904 47.4765 80.1885 47.8062C80.5451 48.6474 80.848 49.5088 81.1171 50.3769C81.3123 49.704 81.6151 49.0714 82.0458 48.4792C82.2073 48.2571 82.3823 48.035 82.5774 47.8197C83.0149 47.3486 83.1966 46.8776 83.2504 46.2585C83.3782 44.7039 83.7551 43.2167 84.8049 41.9987C85.8009 40.848 86.7497 40.8816 87.6717 42.0862C88.5936 43.2975 88.9032 44.7241 88.8964 46.1912C88.8964 47.0525 89.1118 47.7322 89.6838 48.3581C90.1548 48.8762 90.7066 49.031 91.171 48.6743C91.6151 48.3379 91.669 47.7524 91.2248 47.2275Z" fill="#009296"/>
<path d="M83.7482 60.7198C83.0618 59.347 82.8532 57.8867 82.8397 56.3658C82.833 56.0428 82.6177 55.5919 82.3552 55.417C82.2879 55.3766 82.2341 55.3295 82.1735 55.2824C82.113 55.2353 82.0457 55.1882 81.9918 55.1343C81.9178 55.0738 81.8505 55.0065 81.7899 54.9392C81.2718 54.3873 81.0161 53.7077 80.9286 52.9271C80.8545 52.2676 80.8747 51.635 80.9757 51.0226C80.6998 50.0536 80.37 49.1047 79.9864 48.1693C79.7576 48.5933 79.5558 49.0307 79.4077 49.4883C79.3808 49.5758 79.3606 49.67 79.3337 49.7642C79.3068 49.8584 79.2798 49.9526 79.2529 50.0468C79.226 50.1612 79.1856 50.2622 79.1654 50.3766C78.7146 52.5098 78.9299 54.5085 80.5383 56.137C80.545 56.1437 80.5517 56.1505 80.5584 56.1639C80.6257 56.238 80.6863 56.3052 80.7401 56.3793C80.8142 56.4802 80.8815 56.5812 80.9286 56.6821C81.0228 56.8907 81.0766 57.1128 81.0833 57.3887C81.117 58.7548 81.3458 60.0872 81.9582 61.3254C81.9851 61.3793 82.0053 61.4264 82.0322 61.4802C82.0524 61.5206 82.0793 61.561 82.1062 61.5946C82.1533 61.6686 82.2004 61.7292 82.2543 61.7898C82.5571 62.1061 82.9676 62.1868 83.3512 62.0051C83.8088 61.7898 84.0107 61.2514 83.7482 60.7198Z" fill="#009296"/>
<path d="M110.02 63.3313C108.937 62.1335 107.308 61.6153 105.565 61.3461C104.812 61.2317 104.098 61.151 103.533 60.5184C103.176 60.1213 102.672 60.2156 102.281 60.5655C101.911 60.8952 101.891 61.5009 102.254 61.8777C102.84 62.4767 103.419 62.9948 104.388 63.0285C105.895 63.0823 107.342 63.513 108.526 64.5359C109.704 65.5588 109.677 66.5143 108.432 67.443C107.1 68.4322 105.545 68.6678 103.944 68.6745C103.412 68.6745 102.988 68.8024 102.564 69.1523C101.05 70.3973 99.2934 70.8549 97.3621 70.5318C96.3055 70.3569 95.4173 69.8993 94.8722 68.8898C94.7376 68.6341 94.3675 68.3784 94.0848 68.3582C92.4832 68.2304 90.9758 67.8872 89.5626 67.0796C89.354 66.9585 88.9233 67.046 88.6743 67.194C88.6474 67.2075 88.6205 67.2209 88.6003 67.2344C88.3917 67.3959 88.2436 67.8535 88.3177 68.1092C88.3984 68.4053 88.7013 68.7014 88.9906 68.8764C89.105 68.9437 89.2261 69.011 89.3473 69.0715C90.5115 69.6772 91.7833 69.9195 93.0821 70.0877C93.3513 70.1213 93.6676 70.2963 93.8493 70.5117C94.677 71.4807 95.6864 72.1267 96.9247 72.3757C99.206 72.8333 101.326 72.3824 103.237 71.0567C103.668 70.7539 104.085 70.5857 104.623 70.5722C106.225 70.5184 107.752 70.1483 109.139 69.3071C111.548 67.84 111.992 65.3501 110.02 63.3313Z" fill="#009296"/>
<path d="M85.148 46.548C85.1076 47.4295 85.0807 48.3111 85.0471 49.1994C85 50.4376 84.9529 51.6825 84.9125 52.9208C84.899 53.3784 85.0403 53.7956 85.5114 53.91C85.821 53.9908 86.1103 53.9975 86.5074 53.8427C86.6958 53.6408 86.7967 53.2303 86.8102 52.9544C86.9044 50.8346 86.9784 48.7081 87.0457 46.5816C87.0659 45.8885 86.6622 45.4241 86.0834 45.4241C85.5518 45.4241 85.1817 45.8548 85.148 46.548Z" fill="#009296"/>
<path d="M96.5611 65.5247C96.5274 66.1101 96.9177 66.5072 97.6042 66.5341C99.7509 66.6216 101.898 66.7023 104.044 66.7629C104.32 66.7696 104.677 66.8369 105 66.5341C105.168 66.1236 105.121 65.8208 105.06 65.5112C104.966 65.0334 104.542 64.8854 104.091 64.8652C101.945 64.7844 99.798 64.7037 97.6513 64.6364C96.9918 64.6162 96.588 64.9661 96.5611 65.5247Z" fill="#009296"/>
<path d="M87.3152 73.4797C87.0057 72.5914 86.5952 71.6896 86.0636 70.7879C85.4646 69.7583 84.7311 68.8027 84.0111 67.7462C84.9263 66.8915 85.8751 66.0369 86.7971 65.1419C87.0932 64.8592 87.3287 64.8323 87.6786 65.0207C87.7728 65.0678 87.8603 65.1082 87.9545 65.1553L85.8819 59.2939C85.2964 60.4783 85.108 61.73 85.754 63.1096C85.8078 63.224 85.7675 63.4595 85.68 63.547C84.6907 64.4891 83.6881 65.411 82.6854 66.3464C82.3354 66.0571 82.0057 65.7677 81.6827 65.4851C81.6356 65.4447 81.5817 65.4043 81.5346 65.3639C81.4875 65.3236 81.4337 65.2832 81.3866 65.2428C81.1039 65.0073 80.828 64.7717 80.5387 64.5564C80.5117 64.5362 80.4848 64.5093 80.4512 64.4891C80.431 64.4756 80.4108 64.4622 80.3906 64.442C80.3368 64.4016 80.2897 64.368 80.2358 64.3343C79.7513 63.9844 79.2668 63.6614 78.7688 63.3653C78.715 63.3316 78.6679 63.3047 78.614 63.2778C78.5602 63.2509 78.5131 63.2172 78.4593 63.1903C78.143 63.0153 77.8267 62.8471 77.5104 62.6991C77.4566 62.6721 77.4027 62.652 77.3489 62.625C77.2951 62.5981 77.2412 62.5779 77.1874 62.5577C74.1389 61.2186 70.8953 61.0773 67.4229 62.4097C66.178 62.8875 65.0676 63.5402 64.038 64.3074C63.9774 64.3545 63.9169 64.3949 63.8563 64.442C63.7957 64.4891 63.7284 64.5362 63.6679 64.5833C63.2776 64.8929 62.9007 65.2226 62.5306 65.5658C62.4633 65.6264 62.396 65.6869 62.3287 65.7475C62.2614 65.8081 62.1941 65.8686 62.1268 65.9359C61.6221 66.4272 61.1376 66.9386 60.6598 67.4703C58.3516 70.0409 57.6854 72.9615 58.2977 76.158C58.3112 76.2388 58.3247 76.3195 58.3448 76.407C58.3583 76.481 58.3785 76.555 58.3987 76.6291C58.4256 76.7569 58.4525 76.8848 58.4862 77.0127C58.5669 77.3222 58.6544 77.625 58.7419 77.9279C58.7621 77.9952 58.7823 78.0692 58.8025 78.1365C58.8226 78.2038 58.8428 78.2711 58.863 78.3384C59.1995 79.4689 59.5763 80.5927 59.933 81.7166C60.2964 82.874 60.68 84.0315 60.7675 85.2226C61.3529 85.088 61.9384 84.94 62.5037 84.765C62.4835 84.1122 62.3893 83.4797 62.2479 82.8538C62.0797 82.7731 61.9451 82.6318 61.8711 82.4366C61.7702 82.1674 61.8038 81.9252 61.9451 81.7166C61.5683 80.4716 61.0703 79.2603 60.7136 78.0221C60.5387 77.4164 60.3772 76.8108 60.256 76.1984C60.2426 76.1176 60.2224 76.0369 60.2089 75.9494C60.1955 75.8619 60.182 75.7744 60.1618 75.6869C60.0541 75.0544 60.0003 74.4151 60.0138 73.7623C60.0138 73.6277 60.0138 73.4999 60.0272 73.3653C60.0407 73.1903 60.0541 73.0153 60.0811 72.8404C60.0878 72.8 60.1214 71.73 61.2789 69.6102C61.3597 69.4689 61.4741 69.3276 61.5817 69.1863C61.6692 69.0719 61.7567 68.9642 61.8509 68.8498C61.8778 68.8162 61.898 68.7892 61.9249 68.7556C62.2143 69.0719 62.4633 69.3343 62.7056 69.5968C62.7123 69.6035 62.719 69.617 62.7325 69.6237C62.7728 69.6641 62.8132 69.7112 62.8469 69.7516C62.8872 69.7987 62.9344 69.8458 62.9747 69.8929C63.8967 70.8888 64.8186 71.8848 65.7473 72.8673C66.2385 73.3855 66.7567 73.4528 67.1874 73.0826C67.6383 72.6923 67.6383 72.1136 67.147 71.5752C65.9693 70.2966 64.7782 69.018 63.5265 67.6721C63.4794 67.625 63.4391 67.5779 63.392 67.5241C63.3448 67.4703 63.2977 67.4164 63.2439 67.3626C63.2439 67.3626 63.2439 67.3626 63.2439 67.3559C63.3112 67.302 63.3852 67.2415 63.4525 67.1876C63.5198 67.1338 63.5871 67.0799 63.6477 67.0261C64.1928 66.582 64.7379 66.1445 65.3166 65.6735C65.8078 66.1984 66.2587 66.6896 66.7163 67.1742C67.2412 67.7327 67.8267 67.8135 68.2506 67.3895C68.6611 66.979 68.6073 66.4272 68.1026 65.8821C67.7594 65.512 67.4162 65.1419 66.9586 64.6506C67.8671 64.3209 68.6813 64.0113 69.5091 63.7556C69.6369 63.7152 69.8859 63.8902 70.0138 64.0248C71.0299 65.0948 72.0259 66.1782 73.0353 67.2616C73.1362 67.3693 73.2304 67.4837 73.3381 67.5847C73.7823 67.9884 74.3139 68.0019 74.7042 67.6385C75.108 67.2549 75.108 66.7166 74.6773 66.2388C73.9842 65.4716 73.2708 64.7246 72.571 63.9642C72.4364 63.8161 72.2951 63.6681 72.1605 63.5201C72.1806 63.4662 72.2008 63.4124 72.2278 63.3585C72.8401 63.4258 73.4593 63.4528 74.0649 63.5604C75.0407 63.7421 75.9626 64.0517 76.8307 64.4622C76.8846 64.4891 76.9384 64.5093 76.9855 64.5362C77.0393 64.5631 77.0864 64.59 77.1403 64.617C77.4566 64.7785 77.7661 64.9534 78.0689 65.1419C78.1228 65.1755 78.1699 65.2024 78.2237 65.2361C78.2708 65.2697 78.3247 65.2966 78.3718 65.3303C78.789 65.6062 79.1928 65.9023 79.5831 66.2186C79.6504 66.2724 79.7109 66.3262 79.7715 66.3801C79.8186 66.4205 79.8657 66.4608 79.9196 66.5012C79.9667 66.5416 80.0138 66.582 80.0609 66.6156C80.3368 66.8511 80.6127 67.0934 80.8751 67.3424C80.9222 67.3828 80.9693 67.4232 81.0165 67.4703C81.0636 67.5106 81.1039 67.5577 81.151 67.6048C82.4835 68.8902 83.6409 70.337 84.5427 71.9857C85.1012 73.0086 85.505 74.0382 85.7675 75.0611C86.6154 78.4258 85.8482 81.7569 83.4323 84.7179C82.4431 85.9359 81.3125 87.0732 80.1012 88.0625C77.9747 89.7987 75.4714 90.1688 72.8805 89.4016C72.1537 89.1863 71.4337 88.9373 70.7204 88.6816C69.5158 88.2441 68.3247 87.7731 67.1201 87.3357C65.7675 86.8444 64.3946 86.4272 62.8469 86.3868C62.1335 86.6022 61.4068 86.7839 60.6665 86.9386C60.6598 86.9857 60.6531 87.0261 60.6463 87.0732C60.505 87.6721 61.003 88.1836 61.6221 88.1028C63.1968 87.8875 64.6167 88.4057 66.0434 88.9373C66.6086 89.1459 67.1739 89.368 67.7392 89.5833C69.2197 90.1553 70.6934 90.734 72.2008 91.2118C74.9128 92.0799 77.5171 91.6964 79.9868 90.2697C82.0326 89.0921 83.7284 87.5376 85.0878 85.6264C87.8738 81.7233 88.7755 77.6721 87.3152 73.4797Z" fill="#009296"/>
<path d="M81.1578 80.8411C81.6827 81.0228 82.2412 80.794 82.3893 80.1816C82.5508 79.5087 82.6921 78.829 82.8267 78.1426C82.9613 77.4494 83.0891 76.7496 83.217 76.0497C83.2574 75.8075 83.217 75.3297 83.0151 75.1614C82.5642 74.9057 82.2547 74.899 81.9855 75.0268C81.6894 75.1682 81.4202 75.5719 81.3395 75.9151C81.0501 77.113 80.8617 78.3377 80.5992 79.549C80.5252 79.8855 80.5454 80.1682 80.6531 80.397C80.7473 80.5988 80.9088 80.7536 81.1578 80.8411Z" fill="#009296"/>
<path d="M78.4119 85.7813C78.6811 85.7813 78.9436 85.5121 79.0781 85.4381C79.4886 84.9468 79.7982 84.6036 80.0741 84.2335C80.4106 83.7893 80.35 83.2712 79.9597 82.928C79.5694 82.578 79.0445 82.5848 78.6609 82.9885C78.2571 83.4125 77.8265 83.8432 77.5371 84.3412C77.3823 84.6103 77.3689 85.1083 77.5169 85.3775C77.6515 85.6198 78.1024 85.7813 78.4119 85.7813Z" fill="#009296"/>
</svg>
