<svg width="75" height="75" viewBox="0 0 75 75" fill="none" xmlns="http://www.w3.org/2000/svg">
<path d="M37.4272 55.096H27.0976C26.7307 55.1085 26.3635 55.0842 26.0015 55.0234C23.6423 54.5443 22.6841 52.5771 23.7875 50.4357C24.5933 48.8605 25.4498 47.3143 26.2846 45.7537C28.1502 42.2766 30.023 38.7923 31.874 35.308C32.0148 35.0416 32.0895 34.7454 32.0918 34.4442C32.0918 31.3809 32.0918 28.3248 32.0918 25.2615C32.1095 25.099 32.0765 24.9349 31.9972 24.792C31.9179 24.649 31.7963 24.5341 31.649 24.463C31.28 24.223 30.9974 23.8712 30.8428 23.459C30.6881 23.0469 30.6695 22.596 30.7895 22.1725C30.9096 21.7489 31.1621 21.3749 31.5101 21.1053C31.8581 20.8356 32.2832 20.6844 32.7233 20.6738C35.8834 20.6738 39.0411 20.6738 42.1963 20.6738C42.637 20.6887 43.0613 20.8445 43.4069 21.1183C43.7525 21.3921 44.0012 21.7694 44.1165 22.195C44.2319 22.6206 44.2077 23.0719 44.0476 23.4827C43.8875 23.8935 43.6 24.2422 43.2271 24.4775C43.0904 24.5401 42.9765 24.6435 42.9011 24.7735C42.8257 24.9035 42.7925 25.0537 42.8061 25.2034C42.8061 28.2813 42.8061 31.3591 42.8061 34.4369C42.8234 34.7345 42.8999 35.0257 43.0311 35.2935C43.1836 35.6637 43.4086 36.0194 43.5683 36.3605C43.6052 36.5144 43.5909 36.6761 43.5274 36.821C43.464 36.9659 43.355 37.0862 43.2169 37.1634C43.0788 37.2407 42.9193 37.2707 42.7626 37.249C42.6059 37.2272 42.4606 37.1548 42.3488 37.0429C41.7455 36.2047 41.4022 35.2075 41.3616 34.1756C41.4414 31.2284 41.3616 28.274 41.3978 25.3268C41.3978 24.9203 41.2962 24.7752 40.8679 24.7752C38.5813 24.7752 36.302 24.7752 34.0227 24.7752C33.5581 24.7752 33.4783 24.9421 33.4783 25.3559C33.4783 28.4966 33.4783 31.6422 33.4783 34.7926C33.4694 35.121 33.3876 35.4434 33.2387 35.7363C30.5481 40.7885 27.8477 45.8311 25.1377 50.864C24.2666 52.49 24.9489 53.6587 26.8073 53.6587C33.8872 53.6587 40.9671 53.6587 48.0471 53.6587H48.2358C49.9199 53.5571 50.566 52.4537 49.782 50.9656C48.7657 49.0347 47.7204 47.1184 46.6897 45.1947L46.53 44.8971C46.2614 44.3817 46.3267 43.968 46.6897 43.7647C47.0526 43.5615 47.5099 43.7066 47.7785 44.2002C48.8819 46.2473 49.9828 48.2967 51.0814 50.3486C51.4446 50.974 51.6021 51.6977 51.5314 52.4174C51.4457 53.132 51.1047 53.7915 50.5711 54.2744C50.0375 54.7573 49.3473 55.0311 48.6278 55.0452C48.1705 55.0815 47.7059 55.0815 47.2413 55.0815H37.4272V55.096ZM37.4272 23.3669H41.964C42.4867 23.3669 42.7553 23.1491 42.7625 22.7572C42.7698 22.3652 42.4867 22.0821 41.9568 22.0821H32.9701C32.4402 22.0821 32.1571 22.3434 32.1717 22.7572C32.1862 23.1709 32.4548 23.3597 32.9774 23.3669H37.4199" fill="white"/>
<path d="M37.304 49.8042C37.0248 49.7907 36.7515 49.7192 36.5016 49.5943C36.2516 49.4693 36.0304 49.2935 35.8522 49.0783C34.4875 47.4765 33.1276 45.8698 31.7726 44.2583C31.6594 44.1281 31.5731 43.9767 31.5187 43.8129C31.4643 43.6491 31.4429 43.4762 31.4558 43.3041C31.4686 43.132 31.5154 42.9641 31.5934 42.8102C31.6715 42.6562 31.7793 42.5193 31.9105 42.4073C32.0341 42.2876 32.1805 42.194 32.341 42.1319C32.5015 42.0699 32.6728 42.0407 32.8447 42.0461C33.0167 42.0516 33.1858 42.0915 33.342 42.1635C33.4983 42.2355 33.6385 42.3381 33.7543 42.4653C34.7488 43.438 35.7215 44.4253 36.7087 45.3689C37.3112 45.9714 37.6597 45.9714 38.2767 45.3689C40.7593 42.8864 43.2273 40.4038 45.7172 37.9285C45.968 37.6658 46.2725 37.4603 46.61 37.326C46.8722 37.243 47.1549 37.2534 47.4103 37.3553C47.6657 37.4572 47.8779 37.6443 48.011 37.8849C48.16 38.1228 48.2265 38.4031 48.2003 38.6826C48.1741 38.9621 48.0565 39.2251 47.8658 39.4311C46.6899 40.7522 45.4994 42.0661 44.3162 43.38C42.6079 45.2625 40.9141 47.1402 39.2349 49.013C39.0056 49.2832 38.7159 49.4956 38.3893 49.633C38.0627 49.7705 37.7083 49.8291 37.3548 49.8042" fill="white"/>
<path d="M37.5 75C30.0832 75 22.833 72.8007 16.6661 68.6801C10.4993 64.5596 5.69282 58.7029 2.85453 51.8506C0.0162438 44.9984 -0.726375 37.4584 0.72057 30.1841C2.16752 22.9098 5.73904 16.228 10.9835 10.9835C16.228 5.73905 22.9098 2.16751 30.1841 0.720567C37.4584 -0.726378 44.9984 0.0162521 51.8506 2.85454C58.7029 5.69282 64.5596 10.4993 68.6801 16.6661C72.8007 22.833 75 30.0832 75 37.5C74.9904 47.4427 71.0364 56.9754 64.0059 64.0059C56.9754 71.0364 47.4427 74.9904 37.5 75ZM37.5 1.00175C30.282 1.00462 23.2268 3.14765 17.2266 7.15987C11.2264 11.1721 6.55061 16.8734 3.79037 23.5428C1.03013 30.2122 0.309415 37.5504 1.71935 44.6294C3.12928 51.7084 6.60654 58.2104 11.7115 63.3133C16.8164 68.4162 23.3198 71.8909 30.3994 73.298C37.479 74.7051 44.8168 73.9815 51.4852 71.2186C58.1535 68.4557 63.8529 63.7776 67.8627 57.7758C71.8726 51.7741 74.0128 44.7181 74.0128 37.5C73.9936 27.8261 70.1392 18.5546 63.2946 11.7182C56.45 4.88182 47.1739 1.03846 37.5 1.03079" fill="white"/>
<path d="M13.4001 22.9746C13.2075 23.0731 12.9913 23.1158 12.7758 23.098C12.5545 23.0866 12.3408 23.0137 12.1588 22.8875C11.9734 22.7633 11.8234 22.5933 11.7232 22.3939C11.6282 22.2002 11.5857 21.9849 11.5998 21.7696C11.6145 21.549 11.6871 21.3362 11.8103 21.1526C11.9364 20.9689 12.106 20.8193 12.3039 20.7171C12.5001 20.6215 12.7178 20.5789 12.9355 20.5937C13.1571 20.6087 13.3705 20.684 13.5525 20.8114C13.7356 20.933 13.8833 21.1008 13.9808 21.2978C14.0757 21.4941 14.1183 21.7117 14.1042 21.9293C14.0891 22.151 14.0138 22.3644 13.8864 22.5464C13.7667 22.7311 13.5984 22.8793 13.4001 22.9746Z" fill="white"/>
<path d="M19.062 10.1265L20.1291 11.4549L18.3289 12.9067L22.7496 18.3872L21.0873 19.7301L16.6666 14.2496L14.8591 15.7014L13.792 14.373L19.062 10.1265Z" fill="white"/>
<path d="M23.9835 9.51659L24.7094 11.1353L27.3081 9.95939L27.9905 11.462L25.3845 12.6307L26.1757 14.3801L29.1156 13.0517L29.8198 14.6124L24.9344 16.8119L21.334 8.8415L26.2193 6.63477L26.9234 8.19545L23.9835 9.51659Z" fill="white"/>
<path d="M31.8452 13.9229C31.3364 13.8112 30.8688 13.5598 30.495 13.197C30.1118 12.8297 29.8572 12.3485 29.7691 11.8251L32.0049 11.4621C32.0637 11.7361 32.2246 11.9775 32.4549 12.1372C32.688 12.2775 32.9655 12.3242 33.2316 12.2679C33.5057 12.2465 33.7631 12.1281 33.9576 11.9339C34.0266 11.8527 34.0784 11.7582 34.1097 11.6563C34.141 11.5544 34.1512 11.4472 34.1396 11.3412C34.1281 11.2352 34.095 11.1327 34.0425 11.0399C33.99 10.9471 33.9191 10.866 33.8341 10.8015C33.6553 10.6801 33.4562 10.5916 33.2462 10.5402C33.0211 10.4894 32.709 10.4313 32.3025 10.3805C31.8115 10.3197 31.326 10.2202 30.8507 10.0829C30.462 9.96296 30.1067 9.7542 29.8127 9.47315C29.4824 9.13079 29.2733 8.68971 29.2174 8.21733C29.1428 7.85794 29.1553 7.48594 29.2538 7.13236C29.3523 6.77878 29.534 6.45389 29.7836 6.18482C30.3936 5.63115 31.1519 5.26754 31.9655 5.13859C32.7792 5.00965 33.6128 5.12098 34.3641 5.45892C34.6889 5.63875 34.9692 5.88934 35.184 6.19217C35.3989 6.49501 35.5429 6.84231 35.6053 7.20834L33.3623 7.56403C33.3412 7.43864 33.2933 7.3193 33.2219 7.21408C33.1505 7.10886 33.0572 7.02025 32.9485 6.95427C32.7291 6.8277 32.4716 6.78392 32.2226 6.83086C31.9982 6.85786 31.7916 6.96637 31.6419 7.13575C31.569 7.2339 31.52 7.34776 31.4989 7.46821C31.4778 7.58867 31.4852 7.71239 31.5205 7.82948C31.5558 7.94657 31.6179 8.05379 31.702 8.14257C31.7861 8.23134 31.8899 8.29921 32.0049 8.34074C32.4277 8.49082 32.8659 8.59307 33.3115 8.64561C33.8017 8.72462 34.2865 8.83372 34.7633 8.97227C35.1464 9.0914 35.4967 9.29761 35.7868 9.57476C36.1116 9.89969 36.3185 10.3238 36.3748 10.7798C36.4577 11.2524 36.4022 11.7389 36.2151 12.1807C36.0197 12.6391 35.6973 13.032 35.2859 13.3132C34.7997 13.651 34.2397 13.8675 33.6527 13.9447C33.0775 14.0582 32.4857 14.0582 31.9105 13.9447" fill="white"/>
<path d="M44.5414 5.40051L44.3527 7.09912L42.0516 6.83779L41.2749 13.8427L39.1552 13.6032L39.932 6.6055L37.6309 6.35144L37.8196 4.65283L44.5414 5.40051Z" fill="white"/>
<path d="M48.4467 8.47148L47.8152 10.1265L50.4793 11.1501L49.8913 12.6817L47.2272 11.6582L46.5376 13.4512L49.5501 14.6053L48.9404 16.2023L43.9316 14.2787L47.0675 6.1123L52.0762 8.03594L51.4592 9.62566L48.4467 8.47148Z" fill="white"/>
<path d="M59.0664 13.3711C59.3856 14.0496 59.5016 14.8059 59.4003 15.5488C59.2669 16.3342 58.944 17.0753 58.4595 17.7077C57.9751 18.3401 57.3437 18.8449 56.6201 19.1783C55.9218 19.4738 55.1524 19.5595 54.4061 19.4251C53.5831 19.2705 52.8105 18.9166 52.1559 18.3943L49.5571 16.3981L54.8852 9.4585L57.484 11.4547C58.1636 11.9479 58.7078 12.6046 59.0664 13.3638M55.0667 17.4652C55.4036 17.4123 55.7259 17.2902 56.0133 17.1065C56.3007 16.9229 56.5468 16.6817 56.7363 16.3981C56.9735 16.1463 57.1518 15.845 57.2584 15.5159C57.365 15.1869 57.3973 14.8382 57.3528 14.4952C57.3084 14.1521 57.1884 13.8232 57.0014 13.5322C56.8145 13.2411 56.5652 12.9952 56.2717 12.8122L55.466 12.1952L52.3736 16.2312L53.1721 16.8482C53.4309 17.072 53.7318 17.2418 54.0572 17.3478C54.3825 17.4537 54.7257 17.4937 55.0667 17.4652Z" fill="white"/>
<path d="M60.8812 22.0093C60.8697 21.791 60.9147 21.5735 61.0118 21.3777C61.1093 21.1808 61.257 21.013 61.4401 20.8914C61.6248 20.7649 61.8408 20.6921 62.0644 20.6809C62.2797 20.6667 62.4949 20.7093 62.6886 20.8043C62.8854 20.902 63.0531 21.0497 63.175 21.2325C63.3004 21.4177 63.3732 21.6335 63.3855 21.8568C63.4033 22.0724 63.3606 22.2886 63.2621 22.4811C63.1665 22.6835 63.0155 22.8547 62.8266 22.9747C62.643 23.098 62.4302 23.1706 62.2095 23.1852C61.9942 23.1994 61.779 23.1568 61.5853 23.0618C61.3854 22.9591 61.2154 22.8066 61.0917 22.619C60.9696 22.4376 60.897 22.2274 60.8812 22.0093Z" fill="white"/>
<path d="M12.7249 35.4675L11.0698 35.0465L11.6433 32.7962L4.81982 31.0541L5.34973 28.9852L12.1732 30.7347L12.7467 28.4844L14.4017 28.9127L12.7249 35.4675Z" fill="white"/>
<path d="M11.0774 38.5308L9.3062 38.5743L9.37879 41.4271L7.731 41.4634L7.65841 38.6106L5.74203 38.6615L5.82188 41.8844L4.11601 41.928L3.98535 36.5709L12.7324 36.3604L12.8631 41.7175L11.15 41.7538L11.0774 38.5308Z" fill="white"/>
<path d="M5.29883 46.7626C5.33005 46.2397 5.50875 45.7363 5.81422 45.3108C6.12974 44.885 6.57184 44.5699 7.07728 44.4107L7.75237 46.5884C7.48925 46.686 7.2736 46.8809 7.14988 47.1328C7.04697 47.3865 7.04697 47.6703 7.14988 47.924C7.21499 48.1818 7.36606 48.4097 7.57815 48.5701C7.67392 48.6351 7.78385 48.6762 7.89876 48.6901C8.01367 48.704 8.13023 48.6902 8.23873 48.6499C8.33462 48.6256 8.42399 48.5804 8.5005 48.5177C8.57702 48.455 8.63882 48.3762 8.68152 48.287C8.7784 48.0943 8.83754 47.8848 8.85575 47.6699C8.87319 47.3508 8.87319 47.0309 8.85575 46.7118C8.84364 46.2262 8.87278 45.7405 8.94285 45.26C9.0046 44.8586 9.1614 44.4778 9.40017 44.1493C9.69261 43.7726 10.1006 43.5023 10.5616 43.3799C10.9055 43.2553 11.2744 43.2154 11.637 43.2634C11.9996 43.3114 12.3453 43.446 12.6449 43.6557C13.3079 44.1461 13.7841 44.8476 13.9951 45.6447C14.2842 46.427 14.2996 47.2843 14.0387 48.0764C13.9009 48.4181 13.6897 48.7252 13.42 48.9761C13.1503 49.227 12.8287 49.4155 12.478 49.5282L11.7956 47.3505C11.9153 47.3095 12.0251 47.2437 12.1176 47.1574C12.2102 47.0711 12.2835 46.9662 12.3328 46.8497C12.4278 46.602 12.4278 46.3279 12.3328 46.0802C12.2753 45.8598 12.1383 45.6684 11.9481 45.5431C11.8451 45.4957 11.7331 45.4711 11.6197 45.4708C11.5064 45.4705 11.3943 45.4946 11.291 45.5414C11.1878 45.5882 11.0958 45.6566 11.0213 45.7421C10.9468 45.8275 10.8915 45.928 10.8592 46.0367C10.7746 46.4791 10.7356 46.9292 10.7431 47.3796C10.7421 47.8655 10.7057 48.3507 10.6342 48.8314C10.5716 49.2268 10.4175 49.6022 10.1841 49.9275C9.90556 50.2869 9.51449 50.5425 9.07351 50.6534C8.61844 50.8053 8.12885 50.8204 7.66527 50.697C7.18412 50.5642 6.74934 50.3003 6.40945 49.9348C6.00754 49.5042 5.71392 48.9842 5.5529 48.4176C5.37046 47.8585 5.29654 47.2696 5.33513 46.6827" fill="white"/>
<path d="M18.9604 55.0304L17.5521 55.9885L16.2455 54.0722L10.4311 58.0428L9.22607 56.2862L15.0405 52.3155L13.7339 50.3991L15.1494 49.4409L18.9604 55.0304Z" fill="white"/>
<path d="M20.1512 58.2752L19.0115 59.6254L21.1965 61.462L20.1367 62.725L17.9517 60.8885L16.7177 62.3548L19.1857 64.4309L18.0896 65.7375L13.9883 62.2895L19.6213 55.5967L23.7226 59.0447L22.6265 60.3513L20.1512 58.2752Z" fill="white"/>
<path d="M29.6238 62.4128C30.108 62.9921 30.4176 63.6969 30.5167 64.4453C30.6092 65.2392 30.4889 66.0434 30.1683 66.7755C29.8777 67.5182 29.3971 68.1716 28.7745 68.6701C28.1762 69.1382 27.4552 69.4231 26.6985 69.4903C25.8639 69.5534 25.0265 69.4113 24.2594 69.0766L21.2324 67.8135L24.5643 59.7197L27.5986 60.9755C28.3837 61.2839 29.0797 61.7828 29.6238 62.4273M26.8291 67.436C27.1389 67.2978 27.4172 67.0977 27.6469 66.8481C27.8765 66.5984 28.0528 66.3045 28.1648 65.9842C28.3277 65.6792 28.421 65.3417 28.4378 64.9963C28.4546 64.6508 28.3945 64.3059 28.2618 63.9865C28.1292 63.6671 27.9273 63.3811 27.6708 63.1491C27.4143 62.9172 27.1094 62.745 26.7783 62.6451L25.8419 62.2604L23.9255 66.9352L24.8619 67.3126C25.1689 67.4642 25.5034 67.552 25.8453 67.5708C26.1871 67.5895 26.5292 67.5387 26.8509 67.4215" fill="white"/>
<path d="M36.4547 68.0022C36.2653 67.8921 36.1092 67.7327 36.0031 67.541C35.897 67.3493 35.8449 67.1324 35.8522 66.9134C35.8497 66.6907 35.9101 66.4718 36.0265 66.2818C36.137 66.0964 36.2948 65.9435 36.4838 65.839C36.6766 65.7312 36.8944 65.6761 37.1153 65.6793C37.338 65.6768 37.5569 65.7372 37.7468 65.8535C37.9329 65.9657 38.0877 66.123 38.1969 66.3109C38.3059 66.5056 38.3587 66.7267 38.3493 66.9497C38.3474 67.1684 38.288 67.3827 38.1772 67.5712C38.0664 67.7598 37.908 67.9159 37.7178 68.024C37.5234 68.1337 37.302 68.1865 37.079 68.1764C36.8587 68.178 36.6424 68.1176 36.4547 68.0022Z" fill="white"/>
<path d="M48.6207 60.6416L49.1724 62.2604L46.9729 63.0008L49.2377 69.6718L47.2197 70.3541L44.9549 63.6904L42.7627 64.4308L42.2183 62.812L48.6207 60.6416Z" fill="white"/>
<path d="M52.0542 60.3586L53.0559 61.8177L55.4078 60.1917L56.3442 61.5491L53.9923 63.1678L55.0884 64.7503L57.738 62.9138L58.7107 64.322L54.3045 67.3635L49.332 60.1699L53.7382 57.1211L54.711 58.5221L52.0542 60.3586Z" fill="white"/>
<path d="M62.1225 60.6563C61.6805 60.9063 61.1781 61.0293 60.6707 61.012C60.1398 60.9841 59.6315 60.7883 59.2189 60.4531L60.6707 58.6964C60.8941 58.8671 61.1758 58.9428 61.4547 58.9069C61.7226 58.8611 61.9622 58.7127 62.1225 58.4932C62.3077 58.2948 62.418 58.0381 62.4346 57.7673C62.4361 57.6515 62.4098 57.5371 62.3581 57.4335C62.3063 57.33 62.2305 57.2403 62.137 57.172C62.0613 57.108 61.9733 57.0601 61.8785 57.0314C61.7836 57.0027 61.6838 56.9937 61.5853 57.005C61.3729 57.033 61.1667 57.0968 60.9756 57.1938C60.7723 57.3027 60.5037 57.4696 60.1626 57.6947C59.7549 57.9713 59.3251 58.2141 58.8777 58.4206C58.5069 58.5888 58.1012 58.6659 57.6945 58.6456C57.2215 58.608 56.7745 58.4139 56.4242 58.0939C56.1298 57.8756 55.8928 57.5892 55.7335 57.2592C55.5742 56.9293 55.4974 56.5655 55.5096 56.1993C55.5575 55.3747 55.8853 54.5912 56.4387 53.9781C56.9359 53.3094 57.6445 52.8285 58.4494 52.6134C58.8127 52.5354 59.1888 52.5393 59.5503 52.6246C59.9119 52.71 60.25 52.8748 60.54 53.107L59.0882 54.8854C58.9866 54.8061 58.8695 54.749 58.7445 54.7177C58.6195 54.6865 58.4893 54.6818 58.3623 54.704C58.102 54.7592 57.8702 54.906 57.709 55.1177C57.556 55.284 57.4706 55.5015 57.4695 55.7275C57.4753 55.8383 57.5065 55.9463 57.5606 56.0432C57.6147 56.1401 57.6903 56.2233 57.7816 56.2864C57.8813 56.3686 58.0012 56.4227 58.1288 56.4432C58.2564 56.4636 58.3871 56.4496 58.5075 56.4026C58.9232 56.2316 59.3197 56.0175 59.6907 55.7638C60.1103 55.4984 60.5441 55.256 60.9901 55.0379C61.3577 54.8762 61.7577 54.8017 62.1588 54.8201C62.6176 54.8431 63.054 55.0254 63.3928 55.3355C63.7683 55.6348 64.0504 56.0353 64.2058 56.4897C64.3549 56.9602 64.37 57.4629 64.2494 57.9415C64.1075 58.5121 63.8341 59.0416 63.4509 59.4876C63.0842 59.9471 62.6303 60.3295 62.1152 60.6128" fill="white"/>
<path d="M61.571 44.7012L63.1462 45.3617L62.2606 47.5031L68.7646 50.1962L67.9444 52.1634L61.4476 49.4703L60.5547 51.6117L58.9795 50.9584L61.571 44.7012Z" fill="white"/>
<path d="M63.6251 41.9425L65.3818 42.1457L65.723 39.3147L67.3562 39.5107L67.0151 42.3417L68.9242 42.5668L69.3016 39.3655L71.0002 39.5615L70.3687 44.8896L61.6797 43.8589L62.3112 38.5308L64.0098 38.734L63.6251 41.9425Z" fill="white"/>
<path d="M61.9122 31.7437C62.1302 31.0192 62.5539 30.3736 63.1318 29.8854C63.7539 29.3893 64.488 29.0531 65.2701 28.9064C66.0521 28.7596 66.8582 28.8066 67.6178 29.0433C68.3361 29.2872 68.9671 29.7365 69.4326 30.3354C69.9441 30.9998 70.2832 31.7803 70.4198 32.6075L71.0223 35.8232L62.3986 37.442L61.7889 34.219C61.6156 33.3988 61.6481 32.5484 61.8832 31.7437M67.6033 31.3517C67.3153 31.1685 66.9928 31.0462 66.6557 30.9926C66.3186 30.9389 65.9741 30.9549 65.6434 31.0396C65.3028 31.0816 64.9742 31.192 64.6773 31.3641C64.3804 31.5363 64.1214 31.7666 63.9157 32.0413C63.7346 32.3343 63.6137 32.6605 63.5601 33.0007C63.5065 33.341 63.5213 33.6885 63.6036 34.023L63.7923 35.0102L68.7865 34.0738L68.605 33.0793C68.5602 32.7395 68.4487 32.412 68.2768 32.1155C68.1048 31.819 67.876 31.5594 67.6033 31.3517Z" fill="white"/>
</svg>
