<svg width="187" height="25" viewBox="0 0 187 25" fill="none" xmlns="http://www.w3.org/2000/svg">
<g clip-path="url(#clip0_1485_1054)">
<mask id="mask0_1485_1054" style="mask-type:luminance" maskUnits="userSpaceOnUse" x="0" y="-1" width="41" height="26">
<path d="M40.9545 -0.00244141H0.0400391V24.9976H40.9545V-0.00244141Z" fill="white"/>
</mask>
<g mask="url(#mask0_1485_1054)">
<path d="M0 18.7094C4.10025 20.051 6.14786 20.135 10.2506 19.967C14.3534 19.799 16.3985 19.379 20.4987 18.7094C24.599 18.0398 26.6491 17.6197 30.7494 17.4517C34.8496 17.2837 36.8997 17.3677 41 18.7094V16.2237C36.8997 14.8845 34.8471 14.8005 30.7494 14.9685C26.6516 15.1365 24.599 15.5541 20.4987 16.2237C16.3985 16.8933 14.3484 17.3158 10.2506 17.4838C6.15289 17.6518 4.10025 17.5678 0 16.2237V18.7094ZM41.0025 3.80524V1.31957C36.9023 -0.0196305 34.8496 -0.103638 30.7519 0.0619084C26.6541 0.227455 24.6015 0.649968 20.5013 1.31957C16.401 1.98917 14.3509 2.41168 10.2531 2.57723C6.15541 2.74277 4.10277 2.66124 0.00251411 1.31957V13.7405C4.10277 15.0822 6.15038 15.1662 10.2531 15.0006C14.3559 14.8351 16.401 14.4126 20.5013 13.7405C24.6015 13.0684 26.6516 12.6509 30.7519 12.4853C34.8521 12.3198 36.9023 12.4013 41.0025 13.7405V11.2573C39.2844 10.6588 37.4942 10.2825 35.6772 10.138C33.9108 9.93314 32.1285 9.89343 30.3544 10.0194C28.5717 10.105 26.7949 10.2839 25.0317 10.5556C22.901 10.8521 21.8345 11.0498 19.7089 11.3883V8.90259C21.8345 8.5542 22.901 8.36641 25.0317 8.06744C26.7948 7.7954 28.5717 7.61724 30.3544 7.53374C32.1285 7.40776 33.9108 7.44747 35.6772 7.65234C37.4935 7.79788 39.2828 8.17496 41 8.7741V6.28843C39.2825 5.69045 37.4933 5.3134 35.6772 5.16667C33.9108 4.96138 32.1284 4.9225 30.3544 5.05054C28.5717 5.13404 26.7948 5.3122 25.0317 5.58425C22.901 5.88075 21.8345 6.07841 19.7089 6.41939V3.93372C21.8345 3.5878 22.901 3.39755 25.0317 3.09857C26.795 2.82775 28.5718 2.6496 30.3544 2.56487C32.1285 2.43889 33.9108 2.4786 35.6772 2.68347C37.4933 2.8302 39.2825 3.20725 41 3.80524M2.88778 13.5255L2.70415 13.36L2.52052 13.1895L2.34192 13.019L2.16081 12.8559C2.08786 12.8905 2.05264 12.9103 1.97718 12.9424C1.90171 12.9745 1.86901 12.9968 1.79606 13.0289L1.61495 13.1154L1.43132 13.1969L1.50175 13.0042C1.5269 12.9276 1.54199 12.8905 1.56966 12.8139L1.6401 12.6187L1.71054 12.4235L1.5269 12.2506L1.34327 12.0702L1.15964 11.8923L0.98104 11.7095L1.20492 11.7737L1.43132 11.833L1.65771 11.8898C1.74827 11.9145 1.79103 11.9269 1.88159 11.9467C1.91177 11.8676 1.92435 11.8281 1.95453 11.7515C1.98472 11.6749 1.99227 11.6353 2.01994 11.5587C2.04761 11.4822 2.0627 11.4401 2.09037 11.3636C2.11804 11.287 2.13314 11.2474 2.16081 11.1684C2.19099 11.2573 2.20357 11.3067 2.22873 11.3981C2.25388 11.4896 2.27149 11.5316 2.29916 11.6205L2.36959 11.8478C2.39978 11.9393 2.41236 11.9837 2.44003 12.0752L2.66642 12.1221L2.89282 12.1666L3.11921 12.211L3.34309 12.2531L3.15946 12.3494C3.08651 12.3889 3.05129 12.4087 2.97583 12.4458L2.79723 12.5421L2.6136 12.6336C2.64127 12.725 2.65636 12.767 2.68403 12.8559C2.7117 12.9449 2.72428 12.9918 2.75195 13.0833C2.77962 13.1747 2.79471 13.2167 2.82238 13.3081L2.89282 13.533M2.6136 8.36147C2.64127 8.45289 2.65636 8.4949 2.68403 8.58632C2.7117 8.67774 2.72428 8.71975 2.75195 8.81117L2.82238 9.03601L2.89282 9.26086L2.70918 9.09284L2.52555 8.92483L2.34695 8.75434L2.16081 8.58385L1.97718 8.67033L1.79606 8.75681L1.61495 8.84082L1.43132 8.92483L1.50175 8.73457C1.5269 8.65551 1.54199 8.61844 1.56966 8.53937L1.6401 8.34665L1.71054 8.15145L1.5269 7.97849C1.45395 7.90684 1.41874 7.86977 1.34327 7.79812L1.15964 7.62022L0.98104 7.43738L1.20492 7.50162C1.29548 7.52633 1.34076 7.53621 1.43132 7.56339L1.65771 7.61775C1.74827 7.64246 1.79103 7.65481 1.88159 7.67211C1.91177 7.59798 1.92435 7.55598 1.95453 7.47938C1.98472 7.40279 1.99227 7.36325 2.01994 7.28418C2.04761 7.20512 2.0627 7.16806 2.09037 7.09146C2.11804 7.01486 2.13314 6.97533 2.16081 6.89626C2.19099 6.98521 2.20357 7.03216 2.22873 7.12358C2.25388 7.215 2.27149 7.25948 2.29916 7.34843L2.36959 7.57575C2.39978 7.66717 2.41236 7.71164 2.44003 7.80306L2.66642 7.85001L2.89282 7.89695L3.11921 7.93896L3.34309 7.98343L3.15946 8.07733C3.08651 8.11686 3.05129 8.13663 2.97583 8.17369L2.79723 8.27005L2.6136 8.36147ZM2.6136 4.08691L2.68403 4.31423C2.70918 4.40318 2.72428 4.44766 2.75195 4.53908L2.82238 4.76392C2.85005 4.85535 2.86514 4.89982 2.89282 4.98877L2.70918 4.82075C2.63623 4.75651 2.5985 4.71945 2.52555 4.65274L2.34695 4.48472L2.16081 4.31176L1.97718 4.39824L1.79606 4.48472L1.61495 4.56873L1.43132 4.65274L1.50175 4.46248C1.5269 4.38341 1.54199 4.34388 1.56966 4.26729L1.6401 4.07209C1.66777 3.99549 1.68286 3.95843 1.71054 3.87936L1.5269 3.7064C1.45395 3.63228 1.41874 3.59769 1.34327 3.52603L1.15964 3.34813L0.98104 3.16529L1.20492 3.22953L1.43132 3.28883L1.65771 3.34813L1.88159 3.40249C1.91177 3.32589 1.92435 3.28636 1.95453 3.20729C1.98472 3.12822 1.99227 3.08869 2.01994 3.0121C2.04761 2.9355 2.0627 2.89597 2.09037 2.8169C2.11804 2.73783 2.13314 2.70324 2.16081 2.62417C2.19099 2.71559 2.20357 2.76007 2.22873 2.85149C2.25388 2.94291 2.27149 2.98739 2.29916 3.07881C2.32683 3.17023 2.34192 3.21223 2.36959 3.30365C2.39726 3.39508 2.41236 3.43955 2.44003 3.53097L2.66642 3.57792L2.89282 3.62487L3.11921 3.66934L3.34309 3.71135L3.15946 3.80524L2.97583 3.9016L2.79723 3.99549L2.6136 4.08691ZM5.45107 11.7762L5.26744 11.6279L5.08381 11.4772L4.90018 11.324L4.71655 11.1733L4.53795 11.2795L4.35432 11.3833L4.17069 11.4896C4.09774 11.5291 4.06 11.5489 3.98957 11.5909L4.05749 11.3907L4.12792 11.1881L4.19836 10.9905C4.22603 10.9089 4.24112 10.8719 4.26627 10.7903C4.19584 10.7261 4.16062 10.6964 4.08516 10.6322L3.90153 10.474L3.7179 10.3134L3.53929 10.1528L3.76317 10.1874C3.85373 10.2047 3.8965 10.2121 3.98957 10.2245L4.21596 10.2616L4.43984 10.2912C4.47003 10.2121 4.48009 10.1726 4.51027 10.0911C4.54046 10.0095 4.55052 9.96999 4.58071 9.89093C4.61089 9.81186 4.62096 9.76738 4.65114 9.68832C4.68133 9.60925 4.69139 9.56477 4.71655 9.48571C4.74673 9.57466 4.75931 9.61913 4.78949 9.70808C4.81968 9.79703 4.82974 9.83657 4.85993 9.92552C4.89011 10.0145 4.90018 10.0565 4.93036 10.1454C4.96055 10.2344 4.97313 10.2739 4.99577 10.3629C5.08632 10.3752 5.1316 10.3802 5.22216 10.3876L5.44856 10.4123L5.67495 10.437L5.89883 10.4543C5.82839 10.4988 5.79318 10.5235 5.71771 10.5679L5.5366 10.6816L5.35297 10.7928L5.16934 10.904C5.19701 10.9929 5.2121 11.0374 5.23977 11.1239C5.26744 11.2104 5.28253 11.2524 5.3102 11.3413C5.33787 11.4303 5.35297 11.4723 5.38064 11.5612L5.45107 11.7762ZM5.16934 6.63188C5.19701 6.72083 5.2121 6.76284 5.23977 6.84932C5.26744 6.9358 5.28253 6.98027 5.3102 7.06922C5.33787 7.15817 5.35297 7.20018 5.38064 7.28913L5.45107 7.50409L5.26744 7.35337L5.08381 7.20512L4.90018 7.05192L4.71655 6.89873C4.64611 6.94568 4.61089 6.96298 4.53795 7.00745L4.35432 7.11123C4.28137 7.1557 4.24363 7.17547 4.17069 7.215L3.98957 7.31878L4.05749 7.11864C4.08516 7.0371 4.10025 6.99757 4.12792 6.9185L4.19836 6.71589C4.22603 6.63682 4.24112 6.59729 4.26627 6.51823C4.19584 6.45398 4.16062 6.42186 4.08516 6.36009L3.90153 6.20196L3.7179 6.04135L3.53929 5.88075C3.62985 5.88075 3.67513 5.90298 3.76317 5.92028C3.85122 5.93757 3.8965 5.93758 3.98957 5.95487L4.21596 5.98699L4.43984 6.01911C4.47003 5.93758 4.48009 5.90051 4.51027 5.81898C4.54046 5.73744 4.55052 5.6979 4.58071 5.61636C4.61089 5.53483 4.62096 5.49529 4.65114 5.41623C4.68133 5.33716 4.69139 5.29269 4.71655 5.21362C4.74673 5.3001 4.75931 5.34457 4.78949 5.43352C4.81968 5.52247 4.82974 5.56448 4.85993 5.65343C4.89011 5.74238 4.90018 5.78191 4.93036 5.87333C4.96055 5.96476 4.97313 6.00182 4.99577 6.09077L5.22216 6.11548L5.44856 6.14019L5.67495 6.16242L5.89883 6.18219C5.82839 6.22914 5.79318 6.25137 5.71771 6.29585L5.5366 6.40951L5.35297 6.52069L5.16934 6.63188ZM8.00681 14.0617L7.82569 13.9283C7.75275 13.8739 7.71501 13.8492 7.64206 13.7924C7.56911 13.7356 7.53138 13.7133 7.45843 13.6565L7.2748 13.5181L7.0962 13.6441L6.91257 13.7627L6.72894 13.8863C6.65599 13.9308 6.61826 13.9579 6.54531 14.0049L6.61574 13.7973C6.64341 13.7133 6.65851 13.6738 6.68618 13.5922C6.71385 13.5107 6.72894 13.4662 6.75661 13.3822C6.78428 13.2982 6.79686 13.2587 6.82453 13.1747C6.75158 13.1203 6.71636 13.0931 6.64341 13.0338L6.45978 12.893L6.27866 12.7522L6.09504 12.6064L6.31891 12.6237L6.54531 12.6385L6.7717 12.6533H6.99558C7.02577 12.5693 7.03834 12.5323 7.06601 12.4483C7.09369 12.3642 7.10878 12.3222 7.13896 12.2407L7.20688 12.0331C7.23455 11.9491 7.24713 11.9071 7.2748 11.8256C7.30499 11.9071 7.31756 11.9516 7.34523 12.0381C7.3729 12.1246 7.388 12.1666 7.41818 12.2506L7.4861 12.4655C7.51377 12.5471 7.52635 12.5916 7.55653 12.678H7.78041H8.00681H8.2332H8.44954L8.27093 12.804L8.0873 12.9325L7.90367 13.061L7.72004 13.187L7.79048 13.3971C7.81815 13.4835 7.83324 13.5255 7.86091 13.6095C7.88858 13.6936 7.90367 13.738 7.93134 13.8245C7.95901 13.911 7.97159 13.953 7.99926 14.0345M7.72004 8.91494L7.79048 9.12744L7.86091 9.33746L7.93134 9.55242C7.9565 9.63396 7.97159 9.6809 7.99926 9.76244L7.81815 9.62902C7.7452 9.57466 7.70746 9.54995 7.63451 9.49312C7.56157 9.43629 7.52383 9.41405 7.45088 9.35722L7.26725 9.22133C7.19431 9.26827 7.15909 9.29545 7.08865 9.34487L6.90502 9.46347L6.72139 9.58454L6.53776 9.70314L6.60819 9.49806C6.63586 9.41652 6.65096 9.37452 6.67863 9.29051C6.7063 9.2065 6.72139 9.16697 6.74906 9.08296C6.77673 8.99895 6.78931 8.95942 6.81698 8.87541L6.63586 8.73704L6.45223 8.59373L6.27112 8.45289L6.08749 8.30711L6.31137 8.32441L6.53776 8.33924H6.76416L6.98804 8.35406C7.01822 8.27005 7.0308 8.23052 7.05847 8.14651C7.08614 8.0625 7.10123 8.0205 7.13142 7.93896C7.1616 7.85742 7.17167 7.81294 7.19934 7.73141C7.22701 7.64987 7.23958 7.60539 7.26725 7.52386C7.29744 7.60539 7.31002 7.64987 7.33769 7.73635L7.41064 7.94884C7.43831 8.03532 7.45088 8.07733 7.47856 8.16133C7.50623 8.24534 7.5188 8.28982 7.54899 8.3763H7.77287H7.99926C8.08982 8.3763 8.1351 8.3763 8.22566 8.3763H8.44954L8.27093 8.50231L8.0873 8.63327L7.90367 8.75681L7.72004 8.88529M7.72004 4.6132C7.74771 4.69968 7.76281 4.73922 7.79048 4.8257L7.86091 5.03572L7.93134 5.25068C7.9565 5.33469 7.97159 5.37669 7.99926 5.46317L7.81815 5.32728C7.7452 5.27539 7.70746 5.24821 7.63451 5.19138C7.56157 5.13455 7.52383 5.11231 7.45088 5.05548L7.26725 4.91959C7.19431 4.96653 7.15909 4.99124 7.08865 5.04313C7.01822 5.09502 6.97797 5.11478 6.90502 5.1642L6.72139 5.2828L6.53776 5.4014C6.56543 5.31986 6.58052 5.27786 6.60819 5.19385C6.63586 5.10984 6.65096 5.07278 6.67863 4.98877C6.7063 4.90476 6.72139 4.86523 6.74906 4.78122C6.77673 4.69721 6.78931 4.65768 6.81698 4.57614L6.63586 4.4353L6.45223 4.29199L6.27112 4.14868L6.08749 4.00537L6.31137 4.02267L6.53776 4.03503C6.62832 4.03503 6.6736 4.04738 6.76416 4.04985L6.98804 4.06467C7.01822 3.98067 7.0308 3.93866 7.05847 3.85713C7.08614 3.77559 7.10123 3.73111 7.13142 3.64958L7.19934 3.43955C7.22701 3.35801 7.23958 3.31601 7.26725 3.232C7.29744 3.31848 7.31002 3.36048 7.33769 3.44696C7.36536 3.53344 7.38045 3.57298 7.41064 3.65946C7.44082 3.74594 7.45088 3.78794 7.47856 3.87195C7.50623 3.95596 7.5188 4.00043 7.54899 4.08691H7.77287H7.99926H8.22566C8.31621 4.08691 8.35898 4.08691 8.44954 4.08691L8.27093 4.2154L8.0873 4.34141L7.90367 4.46742C7.83072 4.52178 7.79299 4.54402 7.72004 4.59591M10.5575 11.8132L10.3739 11.6897C10.3009 11.6403 10.2632 11.618 10.1903 11.5662L10.0091 11.4451L9.82802 11.3191L9.64439 11.455L9.46328 11.5884C9.39033 11.6452 9.3526 11.6724 9.27965 11.7243C9.2067 11.7762 9.17148 11.8058 9.09602 11.8577C9.12369 11.7712 9.13878 11.7292 9.16645 11.6452L9.23689 11.4327L9.3048 11.2202C9.33499 11.1362 9.34756 11.0918 9.37523 11.0102L9.1916 10.8817C9.11866 10.8298 9.08344 10.8051 9.01301 10.7508L8.82937 10.6248L8.64574 10.4938H9.32241H9.5488L9.61924 10.2813C9.64691 10.1973 9.65948 10.1553 9.68967 10.0688C9.71986 9.98235 9.7274 9.94034 9.75759 9.85633C9.78778 9.77233 9.80035 9.72785 9.82802 9.64384L9.89846 9.84892C9.92613 9.9354 9.94122 9.97741 9.96889 10.0614C9.99656 10.1454 10.0066 10.185 10.0368 10.269C10.067 10.353 10.0771 10.3925 10.1072 10.4765H10.3311C10.4217 10.4765 10.467 10.4765 10.5575 10.4765L10.7839 10.4642L11.0078 10.4518C10.9348 10.5111 10.8996 10.5383 10.8267 10.5926C10.7537 10.647 10.7185 10.6791 10.6456 10.736L10.4619 10.8719L10.2783 11.0102L10.3487 11.2202L10.4192 11.4278C10.4443 11.5093 10.4594 11.5513 10.4871 11.6353C10.5148 11.7193 10.5298 11.7589 10.5575 11.8429M10.2783 6.73813C10.306 6.82214 10.3211 6.86414 10.3487 6.94568L10.4192 7.1557C10.4443 7.23724 10.4594 7.27924 10.4871 7.36325C10.5148 7.44726 10.5298 7.48679 10.5575 7.5708C10.4846 7.51892 10.4468 7.49668 10.3739 7.44726L10.1903 7.32372L10.0091 7.20265L9.82802 7.07663C9.75507 7.13346 9.71734 7.15817 9.64439 7.21253L9.46328 7.34843L9.27965 7.48185L9.09602 7.61528L9.16645 7.40031L9.23689 7.19029L9.3048 6.9778C9.33499 6.89379 9.34756 6.84932 9.37523 6.76778C9.30229 6.71342 9.26455 6.68871 9.1916 6.63929L9.01301 6.51081L8.82937 6.38233L8.64574 6.25137H9.32241H9.5488L9.61924 6.03888C9.64691 5.9524 9.65948 5.91287 9.68967 5.82639C9.71986 5.73991 9.7274 5.6979 9.75759 5.61389L9.82802 5.39893C9.85569 5.48294 9.87079 5.52495 9.89846 5.60648C9.92613 5.68802 9.94122 5.73497 9.96889 5.81898C9.99656 5.90298 10.0066 5.94252 10.0368 6.02653C10.067 6.11053 10.0771 6.15007 10.1072 6.23408H10.3311H10.5575C10.6481 6.23408 10.6934 6.23408 10.7839 6.23408L11.0078 6.22172L10.8267 6.36256C10.7512 6.41692 10.7185 6.44904 10.6456 6.5034L10.4619 6.64177L10.2783 6.78013M13.1158 13.827L12.9321 13.7133L12.7485 13.6021L12.5699 13.4885L12.3863 13.3748L12.2026 13.5206L12.019 13.6664L11.8379 13.8097L11.6543 13.9555C11.6845 13.8665 11.697 13.8245 11.7247 13.738C11.7524 13.6516 11.765 13.6071 11.7926 13.5231L11.8631 13.3056L11.9335 13.0907C11.8605 13.0437 11.8253 13.0165 11.7499 12.9745L11.5687 12.8535L11.3876 12.7373L11.2166 12.6089L11.4405 12.594L11.6668 12.5792L11.8932 12.5619L12.1196 12.5446C12.1473 12.4581 12.1624 12.4161 12.1901 12.3272C12.2177 12.2382 12.2328 12.1987 12.258 12.1097C12.2831 12.0208 12.2982 11.9813 12.3284 11.8948C12.3586 11.8083 12.3687 11.7638 12.3989 11.6798L12.4693 11.8824C12.4944 11.964 12.5095 12.006 12.5372 12.085C12.5649 12.1641 12.5775 12.2111 12.6076 12.2901C12.6378 12.3692 12.6479 12.4161 12.6781 12.4952C12.7686 12.4952 12.8114 12.4952 12.9045 12.473L13.1284 12.4532C13.2189 12.4532 13.2642 12.4532 13.3547 12.4285C13.4453 12.4038 13.4906 12.4285 13.5811 12.4038L13.3975 12.557L13.2139 12.7027C13.1434 12.7645 13.1057 12.7942 13.0328 12.8535L12.8491 12.9992C12.8768 13.0833 12.8919 13.1253 12.9196 13.2043C12.9472 13.2834 12.9598 13.3279 12.9875 13.4094L13.0579 13.612C13.0881 13.696 13.1007 13.7356 13.1284 13.8171M12.8491 8.72963L12.9196 8.93224C12.9447 9.01625 12.9598 9.05331 12.9875 9.13732L13.0579 9.33993C13.0881 9.42394 13.1007 9.46347 13.1284 9.54501L12.9447 9.43135L12.7611 9.32016L12.5825 9.2065L12.3989 9.09284L12.2152 9.23615L12.0316 9.3844L11.8505 9.52771L11.6668 9.67102C11.697 9.58701 11.7096 9.54254 11.7373 9.45606C11.765 9.36958 11.7775 9.3251 11.8052 9.24109L11.8756 9.02366L11.9461 8.80623C11.8731 8.76175 11.8379 8.73457 11.7624 8.69256L11.5813 8.57397L11.4002 8.45537L11.2166 8.33677L11.4405 8.32194L11.6668 8.30711L11.8932 8.28982L12.1196 8.27252C12.1473 8.18357 12.1624 8.14157 12.1901 8.05756C12.2177 7.97355 12.2328 7.92661 12.258 7.83766C12.2831 7.7487 12.2982 7.7067 12.3284 7.62269C12.3586 7.53868 12.3687 7.49174 12.3989 7.40526L12.4693 7.61034C12.4944 7.69188 12.5095 7.73388 12.5372 7.81542C12.5649 7.89696 12.5775 7.93649 12.6076 8.01803C12.6378 8.09956 12.6479 8.14157 12.6781 8.22311L12.9045 8.20334L13.1284 8.1811C13.2189 8.1811 13.2642 8.1811 13.3547 8.15639L13.5811 8.13416C13.5057 8.19346 13.4705 8.22311 13.3975 8.28488L13.2139 8.43066C13.1434 8.49243 13.1057 8.52208 13.0328 8.58138C12.9598 8.64068 12.9221 8.66786 12.8491 8.72963ZM12.8491 4.45754L12.9196 4.66015C12.9447 4.74416 12.9598 4.78122 12.9875 4.86523C13.0152 4.94924 13.0302 4.9863 13.0579 5.07031C13.0856 5.15432 13.1007 5.19138 13.1284 5.27292L12.9447 5.16173L12.7611 5.04807L12.5825 4.93441L12.3989 4.82075L12.2152 4.96406L12.0316 5.11231L11.8505 5.25562L11.6668 5.39893C11.697 5.31492 11.7096 5.27045 11.7373 5.18397C11.765 5.09749 11.7775 5.05301 11.8052 4.96654L11.8756 4.75157L11.9461 4.53414L11.7624 4.41801L11.5813 4.30188L11.4002 4.18327L11.2166 4.06467L11.4405 4.04985C11.5335 4.04985 11.5763 4.04985 11.6668 4.03255L11.8932 4.01773L12.1196 4.00043L12.1901 3.78547C12.2177 3.69652 12.2328 3.65451 12.258 3.56556C12.2831 3.47661 12.2982 3.43461 12.3284 3.3506C12.3586 3.26659 12.3687 3.21965 12.3989 3.13317C12.4265 3.21223 12.4416 3.25424 12.4693 3.33825C12.497 3.42226 12.5095 3.45932 12.5372 3.54333C12.5649 3.62734 12.5775 3.6644 12.6076 3.74594C12.6378 3.82748 12.6479 3.86948 12.6781 3.95102L12.9045 3.93125C12.9925 3.9189 13.0378 3.91642 13.1284 3.90901C13.2189 3.9016 13.2642 3.89666 13.3547 3.8843L13.5811 3.86207C13.5057 3.9189 13.4705 3.95102 13.3975 4.01032L13.2139 4.16104L13.0328 4.30929C12.9598 4.36859 12.9221 4.39577 12.8491 4.45754ZM15.6866 11.3759C15.6137 11.3339 15.5784 11.3117 15.503 11.2721C15.4275 11.2326 15.3948 11.2079 15.3219 11.1634L15.1382 11.0572L14.9571 10.9509L14.7735 11.1041L14.5899 11.2573L14.4062 11.408L14.2251 11.5612C14.2553 11.4723 14.2679 11.4278 14.293 11.3438C14.3182 11.2598 14.3358 11.2104 14.3635 11.1239C14.3911 11.0374 14.4062 10.9905 14.4339 10.904L14.5043 10.6841L14.3232 10.5754C14.2477 10.5333 14.2125 10.5111 14.1396 10.4666C14.0666 10.4222 14.0289 10.3999 13.9559 10.3604L13.7748 10.2492C13.8654 10.2368 13.9107 10.2319 14.0012 10.2245L14.2251 10.1948L14.4515 10.1701L14.6779 10.143C14.7056 10.054 14.7181 10.0095 14.7458 9.92305C14.7735 9.83657 14.7886 9.79209 14.8162 9.70314C14.8439 9.61419 14.859 9.57219 14.8867 9.48324C14.9143 9.39429 14.9294 9.35228 14.9571 9.26333L15.025 9.46347C15.0527 9.54748 15.0678 9.58701 15.0955 9.66608C15.1231 9.74515 15.1382 9.78715 15.1659 9.86869L15.2363 10.0713L15.4602 10.0416L15.6866 10.0095L15.913 9.97988C16.0036 9.96505 16.0488 9.96011 16.1394 9.95023L15.9558 10.1034C15.8828 10.1652 15.8451 10.1998 15.7721 10.2591L15.5885 10.4147L15.4074 10.5704C15.4376 10.6495 15.4501 10.6915 15.4753 10.7705C15.5005 10.8496 15.5181 10.8916 15.5457 10.9707L15.6162 11.1733L15.6866 11.3759ZM15.4074 6.29585C15.4376 6.37738 15.4501 6.41939 15.4753 6.49846C15.5005 6.57752 15.5181 6.61953 15.5457 6.6986L15.6162 6.9012L15.6866 7.10381L15.503 6.99757L15.3219 6.89132L15.1382 6.78507L14.9571 6.67883L14.7735 6.83202L14.5899 6.98521L14.4062 7.13594L14.2251 7.28913C14.2553 7.20018 14.2679 7.15817 14.293 7.06922C14.3182 6.98027 14.3358 6.93827 14.3635 6.85179C14.3911 6.76531 14.4062 6.71836 14.4339 6.63188C14.4616 6.5454 14.4767 6.49846 14.5043 6.41445L14.3232 6.30326C14.2477 6.26125 14.2125 6.23902 14.1396 6.19454L13.9559 6.08583L13.7748 5.97464C13.8654 5.97464 13.9107 5.97464 14.0012 5.94993L14.2251 5.92275L14.4515 5.89804L14.6779 5.87086C14.7056 5.78191 14.7181 5.73744 14.7458 5.65096L14.8162 5.43105C14.8439 5.34457 14.859 5.3001 14.8867 5.21115C14.9143 5.1222 14.9294 5.07772 14.9571 4.99124L15.025 5.19385C15.0527 5.27539 15.0678 5.31492 15.0955 5.39399C15.1231 5.47306 15.1382 5.51506 15.1659 5.5966L15.2363 5.79921L15.4602 5.76956L15.6866 5.73744L15.913 5.70779C16.0036 5.69296 16.0488 5.68802 16.1394 5.67814L15.9558 5.83133L15.7721 5.98699L15.5885 6.14266L15.4074 6.29585ZM18.2423 13.1327L18.0637 13.0289C17.9883 12.9918 17.9531 12.9696 17.8801 12.9276L17.6965 12.8288L17.5154 12.725L17.3317 12.8831L17.1481 13.0413L16.9645 13.1994L16.7808 13.3551C16.811 13.2686 16.8236 13.2241 16.8513 13.1351C16.8789 13.0462 16.894 13.0017 16.9217 12.9152C16.9494 12.8288 16.9645 12.7818 16.9947 12.6929C17.0248 12.6039 17.0349 12.5594 17.0601 12.4705L16.8815 12.3692L16.6978 12.2654L16.5142 12.1592L16.3306 12.0579L16.5595 12.0257L16.7808 11.9911L17.0098 11.959C17.1003 11.9442 17.1456 11.9343 17.2361 11.9244C17.2613 11.8355 17.2739 11.791 17.3041 11.7021L17.3745 11.4822L17.4449 11.2598L17.5154 11.0374C17.5405 11.1189 17.5556 11.156 17.5833 11.2375C17.611 11.3191 17.626 11.3561 17.6537 11.4377L17.7242 11.6378L17.7921 11.838L18.0159 11.8034L18.2423 11.7663L18.4687 11.7317C18.5593 11.7169 18.6071 11.7119 18.6951 11.6946L18.5115 11.8676L18.3279 12.0257L18.1442 12.1863C18.0713 12.2506 18.0336 12.2802 17.9631 12.3445C17.9908 12.4235 18.0034 12.4655 18.031 12.5446C18.0587 12.6237 18.0738 12.6657 18.1015 12.7448C18.1291 12.8238 18.1442 12.8658 18.1719 12.9474L18.2398 13.145M17.9631 8.07238C17.9908 8.15145 18.0034 8.19346 18.031 8.27252C18.0587 8.35159 18.0738 8.39359 18.1015 8.47266C18.1291 8.55173 18.1442 8.59373 18.1719 8.6728L18.2398 8.87294L18.0612 8.76917C17.9858 8.7321 17.9505 8.70986 17.8776 8.66786L17.694 8.56655C17.621 8.52702 17.5833 8.50725 17.5129 8.46525L17.3292 8.62338L17.1456 8.78152L16.962 8.93965C16.889 9.00142 16.8538 9.03354 16.7783 9.09284C16.8085 9.00884 16.8211 8.96436 16.8488 8.87541C16.8764 8.78646 16.8915 8.74199 16.9192 8.65303L16.9921 8.43313C17.0198 8.34418 17.0324 8.2997 17.0575 8.21075L16.8789 8.10945L16.6953 8.00567L16.5117 7.89943L16.3281 7.79812L16.557 7.76353L16.7783 7.73141L17.0072 7.69682L17.2336 7.6647C17.2588 7.57575 17.2714 7.53127 17.3015 7.44232L17.372 7.21994C17.3997 7.13346 17.4147 7.08899 17.4424 7.00004L17.5129 6.77766C17.538 6.8592 17.5531 6.89626 17.5808 6.9778L17.6512 7.17794L17.7216 7.38055C17.7493 7.45714 17.7619 7.49915 17.7896 7.57822L18.0134 7.54362L18.2398 7.50656L18.4662 7.47197C18.5568 7.45715 18.6046 7.4522 18.6926 7.43491L18.5115 7.59551L18.3279 7.75365C18.2549 7.82036 18.2172 7.85001 18.1442 7.91425C18.0713 7.97849 18.0336 8.00814 17.9631 8.07238ZM17.9631 3.79782C17.9908 3.87936 18.0034 3.92137 18.031 4.00043C18.0587 4.0795 18.0738 4.12151 18.1015 4.20057C18.1291 4.27964 18.1442 4.32164 18.1719 4.40071L18.2398 4.60085L18.0612 4.49707L17.8776 4.39577L17.694 4.29447C17.621 4.25246 17.5833 4.23516 17.5129 4.19316L17.3292 4.35129L17.1456 4.50943L16.962 4.66756C16.889 4.72686 16.8538 4.76145 16.7783 4.82323C16.8085 4.73675 16.8211 4.69227 16.8488 4.60332C16.8764 4.51437 16.8915 4.46989 16.9192 4.38094C16.9469 4.29199 16.962 4.24752 16.9921 4.16104C17.0223 4.07456 17.0324 4.02761 17.0575 3.93866L16.8789 3.83489L16.6953 3.73358L16.5117 3.62733L16.3281 3.52603L16.557 3.49144L16.7783 3.45932L17.0072 3.42473L17.2336 3.39261C17.2588 3.30365 17.2714 3.25918 17.3015 3.17023L17.372 2.94785C17.3997 2.8589 17.4147 2.8169 17.4424 2.72548C17.4701 2.63406 17.4852 2.59452 17.5129 2.50557C17.538 2.58464 17.5531 2.62417 17.5808 2.70571L17.6512 2.90585L17.7216 3.10599L17.7896 3.30613L18.0134 3.27154L18.2398 3.23447L18.4662 3.19988L18.6926 3.16529C18.6222 3.22953 18.5844 3.25918 18.5115 3.32342L18.3279 3.48403L18.1442 3.64216L17.9631 3.79782ZM0 23.6782C4.10025 25.0174 6.14786 25.1014 10.2506 24.9359C14.3534 24.7703 16.3985 24.3478 20.4987 23.6782C24.599 23.0086 26.6491 22.5886 30.7494 22.4206C34.8496 22.2526 36.8997 22.3366 41 23.6782V21.1926C36.8997 19.8509 34.8471 19.7694 30.7494 19.9374C26.6516 20.1054 24.599 20.5156 20.4987 21.1926C16.3985 21.8696 14.3484 22.2847 10.2506 22.4502C6.15289 22.6158 4.10025 22.5367 0 21.1926V23.6782Z" fill="white"/>
</g>
</g>
<path d="M60.7509 6.23605V18H59.2039V9.22805L55.2939 18H54.2059L50.2789 9.21105V18H48.7319V6.23605H50.3979L54.7499 15.96L59.1019 6.23605H60.7509Z" fill="white"/>
<path d="M70.3785 15.365H65.2105L64.2585 18H62.6265L66.9105 6.21905H68.6955L72.9625 18H71.3305L70.3785 15.365ZM69.9365 14.107L67.7945 8.12305L65.6525 14.107H69.9365Z" fill="white"/>
<path d="M78.5186 6.15105C79.8106 6.15105 80.9269 6.39471 81.8676 6.88205C82.8196 7.35805 83.5449 8.04371 84.0436 8.93905C84.5536 9.83438 84.8086 10.8884 84.8086 12.101C84.8086 13.3137 84.5536 14.3677 84.0436 15.263C83.5449 16.147 82.8196 16.827 81.8676 17.303C80.9269 17.7677 79.8106 18 78.5186 18H74.8296V6.15105H78.5186ZM78.5186 16.725C80.0486 16.725 81.2159 16.3227 82.0206 15.518C82.8253 14.702 83.2276 13.563 83.2276 12.101C83.2276 10.6277 82.8196 9.47738 82.0036 8.65005C81.1989 7.82271 80.0373 7.40905 78.5186 7.40905H76.3766V16.725H78.5186Z" fill="white"/>
<path d="M88.3961 7.40905V11.37H92.7141V12.645H88.3961V16.725H93.2241V18H86.8491V6.13405H93.2241V7.40905H88.3961Z" fill="white"/>
<path d="M101.644 6.15105V18H100.097V6.15105H101.644Z" fill="white"/>
<path d="M113.597 18H112.05L105.828 8.56505V18H104.281V6.13405H105.828L112.05 15.552V6.13405H113.597V18Z" fill="white"/>
<path d="M128.059 6.15105V7.40905H124.829V18H123.282V7.40905H120.035V6.15105H128.059Z" fill="white"/>
<path d="M139.092 6.15105V18H137.545V12.628H131.51V18H129.963V6.15105H131.51V11.353H137.545V6.15105H139.092Z" fill="white"/>
<path d="M143.281 7.40905V11.37H147.599V12.645H143.281V16.725H148.109V18H141.734V6.13405H148.109V7.40905H143.281Z" fill="white"/>
<path d="M156.495 6.15105V13.648C156.495 14.702 156.75 15.484 157.26 15.994C157.781 16.504 158.501 16.759 159.419 16.759C160.326 16.759 161.034 16.504 161.544 15.994C162.065 15.484 162.326 14.702 162.326 13.648V6.15105H163.873V13.631C163.873 14.617 163.675 15.45 163.278 16.13C162.881 16.7987 162.343 17.2974 161.663 17.626C160.994 17.9547 160.241 18.119 159.402 18.119C158.563 18.119 157.804 17.9547 157.124 17.626C156.455 17.2974 155.923 16.7987 155.526 16.13C155.141 15.45 154.948 14.617 154.948 13.631V6.15105H156.495Z" fill="white"/>
<path d="M170.211 18.119C169.429 18.119 168.726 17.983 168.103 17.711C167.491 17.4277 167.009 17.0424 166.658 16.555C166.306 16.0564 166.125 15.484 166.114 14.838H167.763C167.819 15.3934 168.046 15.8637 168.443 16.249C168.851 16.623 169.44 16.81 170.211 16.81C170.947 16.81 171.525 16.6287 171.945 16.266C172.375 15.892 172.591 15.416 172.591 14.838C172.591 14.3847 172.466 14.0164 172.217 13.733C171.967 13.4497 171.656 13.2344 171.282 13.087C170.908 12.9397 170.403 12.781 169.769 12.611C168.987 12.407 168.358 12.203 167.882 11.999C167.417 11.795 167.015 11.4777 166.675 11.047C166.346 10.605 166.182 10.0157 166.182 9.27905C166.182 8.63305 166.346 8.06071 166.675 7.56205C167.003 7.06338 167.462 6.67805 168.052 6.40605C168.652 6.13405 169.338 5.99805 170.109 5.99805C171.219 5.99805 172.126 6.27571 172.829 6.83105C173.543 7.38638 173.945 8.12305 174.036 9.04105H172.336C172.279 8.58771 172.041 8.19105 171.622 7.85105C171.202 7.49971 170.647 7.32405 169.956 7.32405C169.31 7.32405 168.783 7.49405 168.375 7.83405C167.967 8.16271 167.763 8.62738 167.763 9.22805C167.763 9.65871 167.882 10.01 168.12 10.282C168.369 10.554 168.669 10.7637 169.021 10.911C169.383 11.047 169.888 11.2057 170.534 11.387C171.316 11.6024 171.945 11.8177 172.421 12.033C172.897 12.237 173.305 12.56 173.645 13.002C173.985 13.4327 174.155 14.022 174.155 14.77C174.155 15.348 174.002 15.892 173.696 16.402C173.39 16.912 172.936 17.3257 172.336 17.643C171.735 17.9604 171.027 18.119 170.211 18.119Z" fill="white"/>
<path d="M183.435 15.365H178.267L177.315 18H175.683L179.967 6.21905H181.752L186.019 18H184.387L183.435 15.365ZM182.993 14.107L180.851 8.12305L178.709 14.107H182.993Z" fill="white"/>
<defs>
<clipPath id="clip0_1485_1054">
<rect width="41" height="25" fill="white"/>
</clipPath>
</defs>
</svg>
